<svg width="136" height="20" viewBox="0 0 136 20" fill="none" xmlns="http://www.w3.org/2000/svg">
<path d="M8.59931 0.42441L0 19.3726H4.56489L6.15627 15.6569H14.6217L16.1864 19.3726H20.9386L12.3661 0.42441H8.59931ZM7.66979 12.1286L10.4292 5.73145L13.1399 12.1286H7.66979ZM44.4127 9.69531C45.1791 8.76745 45.5844 7.59393 45.554 6.39088C45.5796 5.27933 45.2747 4.18517 44.678 3.24705C44.0747 2.33792 43.2271 1.6176 42.2325 1.169C41.0692 0.649567 39.8051 0.395234 38.5314 0.42441H31.1001V19.3726H35.6918V11.8634H36.1444L41.9283 19.3726H47.6928L41.2105 11.5982C42.591 11.2429 43.6617 10.6102 44.4225 9.70018L44.4127 9.69531ZM39.9062 8.13556C39.392 8.58491 38.6928 8.8104 37.8087 8.81202H35.6869V3.89431H37.8087C38.6945 3.89431 39.3936 4.11979 39.9062 4.57077C40.1593 4.79346 40.3597 5.06973 40.4927 5.37951C40.6257 5.68929 40.688 6.0248 40.6752 6.36168C40.6874 6.69598 40.6246 7.02877 40.4916 7.3357C40.3586 7.64263 40.1586 7.91591 39.9062 8.13556ZM71.6488 10.9509C71.9915 11.7152 72.1578 12.5469 72.1354 13.3842C72.1585 14.5795 71.8108 15.7525 71.1402 16.7422C70.4483 17.7197 69.5061 18.4929 68.4124 18.9808C67.1906 19.5355 65.8609 19.8123 64.5192 19.7911C63.004 19.8099 61.501 19.5184 60.1027 18.9346C58.8025 18.3923 57.6547 17.5402 56.7593 16.4526L60.0248 13.4012C60.4421 14.1561 61.0505 14.7879 61.789 15.2335C62.5699 15.7003 63.466 15.9389 64.3756 15.9221C65.153 15.9497 65.9209 15.7438 66.5802 15.3309C66.8482 15.1733 67.0702 14.948 67.2239 14.6777C67.3777 14.4074 67.4577 14.1015 67.4562 13.7906C67.4849 13.3994 67.3803 13.0099 67.1593 12.6858C66.9715 12.4509 66.7304 12.2641 66.4561 12.1408C66.2144 12.0358 65.96 11.9629 65.6993 11.9242C65.3635 11.8537 64.9693 11.7855 64.507 11.7247C64.0447 11.6639 63.6042 11.5957 63.1784 11.5252L62.2927 11.3329C61.8123 11.2196 61.345 11.0565 60.8984 10.8463C60.3588 10.6009 59.8547 10.2842 59.3995 9.90458C58.8927 9.48052 58.4849 8.95063 58.2047 8.35213C57.8757 7.61852 57.7177 6.81977 57.7424 6.01615C57.726 4.91331 58.0506 3.83231 58.6719 2.92098C59.3176 1.99642 60.1967 1.2593 61.2196 0.784539C62.3609 0.249269 63.6091 -0.0186996 64.8696 0.00101398C66.2105 -0.0120649 67.5385 0.26432 68.7628 0.811306C69.9117 1.3158 70.9322 2.07264 71.7485 3.02562L68.7044 5.84095C68.365 5.18486 67.8382 4.64449 67.1909 4.2885C66.5246 3.92331 65.7753 3.7364 65.0155 3.74588C64.3251 3.71154 63.6421 3.90193 63.0689 4.2885C62.8386 4.44066 62.65 4.64785 62.5199 4.8913C62.3899 5.13476 62.3227 5.4068 62.3243 5.68279C62.3023 6.02434 62.4121 6.36133 62.6309 6.62448C62.8247 6.84427 63.0707 7.01165 63.3463 7.11114C63.5916 7.20176 63.845 7.26857 64.1031 7.31067C64.4389 7.3642 64.8477 7.42504 65.3197 7.4956C65.7918 7.56617 66.2298 7.63917 66.6191 7.70973C66.7797 7.72677 67.0668 7.78517 67.4805 7.88006C67.9634 8.00098 68.4348 8.16382 68.8894 8.36673C69.4406 8.61888 69.9541 8.94646 70.4151 9.34005C70.9363 9.78303 71.3569 10.3322 71.6488 10.9509ZM96.3809 0.42441H100.839V19.3726H97.2301L87.9422 8.14773V19.3726H83.5111V0.42441H87.0686L96.3809 11.6517V0.42441ZM119.232 15.6058H126.556V19.3726H114.609V0.42441H119.232V15.6058ZM136 15.3625V19.3726H131.978V15.3528L136 15.3625Z" fill="currentColor"/>
</svg>
