<svg width="139" height="20" viewBox="0 0 139 20" fill="none" xmlns="http://www.w3.org/2000/svg">
    <path d="M34.3694 10.624L45.4734 -1.90735e-06H20.0014L24.9614 5.376L13.4414 16H21.3134L25.6654 11.9872V16H35.9694L41.7934 10.624H34.3694ZM26.2414 10.8902V5.376H32.1934L26.2414 10.8902Z" fill="#0F172A"/>
    <path d="M55.0698 -1.90735e-06L37.7578 16H45.6298L62.9418 -1.90735e-06H55.0698Z" fill="#0F172A"/>
    <path d="M23.2 5.376L18.208 -1.90735e-06H1.664L6.656 5.376H11.4877L0 16H7.872L12.768 11.488V5.376H23.2Z" fill="#0F172A"/>
    <path d="M129.346 8.288L138.306 -1.90735e-06H130.434L122.522 7.31808L115.746 -1.90735e-06H106.85L116.706 10.624H111.394L105.602 16H130.562L123.42 8.288H129.346Z" fill="#0F172A"/>
    <path d="M110.048 5.376L105.056 -1.90735e-06H95.8403H89.5683H87.9683L70.6562 16H78.5283L90.0233 5.376H99.616L88.1283 16H96.0003L100.896 11.488V5.376H110.048Z" fill="#0F172A"/>
    <path d="M85.5672 0H77.6952L69.2792 7.648V0H65.3432L48.0312 16H55.9032L63.9352 8.576V20L85.5672 0Z" fill="#0F172A"/>
</svg>
