<svg xmlns="http://www.w3.org/2000/svg" xmlns:xlink="http://www.w3.org/1999/xlink" viewBox="0 0 642.44 161.4"><defs><style>.cls-1{fill:url(#linear-gradient);}.cls-2{fill:url(#linear-gradient-2);}.cls-3{fill:url(#linear-gradient-3);}</style><linearGradient id="linear-gradient" x1="188.45" y1="66.14" x2="208.95" y2="66.14" gradientUnits="userSpaceOnUse"><stop offset="0" stop-color="#ff1e5f"/><stop offset="1" stop-color="#ff4a4d"/></linearGradient><linearGradient id="linear-gradient-2" x1="0" y1="80.7" x2="642.44" y2="80.7" xlink:href="#linear-gradient"/><linearGradient id="linear-gradient-3" x1="73.29" y1="76.72" x2="95.75" y2="76.72" xlink:href="#linear-gradient"/></defs><title>Asset 1</title><g id="Layer_2" data-name="Layer 2"><g id="Layer_1-2" data-name="Layer 1"><path class="cls-1" d="M205.79,58.84c-2.11-1.86-5-2.78-8.62-2.78h-8.72V76.23h8.72q5.46,0,8.62-2.78A9.18,9.18,0,0,0,209,66.2,9.3,9.3,0,0,0,205.79,58.84Z"/><path class="cls-2" d="M0,0V161.4H642.44V0ZM108.29,119.64l-6.43-15.27H67.07l-6.54,15.27H41.77L77.1,41.77H92.59l35.22,77.87Zm105.79,0L190.3,88.77h-1.85v30.87H169.58V41.77h30.54a35.47,35.47,0,0,1,15.21,3,23.94,23.94,0,0,1,10.09,8.56A23.11,23.11,0,0,1,229,66.31a20.49,20.49,0,0,1-4.69,13.57q-4.7,5.63-13.2,7.8l26.61,32Zm120-10.86a27.17,27.17,0,0,1-11.17,9.27,37.28,37.28,0,0,1-16,3.33,45.64,45.64,0,0,1-18.11-3.54A35.59,35.59,0,0,1,275,107.64L288.45,95.1a20.29,20.29,0,0,0,7.26,7.52,19.93,19.93,0,0,0,10.63,2.84,16,16,0,0,0,9.05-2.4,7.3,7.3,0,0,0,3.6-6.33,7.15,7.15,0,0,0-1.25-4.58,7.84,7.84,0,0,0-2.89-2.23,13,13,0,0,0-3.06-.93c-1.38-.29-3-.56-4.9-.82s-3.71-.52-5.46-.82c-.72-.14-1.94-.39-3.65-.76a29.09,29.09,0,0,1-5.73-2,27.91,27.91,0,0,1-6.16-3.87A18.67,18.67,0,0,1,281,74.38a21.88,21.88,0,0,1-1.9-9.6A22,22,0,0,1,282.89,52a26.33,26.33,0,0,1,10.47-8.78A34.21,34.21,0,0,1,308.41,40a38.34,38.34,0,0,1,16,3.33,34.44,34.44,0,0,1,12.27,9.11L324.12,64a15.25,15.25,0,0,0-6.22-6.38A18.14,18.14,0,0,0,309,55.4a13.18,13.18,0,0,0-8,2.24,6.83,6.83,0,0,0-3.05,5.72,5.46,5.46,0,0,0,1.26,3.87,7.18,7.18,0,0,0,2.94,2,16.68,16.68,0,0,0,3.11.81c1.38.22,3.05.48,5,.77s3.75.58,5.35.87a35.22,35.22,0,0,1,3.54.71,33,33,0,0,1,5.78,2,25.84,25.84,0,0,1,6.27,4,19.53,19.53,0,0,1,5,6.65,22.92,22.92,0,0,1,2,10A23.7,23.7,0,0,1,334.09,108.78Zm122.09,10.86H441.35L403.18,73.5v46.14H385V41.77h14.61L437.86,87.9V41.77h18.32Zm105.68,0H512.78V41.77h19v62.38h30.1Zm38.81,0H585.18V104.15h15.49Z"/><polygon class="cls-3" points="73.29 89.86 95.75 89.86 84.63 63.58 73.29 89.86"/></g></g></svg>