<svg width="176" height="16" viewBox="0 0 176 16" fill="none" xmlns="http://www.w3.org/2000/svg">
    <path d="M123.056 9.3564L125.344 4.53024L127.632 9.3564H123.056ZM127.291 0.424805H123.397L116.344 15.3005H120.238L121.521 12.5927H129.166L130.449 15.3005H134.343" fill="black"/>
    <path d="M12.0019 0.448242V5.72392H4.21527V0.448242H0.319824V15.3004H4.21527V9.31684H12.0019V15.3004H15.8973V0.448242" fill="black"/>
    <path d="M65.1906 11.7022V15.2972H55.1194V15.3004H51.2261V0.448242H55.1194V11.7022" fill="black"/>
    <path d="M77.1953 7.08348H77.5759L77.3861 6.7749" fill="black"/>
    <path d="M85.2093 0.448242L79.332 9.90837V15.3004H75.4398V9.90837L69.5625 0.448242H73.4558L77.3864 6.77457L77.1956 7.08314H77.5773L77.3864 6.77457L81.3171 0.448242" fill="black"/>
    <path d="M77.1953 7.08348H77.5759L77.3861 6.7749" fill="black"/>
    <path d="M152.642 0.400391V3.99652H147.742V15.3006H143.85V3.99652H138.739V0.400391" fill="black"/>
    <path d="M161.777 0.400391V0.448439H161.716V15.3006H165.61V15.2974H175.68V11.7024H165.61V9.35655H173.565V6.29642H165.61V3.99652H175.68V0.400391" fill="black"/>
    <path d="M31.1286 3.86627C30.296 3.86627 29.6201 4.54428 29.6201 5.37818V10.6229C29.6201 11.4557 30.296 12.1337 31.1286 12.1337H36.3652C37.1967 12.1337 37.8737 11.4557 37.8737 10.6229V5.37818C37.8737 4.54428 37.1967 3.86627 36.3652 3.86627H31.1286ZM36.3652 16H31.1286C28.1681 16 25.7588 13.588 25.7588 10.6229V5.37818C25.7588 2.41308 28.1681 0 31.1286 0H36.3652C39.3257 0 41.7339 2.41308 41.7339 5.37818V10.6229C41.7339 13.588 39.3257 16 36.3652 16Z" fill="black"/>
    <path d="M103.653 6.26013L102.293 9.32132H105.376V10.6229C105.376 11.4557 104.699 12.1337 103.868 12.1337H98.6311C97.7985 12.1337 97.1226 11.4557 97.1226 10.6229V5.37818C97.1226 4.54428 97.7985 3.86627 98.6311 3.86627H104.107L105.825 0H98.6311C95.6706 0 93.2612 2.41201 93.2612 5.37818V10.6229C93.2612 13.588 95.6706 16 98.6311 16H103.868C106.828 16 109.236 13.588 109.236 10.6229V6.26013" fill="black"/>
</svg>
