<svg width="26" height="26" viewBox="0 0 26 26" fill="none" xmlns="http://www.w3.org/2000/svg">
<path d="M0.246668 0.50958L0.368479 0.368479C0.815119 -0.0781621 1.51404 -0.118766 2.00655 0.246668L2.14765 0.368479L13 11.2203L23.8523 0.368479C24.3437 -0.122826 25.1402 -0.122826 25.6315 0.368479C26.1228 0.859783 26.1228 1.65635 25.6315 2.14765L14.7797 13L25.6315 23.8523C26.0782 24.299 26.1188 24.9979 25.7533 25.4904L25.6315 25.6315C25.1849 26.0782 24.486 26.1188 23.9935 25.7533L23.8523 25.6315L13 14.7797L2.14765 25.6315C1.65635 26.1228 0.859783 26.1228 0.368479 25.6315C-0.122826 25.1402 -0.122826 24.3437 0.368479 23.8523L11.2203 13L0.368479 2.14765C-0.0781621 1.70101 -0.118766 1.00209 0.246668 0.50958L0.368479 0.368479L0.246668 0.50958Z" fill="#FAFAFA"/>
</svg>
