<svg width="28" height="28" viewBox="0 0 28 28" fill="none" xmlns="http://www.w3.org/2000/svg">
<path fill-rule="evenodd" clip-rule="evenodd" d="M14 28C21.732 28 28 21.732 28 14C28 6.26801 21.732 0 14 0C6.26801 0 0 6.26801 0 14C0 21.732 6.26801 28 14 28ZM16.673 6.49998C18.0479 6.74284 19.3629 7.16935 20.5929 7.75623C22.7433 11.0314 23.8118 14.7254 23.4173 18.986C21.7719 20.2407 20.1759 21.0019 18.6068 21.5C18.2182 20.9567 17.8745 20.3776 17.5771 19.7705C18.1435 19.551 18.6875 19.2802 19.2015 18.9642C19.067 18.8614 18.9341 18.754 18.804 18.6435C15.7151 20.1348 12.3183 20.1348 9.19198 18.6435C9.06347 18.754 8.93046 18.8614 8.79448 18.9642C9.30705 19.2786 9.84952 19.5495 10.4159 19.769C10.1185 20.3776 9.77331 20.9552 9.38625 21.4984C7.81862 21.0003 6.22408 20.2391 4.57873 18.986C4.24249 15.3107 4.91497 11.5825 7.3957 7.75933C8.6256 7.17092 9.94218 6.74284 11.3185 6.49998C11.4889 6.81132 11.6906 7.23008 11.8266 7.5632C13.2613 7.33904 14.7094 7.33904 16.1709 7.5632C16.3069 7.23008 16.5042 6.81132 16.673 6.49998ZM9.13369 14.7441C9.13369 15.8322 9.90333 16.7257 10.8418 16.7257C11.7968 16.7257 12.5514 15.8322 12.5499 14.7441C12.5664 13.6544 11.7968 12.7609 10.8418 12.7609C9.88689 12.7609 9.13369 13.656 9.13369 14.7441ZM15.4461 14.7441C15.4461 15.8322 16.2157 16.7257 17.1542 16.7257C18.1091 16.7257 18.8623 15.8322 18.8623 14.7441C18.8788 13.6544 18.1091 12.7609 17.1542 12.7609C16.1993 12.7609 15.4461 13.656 15.4461 14.7441Z" fill="white"/>
</svg>
