<svg width="140" height="30" viewBox="0 0 140 30" fill="none" xmlns="http://www.w3.org/2000/svg">
<path fill-rule="evenodd" clip-rule="evenodd" d="M4 0C1.79086 0 0 1.79086 0 4V26C0 28.2091 1.79086 30 4 30H136C138.209 30 140 28.2091 140 26V4C140 1.79086 138.209 0 136 0H4ZM11.4798 9.81818V20H13.3243V15.6747H17.5551V14.1286H13.3243V11.3643H18.0026V9.81818H11.4798ZM20.683 9.81818V20H22.5274V15.6747H26.7583V14.1286H22.5274V11.3643H27.2057V9.81818H20.683ZM36.7419 13.2536H38.6013C38.5251 12.6868 38.3627 12.183 38.1141 11.7422C37.8688 11.2981 37.5556 10.9235 37.1744 10.6186C36.7933 10.3104 36.3591 10.0767 35.8719 9.91761C35.3847 9.75852 34.8577 9.67898 34.2909 9.67898C33.4027 9.67898 32.6072 9.88613 31.9046 10.3004C31.2019 10.7147 30.6468 11.313 30.2391 12.0952C29.8314 12.8741 29.6276 13.812 29.6276 14.9091C29.6276 16.0028 29.8298 16.9408 30.2341 17.723C30.6385 18.5052 31.192 19.1035 31.8946 19.5178C32.5973 19.9321 33.396 20.1392 34.2909 20.1392C34.8975 20.1392 35.4493 20.0497 35.9465 19.8707C36.4436 19.6884 36.8778 19.4366 37.249 19.1151C37.6202 18.7902 37.9202 18.4157 38.1489 17.9915C38.3809 17.5672 38.5317 17.1132 38.6013 16.6293L36.7419 16.6193C36.6856 16.9176 36.5828 17.1828 36.4337 17.4148C36.2878 17.6468 36.1072 17.8423 35.8918 18.0014C35.6797 18.1605 35.4394 18.2815 35.1709 18.3643C34.9057 18.4439 34.6207 18.4837 34.3158 18.4837C33.7656 18.4837 33.2767 18.3494 32.8492 18.081C32.4249 17.8092 32.0902 17.4081 31.8449 16.8778C31.603 16.3442 31.482 15.688 31.482 14.9091C31.482 14.1435 31.603 13.4955 31.8449 12.9652C32.0869 12.4316 32.4216 12.0272 32.8492 11.7521C33.2767 11.4737 33.7673 11.3345 34.3208 11.3345C34.6323 11.3345 34.9223 11.3776 35.1908 11.4638C35.4626 11.5466 35.7045 11.6709 35.9166 11.8366C36.1288 12.0024 36.3061 12.2045 36.4486 12.4432C36.5911 12.6785 36.6889 12.9486 36.7419 13.2536ZM49.7719 17.728C50.1829 16.9458 50.3884 16.0062 50.3884 14.9091C50.3884 13.812 50.1829 12.8741 49.7719 12.0952C49.3643 11.313 48.8074 10.7147 48.1015 10.3004C47.3988 9.88613 46.6017 9.67898 45.7101 9.67898C44.8186 9.67898 44.0198 9.88613 43.3138 10.3004C42.6112 10.7147 42.0544 11.313 41.6434 12.0952C41.2357 12.8741 41.0319 13.812 41.0319 14.9091C41.0319 16.0028 41.2357 16.9408 41.6434 17.723C42.0544 18.5019 42.6112 19.1001 43.3138 19.5178C44.0198 19.9321 44.8186 20.1392 45.7101 20.1392C46.6017 20.1392 47.3988 19.9321 48.1015 19.5178C48.8074 19.1035 49.3643 18.5069 49.7719 17.728ZM48.1711 12.9553C48.413 13.4856 48.534 14.1368 48.534 14.9091C48.534 15.6813 48.413 16.3343 48.1711 16.8679C47.9324 17.3982 47.601 17.8009 47.1768 18.076C46.7525 18.3478 46.2636 18.4837 45.7101 18.4837C45.1566 18.4837 44.6678 18.3478 44.2435 18.076C43.8193 17.8009 43.4862 17.3982 43.2442 16.8679C43.0056 16.3343 42.8863 15.6813 42.8863 14.9091C42.8863 14.1368 43.0056 13.4856 43.2442 12.9553C43.4862 12.4216 43.8193 12.0189 44.2435 11.7472C44.6678 11.4721 45.1566 11.3345 45.7101 11.3345C46.2636 11.3345 46.7525 11.4721 47.1768 11.7472C47.601 12.0189 47.9324 12.4216 48.1711 12.9553ZM59.8588 20H61.4994V9.81818H59.6649V16.7585H59.5754L54.7828 9.81818H53.1322V20H54.9767V13.0646H55.0612L59.8588 20ZM69.4559 11.603C69.8006 11.8449 69.9961 12.183 70.0425 12.6172H71.8174C71.8074 12.0438 71.6467 11.5367 71.3351 11.0959C71.0236 10.6518 70.5944 10.3054 70.0475 10.0568C69.5039 9.80492 68.8709 9.67898 68.1483 9.67898C67.4358 9.67898 66.7977 9.80492 66.2343 10.0568C65.6708 10.3054 65.2251 10.6551 64.8969 11.1058C64.5721 11.5566 64.4097 12.0819 64.4097 12.6818C64.4097 13.411 64.6517 13.996 65.1356 14.4368C65.6228 14.8743 66.2857 15.2008 67.1242 15.4162L68.2826 15.7145C68.6472 15.8073 68.9653 15.9134 69.2371 16.0327C69.5122 16.1487 69.726 16.2945 69.8785 16.4702C70.0309 16.6425 70.1088 16.8613 70.1121 17.1264C70.1088 17.4181 70.021 17.6733 69.8486 17.892C69.6763 18.1075 69.4376 18.2765 69.1327 18.3991C68.8311 18.5185 68.4798 18.5781 68.0787 18.5781C67.6943 18.5781 67.3463 18.5201 67.0347 18.4041C66.7265 18.2881 66.4762 18.1125 66.284 17.8771C66.0918 17.6418 65.9824 17.3468 65.9559 16.9922H64.1412C64.1678 17.6683 64.3434 18.2417 64.6682 18.7124C64.9964 19.183 65.4504 19.541 66.0304 19.7862C66.6138 20.0315 67.3015 20.1541 68.0937 20.1541C68.909 20.1541 69.6034 20.0282 70.1768 19.7763C70.7535 19.5211 71.1943 19.1681 71.4992 18.7173C71.8041 18.2633 71.9566 17.7379 71.9566 17.1413C71.9566 16.7005 71.8737 16.3161 71.708 15.9879C71.5423 15.6598 71.3169 15.3797 71.0319 15.1477C70.7501 14.9157 70.4303 14.7235 70.0724 14.571C69.7177 14.4186 69.3482 14.2976 68.9637 14.2081L68.0091 13.9695C67.8003 13.9197 67.5932 13.8584 67.3877 13.7855C67.1822 13.7126 66.9949 13.6231 66.8259 13.517C66.6569 13.4077 66.5226 13.2751 66.4232 13.1193C66.3271 12.9635 66.279 12.7796 66.279 12.5675C66.2823 12.3123 66.3569 12.0852 66.5028 11.8864C66.6486 11.6875 66.859 11.5301 67.1341 11.4141C67.4092 11.2981 67.739 11.2401 68.1235 11.2401C68.6704 11.2401 69.1145 11.361 69.4559 11.603ZM82.8637 9.81818H81.0193V16.3161C81.0193 16.7403 80.9265 17.1181 80.7409 17.4496C80.5553 17.781 80.2901 18.0412 79.9454 18.2301C79.604 18.4157 79.1997 18.5085 78.7323 18.5085C78.265 18.5085 77.8606 18.4157 77.5193 18.2301C77.1779 18.0412 76.9127 17.781 76.7238 17.4496C76.5382 17.1181 76.4454 16.7403 76.4454 16.3161V9.81818H74.6009V16.4702C74.6009 17.1993 74.7716 17.8407 75.113 18.3942C75.4544 18.9477 75.935 19.3802 76.5548 19.6918C77.1746 20 77.9004 20.1541 78.7323 20.1541C79.5609 20.1541 80.2851 20 80.9049 19.6918C81.5247 19.3802 82.0053 18.9477 82.3467 18.3942C82.6914 17.8407 82.8637 17.1993 82.8637 16.4702V9.81818ZM87.713 9.81818H85.8685V20H92.1974V18.4538H87.713V9.81818ZM93.0519 9.81818V11.3643H96.199V20H98.0285V11.3643H101.176V9.81818H93.0519ZM103.742 20H105.586V9.81818H103.742V20ZM115.31 20H116.951V9.81818H115.116V16.7585H115.027L110.234 9.81818H108.583V20H110.428V13.0646H110.512L115.31 20ZM126.438 12.3487C126.584 12.5608 126.698 12.8011 126.781 13.0696H128.661C128.584 12.5691 128.424 12.1117 128.178 11.6974C127.933 11.2831 127.62 10.9252 127.239 10.6236C126.861 10.322 126.428 10.09 125.941 9.92756C125.454 9.76184 124.929 9.67898 124.365 9.67898C123.699 9.67898 123.082 9.7983 122.516 10.0369C121.949 10.2723 121.455 10.617 121.034 11.071C120.613 11.5218 120.285 12.0703 120.05 12.7166C119.818 13.3629 119.702 14.0971 119.702 14.919C119.702 15.9929 119.899 16.9209 120.293 17.7031C120.691 18.482 121.243 19.0836 121.949 19.5078C122.658 19.9287 123.482 20.1392 124.42 20.1392C125.262 20.1392 126.007 19.9685 126.657 19.6271C127.307 19.2824 127.817 18.7919 128.188 18.1555C128.56 17.5192 128.745 16.7652 128.745 15.8935V14.6705H124.614V16.1122H126.96C126.951 16.5791 126.849 16.9884 126.652 17.3402C126.447 17.7048 126.153 17.9865 125.772 18.1854C125.394 18.3842 124.947 18.4837 124.43 18.4837C123.86 18.4837 123.359 18.3461 122.928 18.071C122.497 17.7926 122.161 17.3866 121.919 16.853C121.677 16.3194 121.556 15.6681 121.556 14.8991C121.556 14.1368 121.677 13.4905 121.919 12.9602C122.164 12.4266 122.501 12.0223 122.928 11.7472C123.356 11.4721 123.843 11.3345 124.39 11.3345C124.695 11.3345 124.977 11.3743 125.235 11.4538C125.494 11.5301 125.722 11.6444 125.921 11.7969C126.123 11.9493 126.296 12.1333 126.438 12.3487Z" fill="currentColor"/>
</svg>
