<svg width="106" height="18" viewBox="0 0 106 18" fill="none" xmlns="http://www.w3.org/2000/svg">
<path d="M0 17.7618V0.967876H10.9045V2.30186H1.58873V9.37674L9.67681 8.90032V10.2581L1.58873 10.7345V17.7618H0Z" fill="currentColor"/>
<path d="M17.6643 3.94552C16.7736 3.94552 16.0515 3.20706 16.0515 2.32568C16.0515 1.46812 16.7736 0.729664 17.6643 0.729664C18.5549 0.729664 19.3011 1.46812 19.3011 2.32568C19.3011 3.20706 18.5549 3.94552 17.6643 3.94552ZM13.885 17.7618V16.4278H17.231V7.06609L14.8479 7.3043V5.97032L17.255 5.73211C18.3383 5.63682 18.7234 6.20853 18.7234 7.04227V16.4278H22.0694V17.7618H13.885Z" fill="currentColor"/>
<path d="M32.5422 7.06609C29.9184 7.06609 28.0649 9.20999 28.0649 12.3544V17.7618H26.4762V5.97032H28.0649V8.13804L27.8242 9.3291H28.3056C28.787 7.1852 30.3036 5.73211 32.9033 5.73211C35.5271 5.73211 37.2603 7.1852 37.2603 10.3772V17.7618H35.6715V10.5678C35.6715 8.04276 34.6365 7.06609 32.5422 7.06609Z" fill="currentColor"/>
<path d="M41.9127 14.4745C41.9127 12.6402 43.02 11.3301 45.6438 11.0919L50.6025 10.6393C50.4581 8.23333 49.1823 7.06609 47.0399 7.06609C45.2586 7.06609 43.5014 7.87601 43.5014 10.3296H41.9127C41.9127 7.99512 43.6458 5.73211 47.0399 5.73211C50.3859 5.73211 52.1913 8.04276 52.1913 11.0442V16.4278H53.9485V17.7618H51.9265C51.084 17.7618 50.6025 17.2854 50.6025 16.4516V15.737L50.8432 14.5459H50.3618C49.9045 16.3087 48.6046 18 45.8123 18C42.3941 18 41.9127 15.7132 41.9127 14.4745ZM43.5014 14.3315C43.5014 15.8323 44.4161 16.666 45.9567 16.666C48.7972 16.666 50.6025 14.6174 50.6025 11.9732L45.8845 12.4258C44.2958 12.5688 43.5014 13.069 43.5014 14.3315Z" fill="currentColor"/>
<path d="M57.4018 17.7618V16.4278H60.7478V1.34901L58.3647 1.58723V0.253242L60.7718 0.015029C61.8551 -0.104077 62.3365 0.491453 62.3365 1.56341V16.4278H65.6825V17.7618H57.4018Z" fill="currentColor"/>
<path d="M86.852 0.729664C91.4978 0.729664 93.8809 4.46958 93.8809 9.35292C93.8809 14.2601 91.4978 18 86.852 18C82.182 18 79.799 14.2601 79.799 9.35292C79.799 4.46958 82.182 0.729664 86.852 0.729664ZM86.852 2.06365C83.169 2.06365 81.3877 5.18422 81.3877 9.35292C81.3877 11.068 81.6765 12.5926 82.2783 13.8075L90.5108 3.5882C89.6202 2.61154 88.4166 2.06365 86.852 2.06365ZM86.852 16.666C90.5349 16.666 92.2921 13.5454 92.2921 9.35292C92.2921 7.6378 92.0033 6.11324 91.4015 4.89837L83.169 15.1176C84.0596 16.0943 85.2873 16.666 86.852 16.666Z" fill="currentColor"/>
<path d="M98.2971 8.59064C101.547 7.28048 102.63 4.18373 102.702 0.967876H106V17.7618H104.411V2.63536L104.652 1.4443H104.171C103.93 5.04129 102.798 8.59064 98.7785 9.90081L98.2971 8.59064Z" fill="currentColor"/>
</svg>
