<svg width="28" height="28" viewBox="0 0 28 28" fill="none" xmlns="http://www.w3.org/2000/svg">
<path fill-rule="evenodd" clip-rule="evenodd" d="M17.7167 28.0001C23.6447 26.3423 28 20.816 28 14.2539C28 6.3817 21.732 0 14 0C6.26801 0 0 6.3817 0 14.2539C0 20.8156 4.35475 26.3417 10.2823 27.9998C10.7438 27.909 11.0388 27.3782 11.0388 27.078C11.0388 26.9258 11.0361 26.422 11.0328 25.8155C11.0291 25.152 11.0248 24.3656 11.0227 23.782C7.57741 24.5893 6.85208 21.9841 6.85208 21.9841C6.28793 20.435 5.47798 20.0204 5.47798 20.0204C4.35373 19.1913 5.56261 19.2088 5.56261 19.2088C6.80372 19.3048 7.45652 20.5877 7.45652 20.5877C8.56063 22.6387 10.3538 22.0452 11.059 21.7048C11.1718 20.8365 11.4942 20.2473 11.8448 19.9113C9.09657 19.5753 6.20734 18.4233 6.20734 13.2872C6.20734 11.821 6.69089 10.6253 7.4807 9.68713C7.35578 9.35112 6.92864 7.98527 7.60158 6.13942C7.60158 6.13942 8.64122 5.78159 11.0066 7.51399C11.9938 7.21726 13.0536 7.06889 14.1054 7.06453C15.1571 7.06889 16.2169 7.21726 17.2041 7.51399C19.5695 5.78159 20.6051 6.13942 20.6051 6.13942C21.2821 7.98527 20.859 9.35112 20.73 9.68713C21.5239 10.6253 21.9993 11.821 21.9993 13.2872C21.9993 18.4364 19.1061 19.5666 16.3498 19.9026C16.7931 20.3128 17.188 21.1332 17.188 22.3812C17.188 23.5803 17.1826 25.0784 17.179 26.0715C17.1772 26.5637 17.1759 26.9319 17.1759 27.078C17.1759 27.3753 17.3105 27.9048 17.7167 28.0001Z" fill="white"/>
</svg>
