<svg viewBox="0 0 28 28" fill="none" xmlns="http://www.w3.org/2000/svg">
    <path fill-rule="evenodd" clip-rule="evenodd" d="M17.717 28C23.6449 26.3422 28 20.8159 28 14.2539C28 6.3817 21.732 0 14 0C6.26801 0 0 6.3817 0 14.2539C0 20.8157 4.35487 26.3418 10.2825 27.9999C10.7443 27.9093 11.0395 27.3783 11.0395 27.078C11.0395 26.9258 11.0367 26.4219 11.0334 25.8153C11.0298 25.1518 11.0255 24.3655 11.0234 23.782C7.57806 24.5892 6.85273 21.9841 6.85273 21.9841C6.28858 20.435 5.47864 20.0204 5.47864 20.0204C4.35438 19.1913 5.56326 19.2088 5.56326 19.2088C6.80437 19.3048 7.45717 20.5877 7.45717 20.5877C8.56128 22.6387 10.3545 22.0452 11.0596 21.7048C11.1725 20.8364 11.4948 20.2473 11.8454 19.9113C9.09722 19.5753 6.20799 18.4233 6.20799 13.2872C6.20799 11.821 6.69155 10.6253 7.48135 9.68711C7.35643 9.35111 6.92929 7.98526 7.60224 6.1394C7.60224 6.1394 8.64187 5.78158 11.0072 7.51398C11.9945 7.21724 13.0543 7.06888 14.106 7.06451C15.1577 7.06888 16.2175 7.21724 17.2048 7.51398C19.5701 5.78158 20.6058 6.1394 20.6058 6.1394C21.2827 7.98526 20.8596 9.35111 20.7307 9.68711C21.5245 10.6253 22 11.821 22 13.2872C22 18.4364 19.1067 19.5666 16.3505 19.9026C16.7938 20.3128 17.1887 21.1332 17.1887 22.3812C17.1887 23.5803 17.1832 25.0784 17.1797 26.0715C17.1779 26.5637 17.1766 26.9319 17.1766 27.078C17.1766 27.3752 17.311 27.9045 17.717 28Z" fill="#B3C2E6"/>
</svg>
