<svg viewBox="0 0 24 24" fill="none" xmlns="http://www.w3.org/2000/svg">
    <path fill-rule="evenodd" clip-rule="evenodd" d="M15.186 24C20.2671 22.579 24 17.8422 24 12.2176C24 5.47003 18.6274 0 12 0C5.37258 0 0 5.47003 0 12.2176C0 17.842 3.73274 22.5787 8.81357 23.9999C9.20941 23.9223 9.46242 23.4671 9.46242 23.2097C9.46242 23.0792 9.46005 22.6473 9.45721 22.1273C9.45409 21.5586 9.45041 20.8847 9.4486 20.3845C6.49548 21.0765 5.87377 18.8435 5.87377 18.8435C5.39022 17.5157 4.69597 17.1604 4.69597 17.1604C3.73232 16.4497 4.76851 16.4647 4.76851 16.4647C5.83232 16.5469 6.39186 17.6466 6.39186 17.6466C7.33824 19.4046 8.87525 18.8959 9.47969 18.6041C9.5764 17.8598 9.85271 17.3549 10.1532 17.0669C7.79762 16.7788 5.32114 15.7914 5.32114 11.389C5.32114 10.1323 5.73561 9.10741 6.41258 8.30324C6.30551 8.01523 5.93939 6.84451 6.5162 5.26234C6.5162 5.26234 7.40732 4.95564 9.43479 6.44055C10.281 6.18621 11.1894 6.05904 12.0909 6.0553C12.9923 6.05904 13.9007 6.18621 14.747 6.44055C16.7744 4.95564 17.6621 5.26234 17.6621 5.26234C18.2423 6.84451 17.8797 8.01523 17.7692 8.30324C18.4496 9.10741 18.8571 10.1323 18.8571 11.389C18.8571 15.8026 16.3772 16.7714 14.0147 17.0594C14.3946 17.411 14.7331 18.1141 14.7331 19.1839C14.7331 20.2117 14.7285 21.4958 14.7254 22.347C14.7239 22.7689 14.7228 23.0845 14.7228 23.2097C14.7228 23.4645 14.838 23.9181 15.186 24Z" fill="white" fill-opacity="0.3"/>
</svg>
