<svg width="2800" height="237" viewBox="0 0 2800 237" fill="none" xmlns="http://www.w3.org/2000/svg">
    <g clip-path="url(#clip0_2_202)">
        <mask id="mask0_2_202" style="mask-type:alpha" maskUnits="userSpaceOnUse" x="0" y="-2" width="2800" height="240">
            <rect y="-1.5" width="2800" height="239" fill="url(#paint0_linear_2_202)"/>
        </mask>
        <g mask="url(#mask0_2_202)">
            <path d="M1326.53 0.480469L1040.48 247.085" stroke="#D1DAEF" stroke-linecap="round" stroke-linejoin="round"/>
            <path d="M1105 0L9 237" stroke="#D1DAEF" stroke-linecap="round" stroke-linejoin="round"/>
            <path d="M1031 0L-339 237" stroke="#D1DAEF" stroke-linecap="round" stroke-linejoin="round"/>
            <path d="M957 0L-687 237" stroke="#D1DAEF" stroke-linecap="round" stroke-linejoin="round"/>
            <path d="M1179 0L357 237" stroke="#D1DAEF" stroke-linecap="round" stroke-linejoin="round"/>
            <path d="M883 0L-1035 237" stroke="#D1DAEF" stroke-linecap="round" stroke-linejoin="round"/>
            <path d="M735 0L-1730 237" stroke="#D1DAEF" stroke-linecap="round" stroke-linejoin="round"/>
            <path d="M809 0L-1383 237" stroke="#D1DAEF" stroke-linecap="round" stroke-linejoin="round"/>
            <path d="M1918 0L3835 237" stroke="#D1DAEF" stroke-linecap="round" stroke-linejoin="round"/>
            <path d="M1399.99 -1.49414V247.085" stroke="#D1DAEF" stroke-linecap="round" stroke-linejoin="round"/>
            <path d="M1992 0L4183 237" stroke="#D1DAEF" stroke-linecap="round" stroke-linejoin="round"/>
            <path d="M2066 0L4531 237" stroke="#D1DAEF" stroke-linecap="round" stroke-linejoin="round"/>
            <path d="M1844 0L3487 237" stroke="#D1DAEF" stroke-linecap="round" stroke-linejoin="round"/>
            <path d="M1770 0L3139 237" stroke="#D1DAEF" stroke-linecap="round" stroke-linejoin="round"/>
            <path d="M1622 0L2443 237" stroke="#D1DAEF" stroke-linecap="round" stroke-linejoin="round"/>
            <path d="M1696 0L2791 237" stroke="#D1DAEF" stroke-linecap="round" stroke-linejoin="round"/>
            <path d="M1474.43 0.480469L1759.5 247.085" stroke="#D1DAEF" stroke-linecap="round" stroke-linejoin="round"/>
            <path d="M1252.58 0.480469L680.973 247.085" stroke="#D1DAEF" stroke-linecap="round" stroke-linejoin="round"/>
            <path d="M1548.38 0.480469L2119.01 247.085" stroke="#D1DAEF" stroke-linecap="round" stroke-linejoin="round"/>
            <path d="M0.658824 32.2273H2800.54" stroke="#D1DAEF" stroke-linecap="round" stroke-linejoin="round"/>
            <path d="M0.658824 10.9197H2800.54" stroke="#D1DAEF" stroke-linecap="round" stroke-linejoin="round"/>
            <path d="M0.658824 15.2644H2800.54" stroke="#D1DAEF" stroke-linecap="round" stroke-linejoin="round"/>
            <path d="M0.658824 20.1775H2800.54" stroke="#D1DAEF" stroke-linecap="round" stroke-linejoin="round"/>
            <path d="M0.658824 3.58085H2800.54" stroke="#D1DAEF" stroke-linecap="round" stroke-linejoin="round"/>
            <path d="M0.658824 7.0496H2800.54" stroke="#D1DAEF" stroke-linecap="round" stroke-linejoin="round"/>
            <path d="M0.658824 171.642H2800.54" stroke="#D1DAEF" stroke-linecap="round" stroke-linejoin="round"/>
            <path d="M0.658824 39.7224H2800.54" stroke="#D1DAEF" stroke-linecap="round" stroke-linejoin="round"/>
            <path d="M0.658824 25.782H2800.54" stroke="#D1DAEF" stroke-linecap="round" stroke-linejoin="round"/>
            <path d="M0.658824 0.453896H2800.54" stroke="#D1DAEF" stroke-linecap="round" stroke-linejoin="round"/>
            <path d="M0.658824 48.5447H2800.54" stroke="#D1DAEF" stroke-linecap="round" stroke-linejoin="round"/>
            <path d="M0.658824 59.0857H2800.54" stroke="#D1DAEF" stroke-linecap="round" stroke-linejoin="round"/>
            <path d="M0.658824 134.8H2800.54" stroke="#D1DAEF" stroke-linecap="round" stroke-linejoin="round"/>
            <path d="M0.658824 71.8972H2800.54" stroke="#D1DAEF" stroke-linecap="round" stroke-linejoin="round"/>
            <path d="M0.658824 87.8025H2800.54" stroke="#D1DAEF" stroke-linecap="round" stroke-linejoin="round"/>
            <path d="M0.658824 108.075H2800.54" stroke="#D1DAEF" stroke-linecap="round" stroke-linejoin="round"/>
        </g>
    </g>
    <defs>
        <linearGradient id="paint0_linear_2_202" x1="1400" y1="-1.5" x2="1400" y2="237.5" gradientUnits="userSpaceOnUse">
            <stop stop-color="#F8FAFC" stop-opacity="0"/>
            <stop offset="1" stop-color="white"/>
        </linearGradient>
        <clipPath id="clip0_2_202">
            <rect width="2800" height="237" fill="white"/>
        </clipPath>
    </defs>
</svg>
