<svg viewBox="0 0 177 34" fill="none" xmlns="http://www.w3.org/2000/svg">
    <path d="M154.282 11.3987C154.282 11.3987 154.012 12.3843 154.012 12.5632C153.877 12.5632 154.125 12.5632 154.012 12.5632C152.663 11.3987 151.74 11.0395 150.12 11.0395C147.983 11.0395 144.968 13.0112 144.968 17.828C144.968 22.2636 147.353 24.4363 150.03 24.4363C151.649 24.4363 152.752 23.8761 154.012 22.6891C154.125 22.6891 153.877 22.6891 154.012 22.6891C154.012 22.868 154.44 24.0784 154.44 24.0784H156.667V11.3985H154.282V11.3987ZM169.469 14.5349C169.987 14.0424 170.773 13.5268 172.124 13.5268C173.632 13.5268 173.632 14.5126 173.632 16.2153V24.0784H176.58V16.0808C176.58 12.7877 175.253 11.0408 172.71 11.0408C171.09 11.0408 170.032 11.6009 168.773 12.7877C168.12 11.6452 167.086 11.0408 165.601 11.0408C164.117 11.0408 163.036 11.422 161.776 12.6088C161.686 12.6088 161.889 12.6088 161.776 12.6088C161.776 12.43 161.506 11.3995 161.506 11.3995H159.121V24.0794H162.069V14.8039C162.609 14.2659 163.531 13.5268 165.016 13.5268C166.502 13.5268 166.524 14.5126 166.524 16.2153V24.0784H169.472V14.5349H169.468H169.469ZM114.077 23.4739C114.077 24.9976 113.424 26.2067 110.613 26.2067C109.083 26.2067 107.688 25.8478 106.608 25.2887V28.066C107.08 28.3128 108.836 28.9174 111.04 28.9174C115.428 28.9174 117.025 26.4757 117.025 22.2857V11.3987H114.64C114.64 11.3987 114.37 12.3843 114.37 12.5632C114.235 12.5632 114.482 12.5632 114.37 12.5632C113.02 11.3987 112.097 11.0395 110.478 11.0395C108.34 11.0395 105.326 13.0112 105.326 17.828C105.326 22.2636 107.711 24.4363 110.387 24.4363C112.007 24.4363 112.749 24.2119 114.077 23.0249V23.4739ZM110.972 21.95C109.172 21.95 108.272 19.7318 108.272 17.7614C108.272 15.7908 109.172 13.5946 111.265 13.5946C112.434 13.5946 113.537 14.1327 114.077 14.7594V20.6731C113.537 21.2112 112.569 21.95 110.972 21.95ZM135.136 16.9766C135.136 14.6017 136.396 13.5936 137.813 13.5936C139.366 13.5936 140.626 14.6017 140.626 16.9766H135.136ZM135.136 18.9927H143.46C144.045 14.8928 142.246 11.0395 137.813 11.0395C133.381 11.0395 132.099 14.8928 132.099 17.7379C132.099 21.1211 133.899 24.4363 138.286 24.4363C140.49 24.4363 142.246 23.8316 142.718 23.585V20.8075C141.637 21.3677 140.243 21.8379 138.713 21.8379C136.261 21.8379 135.293 20.1352 135.136 18.9927ZM150.614 21.95C148.814 21.95 147.915 19.7318 147.915 17.7614C147.915 15.7908 148.814 13.5946 150.907 13.5946C152.077 13.5946 153.18 14.1327 153.72 14.7594V20.6731C153.18 21.2112 152.212 21.95 150.615 21.95H150.614ZM83.412 24.4363C85.0316 24.4363 86.1343 23.8761 87.3944 22.6891C87.5073 22.6891 87.2595 22.6891 87.3944 22.6891C87.3944 22.868 87.822 24.0784 87.822 24.0784H90.0498V6.15617H87.1019V12.362C86.0898 11.5108 85.4368 11.0406 83.5025 11.0406C81.365 11.0406 78.3502 13.0123 78.3502 17.829C78.3502 22.2646 80.7355 24.4375 83.412 24.4375V24.4363ZM83.9969 21.95C82.1966 21.95 81.297 19.7318 81.297 17.7614C81.297 15.7908 82.1966 13.5946 84.2894 13.5946C85.4591 13.5946 86.5618 14.1327 87.1021 14.7594V20.6731C86.5618 21.2112 85.5942 21.95 83.9969 21.95ZM70.1375 24.4363C71.7572 24.4363 72.8599 23.8761 74.12 22.6891C74.2327 22.6891 73.9851 22.6891 74.12 22.6891C74.12 22.868 74.5477 24.0784 74.5477 24.0784H76.7754V6.15617H73.8276V12.362C72.8153 11.5108 72.1624 11.0406 70.2281 11.0406C68.0907 11.0406 65.0759 13.0123 65.0759 17.829C65.0759 22.2646 67.4611 24.4375 70.1377 24.4375V24.4363H70.1375ZM70.7225 21.95C68.9221 21.95 68.0225 19.7318 68.0225 17.7614C68.0225 15.7908 68.9221 13.5946 71.015 13.5946C72.1847 13.5946 73.2874 14.1327 73.8277 14.7594V20.6731C73.2874 21.2112 72.3198 21.95 70.7225 21.95ZM125.439 24.0784H128.409V9.09139H133.246V6.13391H120.647V9.09139H125.439V24.0784H125.439ZM97.4733 21.95C95.9654 21.95 95.2009 20.9642 95.2009 19.2616V11.3987H92.2531V19.3962C92.2531 22.6893 94.3458 24.4363 96.8874 24.4363C98.5068 24.4363 99.6097 23.8761 100.87 22.6891C100.96 22.6891 100.757 22.6891 100.87 22.6891C100.87 22.868 101.297 24.0784 101.297 24.0784H103.525V11.3985H100.577V20.6731C100.037 21.2112 99.0694 21.95 97.4723 21.95H97.4733ZM55.6947 24.4597C57.1791 24.4597 59.2051 23.8772 60.734 22.6903C60.8245 22.6903 60.6214 22.6903 60.734 22.6903C60.734 22.847 61.1617 24.0796 61.1617 24.0796H63.5233V6.15599H60.5754V20.113C60.5754 20.2474 59.0454 21.95 56.323 21.95C53.7581 21.95 52.9477 20.4043 52.9477 17.3122V6.15617H49.8672V17.4691C49.8672 22.4425 52.1398 24.4585 55.6945 24.4585V24.4596L55.6947 24.4597ZM98.8834 9.77524H97.2942C97.2942 9.77524 95.0329 6.26798 94.9885 6.13391H97.6973L98.8834 9.77524Z" fill="#F8FAFC"/>
    <path d="M33.4742 16.6781C33.4742 6.90165 25.6399 0 16.7879 0H16.7536C7.49525 0 0 6.90165 0 16.6781C0 20.1625 0.779896 24.0865 3.49289 26.8614C6.9516 30.4472 11.3274 14.4113 16.7536 14.4113C22.1797 14.4113 26.554 30.3457 30.2518 26.5559C32.7615 23.9851 33.4742 20.1625 33.4742 16.6767V16.6781ZM25.5382 29.9062C23.3331 31.4621 20.1793 20.5693 16.755 20.5693C13.3308 20.5693 10.2442 31.4963 8.10637 29.9062L10.2428 31.4963C12.1086 32.8494 14.2108 34 16.7536 34C19.2964 34 21.5688 32.8494 23.3331 31.4963C23.8081 31.158 25.5712 29.8718 25.5382 29.9062Z" fill="#F8FAFC"/>
</svg>
