<svg viewBox="0 0 24 24" fill="none" xmlns="http://www.w3.org/2000/svg">
    <path d="M13.2826 10.5087V10.537H13.2636C13.2663 10.5321 13.2699 10.5271 13.2735 10.5221C13.2767 10.5177 13.2799 10.5132 13.2826 10.5087Z" fill="white" fill-opacity="0.3"/>
    <path fill-rule="evenodd" clip-rule="evenodd" d="M24 12C24 18.6274 18.6274 24 12 24C5.37258 24 0 18.6274 0 12C0 5.37258 5.37258 0 12 0C18.6274 0 24 5.37258 24 12ZM19.1697 17.9133V12.9659C19.1697 10.3166 17.7549 9.08365 15.8678 9.08365C14.3436 9.08365 13.6638 9.92218 13.2826 10.5087V9.28623H10.4139C10.4524 10.0955 10.4139 17.9131 10.4139 17.9131H13.2824V13.0949C13.2824 12.8363 13.3019 12.5802 13.3774 12.3959C13.5853 11.8799 14.0561 11.347 14.8487 11.347C15.8872 11.347 16.3014 12.1385 16.3014 13.2975V17.9133H19.1697ZM5.78997 6.61811C5.78997 5.77188 6.43191 5.12779 7.41312 5.12779C8.39455 5.12779 8.99757 5.77188 9.01661 6.61811C9.01661 7.44637 8.39455 8.10907 7.39409 8.10907H7.37548C6.4133 8.10907 5.78997 7.44637 5.78997 6.61811ZM8.82794 17.9133H5.96045V9.28623H8.82794V17.9133Z" fill="white" fill-opacity="0.3"/>
</svg>
