<svg viewBox="0 0 25 24" fill="none" xmlns="http://www.w3.org/2000/svg">
    <path d="M6.56261 9.90608C6.6548 9.51305 6.79124 9.13778 6.96646 8.78573C7.46624 7.78154 8.28157 6.96622 9.28576 6.46644C9.63781 6.29123 10.0131 6.1548 10.4061 6.06261C11.0947 5.90108 11.7974 5.82031 12.5 5.82031C13.2027 5.82031 13.9053 5.90108 14.5939 6.06261C14.987 6.1548 15.3622 6.29123 15.7143 6.46644C16.7185 6.96622 17.5338 7.78154 18.0336 8.78573C18.2088 9.13778 18.3452 9.51306 18.4374 9.90608C18.5989 10.5947 18.6797 11.2974 18.6797 12C18.6797 12.7027 18.5989 13.4053 18.4374 14.0939C18.3452 14.487 18.2088 14.8622 18.0336 15.2143C17.5338 16.2185 16.7184 17.0338 15.7143 17.5336C15.3622 17.7088 14.987 17.8452 14.5939 17.9374C13.9053 18.0989 13.2027 18.1797 12.5 18.1797C11.7974 18.1797 11.0947 18.0989 10.4061 17.9374C10.0131 17.8452 9.63781 17.7088 9.28576 17.5336C8.28157 17.0338 7.46624 16.2185 6.96646 15.2143C6.79124 14.8622 6.6548 14.487 6.56261 14.094C6.40108 13.4053 6.32031 12.7027 6.32031 12C6.32031 11.2974 6.40108 10.5947 6.56261 9.90608Z" fill="#FF8831" fill-opacity="0.2"/>
    <path fill-rule="evenodd" clip-rule="evenodd" d="M9.28415 2.40002C9.61552 2.40002 9.88415 2.66865 9.88415 3.00002V5.58241C10.0101 5.54356 10.1379 5.50886 10.2674 5.47848C10.8051 5.35237 11.3507 5.27247 11.8984 5.23877V3.00002C11.8984 2.66865 12.1671 2.40002 12.4984 2.40002C12.8298 2.40002 13.0984 2.66865 13.0984 3.00002V5.23877C13.6462 5.27248 14.1918 5.35238 14.7294 5.47848C14.8589 5.50886 14.9867 5.54356 15.1127 5.58241V3.00002C15.1127 2.66865 15.3813 2.40002 15.7127 2.40002C16.044 2.40002 16.3127 2.66865 16.3127 3.00002V6.10875C17.1725 6.6097 17.8887 7.32595 18.3897 8.18574H21.4984C21.8298 8.18574 22.0984 8.45437 22.0984 8.78574C22.0984 9.11711 21.8298 9.38574 21.4984 9.38574H18.916C18.9549 9.5117 18.9896 9.63953 19.0199 9.76907C19.1461 10.3067 19.226 10.8523 19.2597 11.4H21.4984C21.8298 11.4 22.0984 11.6687 22.0984 12C22.0984 12.3314 21.8298 12.6 21.4984 12.6H19.2597C19.226 13.1478 19.1461 13.6934 19.02 14.231C18.9896 14.3605 18.9549 14.4884 18.916 14.6143H21.4984C21.8298 14.6143 22.0984 14.8829 22.0984 15.2143C22.0984 15.5457 21.8298 15.8143 21.4984 15.8143H18.3897C17.8887 16.6741 17.1724 17.3903 16.3127 17.8913V21C16.3127 21.3314 16.044 21.6 15.7127 21.6C15.3813 21.6 15.1127 21.3314 15.1127 21V18.4176C14.9867 18.4565 14.8589 18.4912 14.7294 18.5216C14.1918 18.6477 13.6462 18.7276 13.0984 18.7613V21C13.0984 21.3314 12.8298 21.6 12.4984 21.6C12.1671 21.6 11.8984 21.3314 11.8984 21V18.7613C11.3507 18.7276 10.8051 18.6477 10.2675 18.5216C10.1379 18.4912 10.0101 18.4565 9.88415 18.4176V21C9.88415 21.3314 9.61552 21.6 9.28415 21.6C8.95278 21.6 8.68415 21.3314 8.68415 21V17.8913C7.82436 17.3903 7.10811 16.6741 6.60715 15.8143H3.49844C3.16707 15.8143 2.89844 15.5457 2.89844 15.2143C2.89844 14.8829 3.16707 14.6143 3.49844 14.6143H6.0808C6.04194 14.4884 6.00724 14.3605 5.97686 14.231C5.85076 13.6934 5.77085 13.1478 5.73715 12.6H3.49844C3.16707 12.6 2.89844 12.3314 2.89844 12C2.89844 11.6687 3.16707 11.4 3.49844 11.4H5.73715C5.77085 10.8523 5.85076 10.3067 5.97686 9.76907C6.00724 9.63953 6.04194 9.5117 6.0808 9.38574H3.49844C3.16707 9.38574 2.89844 9.11711 2.89844 8.78574C2.89844 8.45437 3.16707 8.18574 3.49844 8.18574H6.60715C7.1081 7.32595 7.82436 6.6097 8.68415 6.10875V3.00002C8.68415 2.66865 8.95278 2.40002 9.28415 2.40002ZM12.4984 6.42033C11.8418 6.42032 11.1851 6.4958 10.5415 6.64677C10.194 6.72827 9.86245 6.84884 9.55149 7.0036C8.6642 7.4452 7.9436 8.1658 7.502 9.05308C7.34723 9.36405 7.22666 9.69562 7.14515 10.0431C6.99419 10.6867 6.91871 11.3434 6.91871 12C6.91871 12.6567 6.99419 13.3134 7.14515 13.9569C7.22666 14.3044 7.34723 14.636 7.502 14.947C7.9436 15.8343 8.6642 16.5548 9.55149 16.9964C9.86245 17.1512 10.194 17.2718 10.5415 17.3533C11.1851 17.5042 11.8418 17.5797 12.4984 17.5797C13.1551 17.5797 13.8118 17.5042 14.4553 17.3533C14.8028 17.2718 15.1344 17.1512 15.4453 16.9964C16.3326 16.5548 17.0532 15.8343 17.4948 14.947C17.6496 14.636 17.7702 14.3044 17.8517 13.9569C18.0026 13.3134 18.0781 12.6567 18.0781 12C18.0781 11.3434 18.0026 10.6867 17.8517 10.0431C17.7702 9.69563 17.6496 9.36405 17.4948 9.05308C17.0532 8.1658 16.3326 7.4452 15.4453 7.0036C15.1344 6.84884 14.8028 6.72827 14.4553 6.64677C13.8118 6.49581 13.1551 6.42033 12.4984 6.42033Z" fill="#FF8831"/>
    <path fill-rule="evenodd" clip-rule="evenodd" d="M13.3396 9.81333C12.787 9.68371 12.2119 9.68371 11.6593 9.81333C10.9912 9.97005 10.4696 10.4917 10.3128 11.1598C10.1832 11.7124 10.1832 12.2875 10.3128 12.8401C10.4696 13.5082 10.9912 14.0299 11.6593 14.1866C12.2119 14.3162 12.787 14.3162 13.3396 14.1866C14.0077 14.0299 14.5294 13.5082 14.6861 12.8401C14.8157 12.2875 14.8157 11.7124 14.6861 11.1598C14.5294 10.4917 14.0077 9.97005 13.3396 9.81333ZM11.3853 8.64504C12.1181 8.47314 12.8808 8.47314 13.6137 8.64504C14.7255 8.90584 15.5936 9.77396 15.8544 10.8858C16.0263 11.6186 16.0263 12.3813 15.8544 13.1142C15.5936 14.226 14.7255 15.0941 13.6137 15.3549C12.8808 15.5268 12.1181 15.5268 11.3853 15.3549C10.2735 15.0941 9.40535 14.226 9.14455 13.1142C8.97265 12.3813 8.97265 11.6186 9.14455 10.8858C9.40535 9.77396 10.2735 8.90584 11.3853 8.64504Z" fill="#FF8831"/>
</svg>
