<svg width="28" height="28" viewBox="0 0 28 28" fill="none" xmlns="http://www.w3.org/2000/svg">
<path fill-rule="evenodd" clip-rule="evenodd" d="M14 28C21.732 28 28 21.732 28 14C28 6.26801 21.732 0 14 0C6.26801 0 0 6.26801 0 14C0 21.732 6.26801 28 14 28ZM8.92143 20C12.1923 20 14.844 17.0899 14.844 13.5001C14.844 9.91031 12.1925 7 8.92143 7C5.65038 7 2.9987 9.91097 2.9987 13.5001C2.9987 17.0892 5.65059 20 8.92143 20ZM18.3798 19.6195C20.0153 19.6195 21.3412 16.8791 21.3412 13.5001H21.341C21.341 10.1202 20.0151 7.38076 18.3796 7.38076C16.7441 7.38076 15.4184 10.1211 15.4184 13.5001C15.4184 16.8791 16.7443 19.6195 18.3798 19.6195ZM22.9572 18.9821C23.5325 18.9821 23.9987 16.5269 23.9987 13.5001C23.9987 10.4725 23.5323 8.01814 22.9572 8.01814C22.3821 8.01814 21.9159 10.4727 21.9159 13.5001C21.9159 16.5275 22.3819 18.9821 22.9572 18.9821Z" fill="white"/>
</svg>
