<svg width="83" height="30" viewBox="0 0 83 30" fill="none" xmlns="http://www.w3.org/2000/svg">
    <rect x="0.666016" width="82" height="30" rx="4" fill="#0F172A" fill-opacity="0.4"/>
    <path d="M13.054 20H11.0852L14.6697 9.81818H16.9467L20.5362 20H18.5675L15.848 11.9062H15.7685L13.054 20ZM13.1186 16.0078H18.4879V17.4893H13.1186V16.0078ZM29.2198 13.0696C29.137 12.8011 29.0226 12.5608 28.8768 12.3487C28.7343 12.1333 28.5619 11.9493 28.3597 11.7969C28.1609 11.6444 27.9322 11.5301 27.6737 11.4538C27.4151 11.3743 27.1334 11.3345 26.8285 11.3345C26.2816 11.3345 25.7944 11.4721 25.3668 11.7472C24.9393 12.0223 24.6029 12.4266 24.3576 12.9602C24.1156 13.4905 23.9947 14.1368 23.9947 14.8991C23.9947 15.6681 24.1156 16.3194 24.3576 16.853C24.5996 17.3866 24.936 17.7926 25.3668 18.071C25.7977 18.3461 26.2982 18.4837 26.8683 18.4837C27.3853 18.4837 27.8327 18.3842 28.2106 18.1854C28.5917 17.9865 28.8851 17.7048 29.0906 17.3402C29.296 16.9723 29.3988 16.5414 29.3988 16.0476L29.8164 16.1122H27.0522V14.6705H31.1836V15.8935C31.1836 16.7652 30.998 17.5192 30.6268 18.1555C30.2556 18.7919 29.7451 19.2824 29.0955 19.6271C28.4459 19.9685 27.7002 20.1392 26.8583 20.1392C25.9203 20.1392 25.0967 19.9287 24.3874 19.5078C23.6815 19.0836 23.1296 18.482 22.7319 17.7031C22.3375 16.9209 22.1403 15.9929 22.1403 14.919C22.1403 14.0971 22.2563 13.3629 22.4883 12.7166C22.7236 12.0703 23.0517 11.5218 23.4727 11.071C23.8936 10.617 24.3874 10.2723 24.9542 10.0369C25.521 9.7983 26.1374 9.67898 26.8036 9.67898C27.3671 9.67898 27.8924 9.76184 28.3796 9.92756C28.8668 10.09 29.2994 10.322 29.6772 10.6236C30.0584 10.9252 30.3716 11.2831 30.6168 11.6974C30.8621 12.1117 31.0228 12.5691 31.0991 13.0696H29.2198ZM33.9672 20V9.81818H40.5893V11.3643H35.8116V14.1286H40.2463V15.6747H35.8116V18.4538H40.6291V20H33.9672ZM51.8382 9.81818V20H50.1976L45.4 13.0646H45.3155V20H43.4711V9.81818H45.1216L49.9142 16.7585H50.0037V9.81818H51.8382ZM54.4006 11.3643V9.81818H62.5241V11.3643H59.3771V20H57.5476V11.3643H54.4006ZM65.0902 20V9.81818H71.7124V11.3643H66.9347V14.1286H71.3693V15.6747H66.9347V18.4538H71.7521V20H65.0902Z" fill="white"/>
</svg>
