<svg width="643" height="162" viewBox="0 0 643 162" fill="none" xmlns="http://www.w3.org/2000/svg">
<g clip-path="url(#clip0_312_8)">
<path d="M205.79 58.8401C203.68 56.9801 200.79 56.0601 197.17 56.0601H188.45V76.2301H197.17C200.81 76.2301 203.683 75.3034 205.79 73.4501C206.833 72.5583 207.663 71.4441 208.218 70.1895C208.774 68.9348 209.041 67.5716 209 66.2001C209.049 64.8114 208.786 63.4294 208.23 62.1558C207.675 60.8821 206.841 59.7491 205.79 58.8401V58.8401Z" fill="#A6A9AF"/>
<path d="M0 0V161.4H642.44V0H0ZM108.29 119.64L101.86 104.37H67.07L60.53 119.64H41.77L77.1 41.77H92.59L127.81 119.64H108.29ZM214.08 119.64L190.3 88.77H188.45V119.64H169.58V41.77H200.12C205.349 41.6362 210.543 42.6607 215.33 44.77C219.431 46.6187 222.928 49.5854 225.42 53.33C227.875 57.2054 229.121 61.7239 229 66.31C229.124 71.2509 227.459 76.0704 224.31 79.88C221.177 83.6333 216.777 86.2333 211.11 87.68L237.72 119.68L214.08 119.64ZM334.08 108.78C331.266 112.826 327.405 116.03 322.91 118.05C317.889 120.33 312.424 121.467 306.91 121.38C300.695 121.445 294.533 120.241 288.8 117.84C283.437 115.616 278.699 112.115 275 107.64L288.45 95.1C290.172 98.1977 292.675 100.79 295.71 102.62C298.917 104.545 302.6 105.53 306.34 105.46C309.528 105.58 312.68 104.744 315.39 103.06C316.492 102.412 317.404 101.487 318.036 100.376C318.667 99.2651 318.996 98.0079 318.99 96.73C319.107 95.1055 318.666 93.4897 317.74 92.15C316.966 91.1896 315.975 90.4256 314.85 89.92C313.872 89.4852 312.844 89.1729 311.79 88.99C310.41 88.7 308.79 88.43 306.89 88.17C304.99 87.91 303.18 87.65 301.43 87.35C300.71 87.21 299.49 86.96 297.78 86.59C295.805 86.1249 293.885 85.4546 292.05 84.59C289.837 83.5743 287.766 82.2732 285.89 80.72C283.821 78.9852 282.152 76.8221 281 74.38C279.65 71.3645 279 68.0824 279.1 64.78C279.011 60.2306 280.335 55.7655 282.89 52C285.547 48.203 289.158 45.1743 293.36 43.22C298.067 41.0175 303.214 39.9163 308.41 40C313.921 39.9472 319.378 41.083 324.41 43.33C329.131 45.4095 333.324 48.5228 336.68 52.44L324.12 64C322.728 61.3015 320.562 59.08 317.9 57.62C315.172 56.1298 312.108 55.3653 309 55.4C306.162 55.2647 303.355 56.0504 301 57.64C300.058 58.2662 299.286 59.1167 298.753 60.1151C298.221 61.1135 297.945 62.2285 297.95 63.36C297.856 64.7642 298.307 66.1506 299.21 67.23C300.007 68.1326 301.018 68.8204 302.15 69.23C303.158 69.5995 304.2 69.8707 305.26 70.04C306.64 70.26 308.31 70.52 310.26 70.81C312.21 71.1 314.01 71.39 315.61 71.68C316.801 71.856 317.983 72.093 319.15 72.39C321.134 72.8763 323.069 73.5458 324.93 74.39C327.202 75.414 329.314 76.7613 331.2 78.39C333.325 80.2218 335.03 82.4899 336.2 85.04C337.609 88.1808 338.293 91.5988 338.2 95.04C338.282 99.9346 336.846 104.734 334.09 108.78H334.08ZM456.17 119.64H441.35L403.18 73.5V119.64H385V41.77H399.61L437.86 87.9V41.77H456.18L456.17 119.64ZM561.85 119.64H512.78V41.77H531.78V104.15H561.88L561.85 119.64ZM600.66 119.64H585.18V104.15H600.67L600.66 119.64Z" fill="url(#paint0_linear_312_8)"/>
<path d="M73.29 89.86H95.75L84.63 63.58L73.29 89.86Z" fill="#9FA3AB"/>
</g>
<defs>
<linearGradient id="paint0_linear_312_8" x1="0" y1="80.7" x2="642.44" y2="80.7" gradientUnits="userSpaceOnUse">
<stop stop-color="#9DA1AA"/>
<stop offset="1" stop-color="#BBBBBB"/>
</linearGradient>
<clipPath id="clip0_312_8">
<rect width="642.44" height="161.4" fill="white"/>
</clipPath>
</defs>
</svg>
