<svg width="140" height="30" viewBox="0 0 140 30" fill="none" xmlns="http://www.w3.org/2000/svg">
    <rect width="140" height="30" rx="4" fill="#0F172A" fill-opacity="0.4"/>
    <path d="M11.4798 20V9.81818H18.0026V11.3643H13.3243V14.1286H17.5551V15.6747H13.3243V20H11.4798ZM20.683 20V9.81818H27.2057V11.3643H22.5274V14.1286H26.7583V15.6747H22.5274V20H20.683ZM38.6013 13.2536H36.7419C36.6889 12.9486 36.5911 12.6785 36.4486 12.4432C36.3061 12.2045 36.1288 12.0024 35.9166 11.8366C35.7045 11.6709 35.4626 11.5466 35.1908 11.4638C34.9223 11.3776 34.6323 11.3345 34.3208 11.3345C33.7673 11.3345 33.2767 11.4737 32.8492 11.7521C32.4216 12.0272 32.0869 12.4316 31.8449 12.9652C31.603 13.4955 31.482 14.1435 31.482 14.9091C31.482 15.688 31.603 16.3442 31.8449 16.8778C32.0902 17.4081 32.4249 17.8092 32.8492 18.081C33.2767 18.3494 33.7656 18.4837 34.3158 18.4837C34.6207 18.4837 34.9057 18.4439 35.1709 18.3643C35.4394 18.2815 35.6797 18.1605 35.8918 18.0014C36.1072 17.8423 36.2878 17.6468 36.4337 17.4148C36.5828 17.1828 36.6856 16.9176 36.7419 16.6193L38.6013 16.6293C38.5317 17.1132 38.3809 17.5672 38.1489 17.9915C37.9202 18.4157 37.6202 18.7902 37.249 19.1151C36.8778 19.4366 36.4436 19.6884 35.9465 19.8707C35.4493 20.0497 34.8975 20.1392 34.2909 20.1392C33.396 20.1392 32.5973 19.9321 31.8946 19.5178C31.192 19.1035 30.6385 18.5052 30.2341 17.723C29.8298 16.9408 29.6276 16.0028 29.6276 14.9091C29.6276 13.812 29.8314 12.8741 30.2391 12.0952C30.6468 11.313 31.2019 10.7147 31.9046 10.3004C32.6072 9.88613 33.4027 9.67898 34.2909 9.67898C34.8577 9.67898 35.3847 9.75852 35.8719 9.91761C36.3591 10.0767 36.7933 10.3104 37.1744 10.6186C37.5556 10.9235 37.8688 11.2981 38.1141 11.7422C38.3627 12.183 38.5251 12.6868 38.6013 13.2536ZM50.3884 14.9091C50.3884 16.0062 50.1829 16.9458 49.7719 17.728C49.3643 18.5069 48.8074 19.1035 48.1015 19.5178C47.3988 19.9321 46.6017 20.1392 45.7101 20.1392C44.8186 20.1392 44.0198 19.9321 43.3138 19.5178C42.6112 19.1001 42.0544 18.5019 41.6434 17.723C41.2357 16.9408 41.0319 16.0028 41.0319 14.9091C41.0319 13.812 41.2357 12.8741 41.6434 12.0952C42.0544 11.313 42.6112 10.7147 43.3138 10.3004C44.0198 9.88613 44.8186 9.67898 45.7101 9.67898C46.6017 9.67898 47.3988 9.88613 48.1015 10.3004C48.8074 10.7147 49.3643 11.313 49.7719 12.0952C50.1829 12.8741 50.3884 13.812 50.3884 14.9091ZM48.534 14.9091C48.534 14.1368 48.413 13.4856 48.1711 12.9553C47.9324 12.4216 47.601 12.0189 47.1768 11.7472C46.7525 11.4721 46.2636 11.3345 45.7101 11.3345C45.1566 11.3345 44.6678 11.4721 44.2435 11.7472C43.8193 12.0189 43.4862 12.4216 43.2442 12.9553C43.0056 13.4856 42.8863 14.1368 42.8863 14.9091C42.8863 15.6813 43.0056 16.3343 43.2442 16.8679C43.4862 17.3982 43.8193 17.8009 44.2435 18.076C44.6678 18.3478 45.1566 18.4837 45.7101 18.4837C46.2636 18.4837 46.7525 18.3478 47.1768 18.076C47.601 17.8009 47.9324 17.3982 48.1711 16.8679C48.413 16.3343 48.534 15.6813 48.534 14.9091ZM61.4994 9.81818V20H59.8588L55.0612 13.0646H54.9767V20H53.1322V9.81818H54.7828L59.5754 16.7585H59.6649V9.81818H61.4994ZM70.0425 12.6172C69.9961 12.183 69.8006 11.8449 69.4559 11.603C69.1145 11.361 68.6704 11.2401 68.1235 11.2401C67.739 11.2401 67.4092 11.2981 67.1341 11.4141C66.859 11.5301 66.6486 11.6875 66.5028 11.8864C66.3569 12.0852 66.2823 12.3123 66.279 12.5675C66.279 12.7796 66.3271 12.9635 66.4232 13.1193C66.5226 13.2751 66.6569 13.4077 66.8259 13.517C66.9949 13.6231 67.1822 13.7126 67.3877 13.7855C67.5932 13.8584 67.8003 13.9197 68.0091 13.9695L68.9637 14.2081C69.3482 14.2976 69.7177 14.4186 70.0724 14.571C70.4303 14.7235 70.7501 14.9157 71.0319 15.1477C71.3169 15.3797 71.5423 15.6598 71.708 15.9879C71.8737 16.3161 71.9566 16.7005 71.9566 17.1413C71.9566 17.7379 71.8041 18.2633 71.4992 18.7173C71.1943 19.1681 70.7535 19.5211 70.1768 19.7763C69.6034 20.0282 68.909 20.1541 68.0937 20.1541C67.3015 20.1541 66.6138 20.0315 66.0305 19.7862C65.4504 19.541 64.9964 19.183 64.6682 18.7124C64.3434 18.2417 64.1678 17.6683 64.1412 16.9922H65.9559C65.9824 17.3468 66.0918 17.6418 66.284 17.8771C66.4762 18.1125 66.7265 18.2881 67.0347 18.4041C67.3463 18.5201 67.6943 18.5781 68.0787 18.5781C68.4798 18.5781 68.8311 18.5185 69.1327 18.3991C69.4376 18.2765 69.6763 18.1075 69.8486 17.892C70.021 17.6733 70.1088 17.4181 70.1121 17.1264C70.1088 16.8613 70.0309 16.6425 69.8785 16.4702C69.726 16.2945 69.5122 16.1487 69.2371 16.0327C68.9653 15.9134 68.6472 15.8073 68.2826 15.7145L67.1242 15.4162C66.2857 15.2008 65.6228 14.8743 65.1356 14.4368C64.6517 13.996 64.4097 13.411 64.4097 12.6818C64.4097 12.0819 64.5721 11.5566 64.8969 11.1058C65.2251 10.6551 65.6708 10.3054 66.2343 10.0568C66.7977 9.80492 67.4358 9.67898 68.1483 9.67898C68.8709 9.67898 69.5039 9.80492 70.0475 10.0568C70.5944 10.3054 71.0236 10.6518 71.3351 11.0959C71.6467 11.5367 71.8074 12.0438 71.8174 12.6172H70.0425ZM81.0193 9.81818H82.8637V16.4702C82.8637 17.1993 82.6914 17.8407 82.3467 18.3942C82.0053 18.9477 81.5247 19.3802 80.9049 19.6918C80.2851 20 79.5609 20.1541 78.7323 20.1541C77.9004 20.1541 77.1746 20 76.5548 19.6918C75.935 19.3802 75.4544 18.9477 75.113 18.3942C74.7716 17.8407 74.6009 17.1993 74.6009 16.4702V9.81818H76.4454V16.3161C76.4454 16.7403 76.5382 17.1181 76.7238 17.4496C76.9127 17.781 77.1779 18.0412 77.5193 18.2301C77.8606 18.4157 78.265 18.5085 78.7323 18.5085C79.1997 18.5085 79.604 18.4157 79.9454 18.2301C80.2901 18.0412 80.5552 17.781 80.7409 17.4496C80.9265 17.1181 81.0193 16.7403 81.0193 16.3161V9.81818ZM85.8685 20V9.81818H87.713V18.4538H92.1974V20H85.8685ZM93.0519 11.3643V9.81818H101.176V11.3643H98.0285V20H96.199V11.3643H93.0519ZM105.586 9.81818V20H103.742V9.81818H105.586ZM116.951 9.81818V20H115.31L110.512 13.0646H110.428V20H108.583V9.81818H110.234L115.027 16.7585H115.116V9.81818H116.951ZM126.781 13.0696C126.698 12.8011 126.584 12.5608 126.438 12.3487C126.296 12.1333 126.123 11.9493 125.921 11.7969C125.722 11.6444 125.494 11.5301 125.235 11.4538C124.977 11.3743 124.695 11.3345 124.39 11.3345C123.843 11.3345 123.356 11.4721 122.928 11.7472C122.501 12.0223 122.164 12.4266 121.919 12.9602C121.677 13.4905 121.556 14.1368 121.556 14.8991C121.556 15.6681 121.677 16.3194 121.919 16.853C122.161 17.3866 122.497 17.7926 122.928 18.071C123.359 18.3461 123.86 18.4837 124.43 18.4837C124.947 18.4837 125.394 18.3842 125.772 18.1854C126.153 17.9865 126.447 17.7048 126.652 17.3402C126.858 16.9723 126.96 16.5414 126.96 16.0476L127.378 16.1122H124.614V14.6705H128.745V15.8935C128.745 16.7652 128.56 17.5192 128.188 18.1555C127.817 18.7919 127.307 19.2824 126.657 19.6271C126.007 19.9685 125.262 20.1392 124.42 20.1392C123.482 20.1392 122.658 19.9287 121.949 19.5078C121.243 19.0836 120.691 18.482 120.293 17.7031C119.899 16.9209 119.702 15.9929 119.702 14.919C119.702 14.0971 119.818 13.3629 120.05 12.7166C120.285 12.0703 120.613 11.5218 121.034 11.071C121.455 10.617 121.949 10.2723 122.516 10.0369C123.082 9.7983 123.699 9.67898 124.365 9.67898C124.929 9.67898 125.454 9.76184 125.941 9.92756C126.428 10.09 126.861 10.322 127.239 10.6236C127.62 10.9252 127.933 11.2831 128.178 11.6974C128.424 12.1117 128.584 12.5691 128.661 13.0696H126.781Z" fill="white"/>
</svg>
