<svg width="120px" height="60px" viewBox="0 0 1080 540" fill="none" xmlns="http://www.w3.org/2000/svg">
<path d="M306.91 302.04H333.13V318H202.79V302.04H223.12V238.96L202.79 239.34V223.38L223.12 223V211.03C223.12 200.01 225.97 191.333 231.67 185C237.497 178.667 246.237 175.817 257.89 176.45L294.18 178.35V194.31L256.75 192.41C251.303 192.157 247.377 193.677 244.97 196.97C242.69 200.263 241.55 205.077 241.55 211.41V222.62L293.61 221.48C298.17 221.353 301.527 222.43 303.68 224.71C305.833 226.863 306.91 230.283 306.91 234.97V302.04ZM288.29 302.04V237.63L241.55 238.58V302.04H288.29ZM402.1 237.44C392.22 237.44 384.303 240.987 378.35 248.08C372.397 255.047 369.42 264.8 369.42 277.34V318H350.99V223.38H369.42V238.77L366.19 250.74H371.32C373.347 241.747 377.4 234.653 383.48 229.46C389.687 224.14 397.73 221.48 407.61 221.48C418.883 221.48 427.687 224.9 434.02 231.74C440.48 238.453 443.71 248.333 443.71 261.38V318H425.09V264.04C425.09 254.54 423.253 247.763 419.58 243.71C416.033 239.53 410.207 237.44 402.1 237.44ZM463.528 291.78C463.528 275.567 474.295 266.193 495.828 263.66L532.118 259.86C531.358 244.407 522.935 236.68 506.848 236.68C499.628 236.68 493.675 238.517 488.988 242.19C484.301 245.737 481.958 251.247 481.958 258.72H464.098C464.098 248.08 467.961 239.213 475.688 232.12C483.415 225.027 493.801 221.48 506.848 221.48C520.148 221.48 530.725 225.343 538.578 233.07C546.558 240.797 550.548 251.247 550.548 264.42V302.04H564.418V318H546.748C543.075 318 540.161 316.987 538.008 314.96C535.981 312.933 534.968 310.02 534.968 306.22V301.85L537.818 291.78H532.878C528.191 310.527 515.778 319.9 495.638 319.9C489.051 319.9 483.478 318.95 478.918 317.05C474.358 315.15 471.065 312.617 469.038 309.45C467.011 306.283 465.555 303.307 464.668 300.52C463.908 297.733 463.528 294.82 463.528 291.78ZM481.958 289.12C481.958 293.933 483.415 297.607 486.328 300.14C489.368 302.673 493.358 303.94 498.298 303.94C508.431 303.94 516.601 301.027 522.808 295.2C529.015 289.247 532.118 281.773 532.118 272.78L499.058 276.2C493.105 276.96 488.735 278.29 485.948 280.19C483.288 282.09 481.958 285.067 481.958 289.12ZM576.11 318V302.04H602.52V192.6L582.38 194.31V178.35L607.27 176.64C616.39 175.88 620.95 180.377 620.95 190.13V302.04H647.55V318H576.11ZM722.841 182.15C741.334 182.15 755.711 188.547 765.971 201.34C776.231 214.007 781.361 230.537 781.361 250.93C781.361 271.45 776.231 288.107 765.971 300.9C755.711 313.567 741.334 319.9 722.841 319.9C704.221 319.9 689.781 313.567 679.521 300.9C669.261 288.107 664.131 271.45 664.131 250.93C664.131 230.537 669.261 214.007 679.521 201.34C689.781 188.547 704.221 182.15 722.841 182.15ZM722.841 198.11C709.921 198.11 699.977 202.923 693.011 212.55C686.171 222.05 682.751 234.843 682.751 250.93C682.751 262.203 684.461 271.957 687.881 280.19L748.681 207.99C741.841 201.403 733.227 198.11 722.841 198.11ZM722.841 303.94C735.761 303.94 745.641 299.19 752.481 289.69C759.321 280.063 762.741 267.143 762.741 250.93C762.741 239.403 761.031 229.587 757.611 221.48L696.811 294.06C703.651 300.647 712.327 303.94 722.841 303.94ZM799.35 242.38C811.51 237.44 820.25 230.093 825.57 220.34C830.89 210.587 833.677 198.49 833.93 184.05H870.98V318H852.55V201.15L855.59 189.18H850.65C850.017 197.667 848.94 205.14 847.42 211.6C846.027 218.06 843.683 224.52 840.39 230.98C837.223 237.313 832.663 242.823 826.71 247.51C820.883 252.197 813.79 255.87 805.43 258.53L799.35 242.38Z" fill="#A9ACB1"/>
</svg>
