<svg width="120" height="18" viewBox="0 0 120 18" fill="none" xmlns="http://www.w3.org/2000/svg">
    <g clip-path="url(#clip0_2468_10)">
        <path fill-rule="evenodd" clip-rule="evenodd" d="M7.91004 4.71267C7.9471 4.89847 7.98045 5.05826 8.01009 5.19204H12.1676C12.1528 4.9542 12.1342 4.70894 12.112 4.45626C12.0898 4.20356 12.0416 3.93972 11.9675 3.66473C11.8933 3.38973 11.7859 3.10731 11.6451 2.81746C11.5043 2.5276 11.3153 2.23403 11.0782 1.93675C10.5446 1.29758 9.87392 0.825641 9.06614 0.52092C8.25836 0.216201 7.44688 0.0638428 6.63168 0.0638428C5.93506 0.0638428 5.24585 0.171608 4.56406 0.387142C3.88226 0.602675 3.26717 0.918539 2.71877 1.33474C2.17036 1.75095 1.72571 2.26004 1.38481 2.86205C1.04391 3.46406 0.873464 4.15153 0.873464 4.92448C0.873464 5.69742 1.02909 6.35889 1.34035 6.90887C1.6516 7.45885 2.02214 7.91592 2.45197 8.2801C2.8818 8.64428 3.32274 8.93413 3.7748 9.14967C4.22687 9.36521 4.60112 9.53243 4.89754 9.65134C5.53488 9.9189 6.06104 10.1456 6.47605 10.3314C6.89106 10.5172 7.22084 10.6918 7.4654 10.8553C7.70996 11.0189 7.8804 11.1972 7.97675 11.3905C8.07309 11.5837 8.12126 11.8141 8.12126 12.0817C8.12126 12.4681 7.98046 12.8285 7.69884 13.163C7.41723 13.4975 7.02446 13.6648 6.52052 13.6648C6.38712 13.6648 6.22409 13.6387 6.03141 13.5867C5.83872 13.5346 5.64975 13.4269 5.46447 13.2634C5.2792 13.0999 5.12358 12.8695 4.99759 12.5722C4.87161 12.2749 4.80861 11.8884 4.80861 11.4127H0.628906V11.9479C0.628906 12.4831 0.714131 13.0552 0.88458 13.6648C1.05503 14.2742 1.36258 14.839 1.80722 15.3592C2.25188 15.8795 2.85956 16.3142 3.6303 16.6636C4.40102 17.0129 5.37924 17.1876 6.56498 17.1876C7.64697 17.1876 8.55479 17.0353 9.28846 16.7305C10.0221 16.4257 10.6113 16.0356 11.0559 15.5599C11.5006 15.0843 11.8193 14.5454 12.0119 13.9434C12.2046 13.3414 12.3009 12.7357 12.3009 12.1262C12.3009 11.6506 12.2454 11.2009 12.1342 10.7773C12.0231 10.3537 11.8229 9.94863 11.534 9.56215C11.2449 9.17568 10.8522 8.80408 10.3556 8.44733C9.8591 8.09058 9.22547 7.74127 8.45475 7.39939C7.71365 7.07238 7.1208 6.80111 6.67614 6.58557C6.23149 6.37004 5.88689 6.1768 5.64234 6.00587C5.39777 5.83492 5.23844 5.6677 5.16434 5.50419C5.09023 5.34068 5.05317 5.13258 5.05317 4.87989C5.05317 4.49342 5.20139 4.18126 5.49782 3.94344C5.79426 3.7056 6.12774 3.58669 6.49828 3.58669C6.82436 3.58669 7.08003 3.64243 7.26531 3.75391C7.45058 3.8654 7.59509 4.00661 7.69884 4.17755C7.8026 4.34849 7.873 4.52686 7.91004 4.71267ZM16.8138 0.375077H13.1899V16.8745H17.214L17.1028 6.86336L17.1473 6.84107L23.4168 16.8745H27.063V0.375077H23.0389L23.2168 10.6984L23.1723 10.7429L16.8138 0.375077ZM33.089 14.4897L32.222 16.8754H27.7087L34.3118 0.376026H37.6245L44.1608 16.8754H39.6031L38.8028 14.4897H33.089ZM34.2455 11.145H37.6917L36.002 5.50372H35.9353L34.2455 11.145ZM44.7391 0.375077H49.9415C50.6678 0.375077 51.2903 0.397373 51.809 0.441966C52.3278 0.48656 52.7799 0.557165 53.1652 0.653783C53.5505 0.750401 53.8878 0.873031 54.1768 1.02167C54.4658 1.17032 54.7437 1.34869 55.0105 1.55679C55.6923 2.09191 56.1999 2.76452 56.5335 3.57463C56.8669 4.38473 57.0336 5.21342 57.0336 6.06069C57.0336 6.53635 56.9669 7.04916 56.8336 7.59915C56.7002 8.14913 56.4742 8.67308 56.1555 9.17104C55.8369 9.669 55.4144 10.1075 54.8883 10.4865C54.3621 10.8656 53.7136 11.122 52.9429 11.2558L57.4116 16.8745H52.6093L48.8076 11.5456H48.7632V16.8745H44.7391V0.375077ZM48.763 8.66946H50.2526C50.8752 8.66946 51.3679 8.58398 51.7311 8.41304C52.0942 8.2421 52.3685 8.03398 52.5538 7.78871C52.7391 7.54344 52.8613 7.28702 52.9206 7.01945C52.9799 6.75188 53.0095 6.51403 53.0095 6.30593C53.0095 5.5478 52.7612 4.98665 52.2648 4.62245C51.7682 4.25826 51.1123 4.07616 50.297 4.07616H48.763V8.66946ZM58.6116 0.375077H62.8134V7.79981H62.858L67.5046 0.375077H71.9066L66.4596 8.60249L72.2623 16.8745H67.3489L62.858 9.73961H62.8134V16.8745H58.6116V0.375077ZM114.216 0.984469V0.375134H113.604L114.216 0.984469ZM112.647 0.375134H111.528L114.216 3.05074V1.9369L112.647 0.375134ZM110.016 0.375134H110.571L114.216 4.00317V5.11697L110.016 0.936008V0.375134ZM110.016 1.88844V3.00237L114.216 7.18334V6.06941L110.016 1.88844ZM110.016 5.06865V3.95481L114.216 8.13577V9.24961L110.016 5.06865ZM118.157 13.1734H119.277L119.297 13.1939V14.3078L118.157 13.1734ZM110.016 6.02108L114.216 10.202V11.3159L110.016 7.13493V6.02108ZM104.344 0.375064L104.495 0.524643L104 1.1463L103.225 0.375064H104.344ZM117.201 13.1734L119.297 15.2602V16.3741L116.082 13.1734H117.201ZM114.216 13.1734V12.2683L110.016 8.08735V9.20115L117.724 16.8745H118.843L115.125 13.1734H114.216ZM101.15 0.375064H102.269L103.577 1.67788L103.083 2.29951L101.15 0.375064ZM116.768 16.8745L110.016 10.1536V11.2675L115.648 16.8745H116.768ZM100.193 0.375064L102.66 2.83108L102.166 3.45277L99.5052 0.804225L99.8113 0.375064H100.193ZM110.016 12.2199L114.692 16.8745H113.573L109.855 13.1734H110.016V12.2199ZM101.743 3.98434L99.1078 1.36115L98.6432 2.01244L101.249 4.60601L101.743 3.98434ZM112.616 16.8745L108.898 13.1734H107.779L111.497 16.8745H112.616ZM98.2459 2.56935L100.826 5.13758L100.331 5.75923L97.7812 3.22065L98.2459 2.56935ZM106.822 13.1734L110.541 16.8745H109.422L105.703 13.1734H106.822ZM103.357 8.07851C103.622 8.49124 103.822 8.92183 103.959 9.3703L100.687 6.11369C101.225 6.26007 101.692 6.47651 102.09 6.76301C102.616 7.14206 103.039 7.58055 103.357 8.07851ZM104.199 10.5622L97.3839 3.77757L96.9193 4.42886L104.216 11.6923C104.229 11.5252 104.236 11.3574 104.236 11.1889C104.236 10.9867 104.224 10.7778 104.199 10.5622ZM95.9652 0.375064V1.41278L94.9227 0.375064H95.9652ZM95.9652 2.36521L93.9659 0.375064H92.847L95.9652 3.47905V2.36521ZM108.465 16.8745L104.897 13.3232V14.4371L107.346 16.8745H108.465ZM96.5219 4.98577L104.094 12.5239C104.032 12.8149 103.949 13.1036 103.846 13.39L99.9186 9.48097L99.904 9.46137C99.8095 9.33627 99.6918 9.22085 99.5511 9.11508L96.0573 5.6371L96.5219 4.98577ZM91.941 0.425646L95.9652 4.43148V5.54537L91.941 1.53954V0.425646ZM104.897 15.3895L106.389 16.8745H105.27L104.897 16.5034V15.3895ZM103.56 14.0578L100.359 10.8714C100.359 10.896 100.36 10.9203 100.36 10.9442C100.36 11.2817 100.311 11.58 100.212 11.8394L103.134 14.7478C103.293 14.5318 103.435 14.3018 103.56 14.0578ZM91.941 2.49196L98.076 8.59908C97.9276 8.58677 97.7699 8.58062 97.6028 8.58062H96.9385L91.941 3.6058V2.49196ZM90.7714 0.375133L91.1899 0.791809L91.355 0.375133H90.7714ZM90.9193 1.47487L89.8146 0.375133H88.6956L90.6028 2.27369L90.9193 1.47487ZM99.8451 12.4265L102.694 15.2626C102.545 15.4147 102.384 15.5581 102.213 15.6928C102.174 15.7228 102.135 15.7523 102.096 15.7811L99.1825 12.8807C99.338 12.8093 99.4822 12.725 99.615 12.6276C99.6987 12.5662 99.7754 12.4991 99.8451 12.4265ZM91.941 4.55824L96.1132 8.71146V9.82525L91.941 5.67203V4.55824ZM87.7389 0.375133L90.3323 2.95674L90.0158 3.75554L86.753 0.507445L86.7973 0.375133H87.7389ZM98.4519 13.1057L101.515 16.1551C101.47 16.1801 101.424 16.2043 101.379 16.2278C101.185 16.3273 100.97 16.4152 100.734 16.4913L97.4014 13.1739H97.6473C97.9354 13.1739 98.2036 13.1512 98.4519 13.1057ZM91.941 6.62447L96.1132 10.7777V11.8915L91.941 7.73831V6.62447ZM89.7453 4.43859L86.5134 1.22143L86.2332 2.05642L89.4288 5.23741L89.7453 4.43859ZM99.9687 16.682L96.4446 13.1739H96.1132V12.844L91.941 8.69075V9.80429L98.9789 16.8103L99.011 16.8076C99.3605 16.7775 99.6798 16.7357 99.9687 16.682ZM85.9842 2.76086L89.1581 5.92048L88.8418 6.71908L84.8656 2.76086H85.9842ZM91.941 10.7567L98.0727 16.8605C97.7845 16.8699 97.4748 16.8745 97.1435 16.8745H96.9676L91.941 11.8706V10.7567ZM88.5712 7.40214L83.9088 2.76086H82.7897L88.2547 8.20102L88.5712 7.40214ZM96.0108 16.8745L91.941 12.8231V13.937L94.8919 16.8745H96.0108ZM81.833 2.76086L87.9841 8.88409L87.6676 9.68297L84.819 6.84726L85.0413 6.10524H84.0736L80.714 2.76086H81.833ZM91.941 14.8894L93.9351 16.8745H92.8158L91.941 16.0036V14.8894ZM87.397 10.366L84.5993 7.58093L84.3421 8.4392L87.0805 11.1651L87.397 10.366ZM77.3606 0.375133L83.1169 6.10524H81.9976L76.2413 0.375133H77.3606ZM80.039 2.08893L78.3174 0.375133H79.4162L80.039 2.08893ZM84.1224 9.17288L86.8099 11.8481L86.4934 12.6469L83.8654 10.0308L84.1224 9.17288ZM75.2846 0.375133L81.8305 6.8914L82.3059 8.47827L75.391 1.59481L74.9029 0.375133H75.2846ZM83.6457 10.7644L86.2229 13.33L85.9064 14.1288L83.3887 11.6225L83.6457 10.7644ZM76.0246 3.17793L82.7123 9.83535L83.1877 11.4226L76.7657 5.02955L76.0246 3.17793ZM85.6357 14.8119L77.3992 6.61267L78.1402 8.46424L85.3193 15.6108L85.6357 14.8119ZM78.7738 10.0474L85.0487 16.2939L84.8187 16.8745H84.513L79.5147 11.899L78.7738 10.0474ZM83.5563 16.8745L80.1483 13.4821L80.889 15.333L82.4376 16.8745H83.5563ZM77.8162 14.3403C77.7216 14.0272 77.5509 13.7424 77.3041 13.4858C77.0465 13.2272 76.7549 13.0521 76.4295 12.9601L77.8162 14.3403ZM75.4369 12.9243C75.1555 12.9805 74.8978 13.0954 74.6641 13.2688L77.531 16.1228C77.7037 15.8873 77.8165 15.6283 77.8694 15.3457L75.4369 12.9243ZM73.8338 14.5086C73.8916 14.2304 74.0085 13.9754 74.1843 13.7435L77.0577 16.604C76.8274 16.7804 76.5738 16.8991 76.2967 16.9602L73.8338 14.5086ZM75.3255 16.9459L73.8624 15.4895C73.9528 15.823 74.1291 16.1213 74.3916 16.3844C74.6649 16.6686 74.9761 16.8558 75.3255 16.9459Z" fill="#0F172A" fill-opacity="0.4"/>
    </g>
    <defs>
        <clipPath id="clip0_2468_10">
            <rect width="119.25" height="18" fill="white" transform="translate(0.333984)"/>
        </clipPath>
    </defs>
</svg>
