<svg width="138" height="20" viewBox="0 0 138 20" fill="none" xmlns="http://www.w3.org/2000/svg">
<g clip-path="url(#clip0_809_3032)">
<path fill-rule="evenodd" clip-rule="evenodd" d="M8.76948 5.23616C8.81236 5.44261 8.85095 5.62015 8.88525 5.7688H13.6965C13.6793 5.50454 13.6578 5.23202 13.6322 4.95126C13.6064 4.67049 13.5507 4.37734 13.4649 4.07179C13.3791 3.76624 13.2548 3.45244 13.0918 3.13037C12.9289 2.80831 12.7102 2.48212 12.4357 2.15181C11.8183 1.44162 11.0421 0.917244 10.1073 0.578665C9.17255 0.240087 8.23349 0.0708008 7.29012 0.0708008C6.48396 0.0708008 5.68639 0.19054 4.89739 0.430022C4.1084 0.669504 3.39659 1.02046 2.76196 1.48291C2.12733 1.94536 1.61276 2.51102 1.21826 3.17992C0.823764 3.84882 0.626517 4.61267 0.626517 5.47151C0.626517 6.33034 0.806612 7.0653 1.16681 7.67639C1.527 8.28747 1.95581 8.79534 2.45322 9.19997C2.95063 9.60462 3.4609 9.92667 3.98404 10.1662C4.50719 10.4056 4.94028 10.5914 5.28331 10.7236C6.02086 11.0209 6.62975 11.2727 7.11001 11.4792C7.59028 11.6856 7.9719 11.8797 8.25492 12.0614C8.53794 12.243 8.73517 12.4412 8.84667 12.6559C8.95816 12.8707 9.01391 13.1267 9.01391 13.4239C9.01391 13.8533 8.85096 14.2538 8.52506 14.6254C8.19917 14.997 7.74465 15.1829 7.16148 15.1829C7.0071 15.1829 6.81843 15.1539 6.59546 15.0962C6.37247 15.0383 6.15379 14.9187 5.93938 14.7369C5.72498 14.5553 5.54489 14.2993 5.39909 13.9689C5.2533 13.6387 5.1804 13.2092 5.1804 12.6807H0.343506V13.2753C0.343506 13.8699 0.44213 14.5057 0.63938 15.1829C0.836631 15.86 1.19253 16.4877 1.70709 17.0657C2.22166 17.6438 2.92489 18.1268 3.81681 18.5149C4.70872 18.903 5.84075 19.0972 7.21293 19.0972C8.46504 19.0972 9.5156 18.9279 10.3646 18.5893C11.2137 18.2507 11.8955 17.8172 12.41 17.2887C12.9246 16.7602 13.2934 16.1614 13.5163 15.4925C13.7393 14.8237 13.8508 14.1507 13.8508 13.4734C13.8508 12.9449 13.7864 12.4454 13.6578 11.9747C13.5292 11.5039 13.2976 11.0539 12.9632 10.6245C12.6287 10.1951 12.1742 9.78217 11.5996 9.38579C11.025 8.9894 10.2917 8.60127 9.39983 8.22141C8.54221 7.85806 7.85614 7.55665 7.34157 7.31716C6.827 7.07769 6.42822 6.86297 6.14521 6.67305C5.8622 6.48311 5.67781 6.29731 5.59205 6.11564C5.5063 5.93395 5.46341 5.70274 5.46341 5.42196C5.46341 4.99255 5.63494 4.64571 5.97797 4.38146C6.32102 4.1172 6.70694 3.98507 7.13574 3.98507C7.51309 3.98507 7.80896 4.04701 8.02337 4.17087C8.23777 4.29475 8.405 4.45165 8.52506 4.64159C8.64513 4.83152 8.72661 5.02971 8.76948 5.23616ZM19.0731 0.416616H14.8795V18.7493H19.5364L19.4076 7.62582L19.4592 7.60105L26.7144 18.7493H30.9339V0.416616H26.2771L26.483 11.8869L26.4314 11.9365L19.0731 0.416616ZM37.9074 16.0995L36.904 18.7503H31.6811L39.3224 0.417671H43.156L50.7201 18.7503H45.4457L44.5196 16.0995H37.9074ZM39.2458 12.3832H43.2338L41.2784 6.11511H41.2012L39.2458 12.3832ZM51.3892 0.416616H57.4097C58.2502 0.416616 58.9705 0.44139 59.5708 0.490937C60.1711 0.540486 60.6943 0.618936 61.1402 0.72629C61.5861 0.833644 61.9764 0.969899 62.3109 1.13506C62.6453 1.30022 62.9669 1.49841 63.2757 1.72964C64.0647 2.32421 64.6521 3.07155 65.0381 3.97167C65.424 4.87179 65.6169 5.79255 65.6169 6.73396C65.6169 7.26247 65.5397 7.83226 65.3854 8.44336C65.231 9.05445 64.9695 9.63662 64.6007 10.1899C64.232 10.7432 63.7431 11.2304 63.1342 11.6516C62.5253 12.0727 61.7749 12.3576 60.883 12.5063L66.0543 18.7493H60.497L56.0975 12.8283H56.0461V18.7493H51.3892V0.416616ZM56.0458 9.6326H57.7696C58.4901 9.6326 59.0603 9.53762 59.4806 9.34769C59.9008 9.15775 60.2182 8.92651 60.4327 8.65399C60.6471 8.38146 60.7886 8.09655 60.8572 7.79925C60.9258 7.50195 60.9601 7.23767 60.9601 7.00645C60.9601 6.16409 60.6727 5.54059 60.0982 5.13592C59.5236 4.73126 58.7646 4.52894 57.8211 4.52894H56.0458V9.6326ZM67.4429 0.416616H72.3055V8.66632H72.357L77.7342 0.416616H82.8284L76.5249 9.55819L83.24 18.7493H77.554L72.357 10.8216H72.3055V18.7493H67.4429V0.416616ZM131.791 1.09372V0.41668H131.082L131.791 1.09372ZM129.975 0.41668H128.68L131.791 3.38957V2.15197L129.975 0.41668ZM126.93 0.41668H127.573L131.791 4.44784V5.68539L126.93 1.03987V0.41668ZM126.93 2.09814V3.33584L131.791 7.98135V6.74365L126.93 2.09814ZM126.93 5.6317V4.3941L131.791 9.03961V10.2772L126.93 5.6317ZM136.351 14.6369H137.647L137.67 14.6598V15.8974L136.351 14.6369ZM126.93 6.68995L131.791 11.3355V12.573L126.93 7.92756V6.68995ZM120.366 0.416602L120.54 0.582801L119.968 1.27354L119.072 0.416602H120.366ZM135.245 14.6369L137.67 16.9557V18.1933L133.949 14.6369H135.245ZM131.791 14.6369V13.6313L126.93 8.98581V10.2234L135.85 18.7493H137.145L132.843 14.6369H131.791ZM116.67 0.416602H117.964L119.479 1.86417L118.907 2.55487L116.67 0.416602ZM134.743 18.7493L126.93 11.2816V12.5193L133.448 18.7493H134.743ZM115.562 0.416602L118.418 3.14551L117.845 3.83627L114.766 0.893447L115.121 0.416602H115.562ZM126.93 13.5775L132.341 18.7493H131.046L126.743 14.6369H126.93V13.5775ZM117.356 4.42691L114.307 1.51225L113.769 2.23591L116.784 5.11765L117.356 4.42691ZM129.939 18.7493L125.636 14.6369H124.341L128.644 18.7493H129.939ZM113.309 2.8547L116.295 5.70829L115.722 6.39901L112.771 3.57836L113.309 2.8547ZM123.234 14.6369L127.537 18.7493H126.242L121.939 14.6369H123.234ZM119.224 8.97599C119.53 9.43457 119.762 9.91301 119.92 10.4113L116.135 6.79285C116.756 6.9555 117.298 7.19599 117.758 7.51432C118.367 7.93549 118.856 8.4227 119.224 8.97599ZM120.199 11.7357L112.312 4.19716L111.774 4.92082L120.218 12.9913C120.233 12.8057 120.241 12.6192 120.241 12.4319C120.241 12.2073 120.227 11.9752 120.199 11.7357ZM110.67 0.416602V1.56962L109.463 0.416602H110.67ZM110.67 2.62787L108.356 0.416602H107.061L110.67 3.86547V2.62787ZM125.135 18.7493L121.006 14.8034V16.041L123.84 18.7493H125.135ZM111.314 5.53961L120.077 13.9153C120.005 14.2387 119.909 14.5594 119.789 14.8777L115.245 10.5343L115.228 10.5125C115.119 10.3735 114.982 10.2452 114.82 10.1277L110.776 6.26331L111.314 5.53961ZM106.013 0.472805L110.67 4.92374V6.16139L106.013 1.71046V0.472805ZM121.006 17.0993L122.733 18.7493H121.438L121.006 18.3369V17.0993ZM119.458 15.6197L115.754 12.0792C115.755 12.1066 115.755 12.1335 115.755 12.16C115.755 12.535 115.698 12.8665 115.585 13.1548L118.965 16.3863C119.15 16.1463 119.315 15.8908 119.458 15.6197ZM106.013 2.76871L113.112 9.5544C112.941 9.54072 112.758 9.53389 112.565 9.53389H111.796L106.013 4.00631V2.76871ZM104.659 0.416679L105.144 0.879652L105.335 0.416679H104.659ZM104.831 1.63861L103.552 0.416679H102.257L104.464 2.52619L104.831 1.63861ZM115.16 13.807L118.457 16.9583C118.284 17.1273 118.098 17.2867 117.899 17.4363C117.855 17.4697 117.81 17.5024 117.765 17.5344L114.393 14.3118C114.573 14.2324 114.74 14.1388 114.893 14.0305C114.99 13.9623 115.079 13.8878 115.16 13.807ZM106.013 5.06457L110.841 9.67926V10.9168L106.013 6.30212V5.06457ZM101.15 0.416679L104.151 3.28514L103.785 4.17269L100.009 0.563692L100.06 0.416679H101.15ZM113.547 14.5618L117.092 17.9499C117.04 17.9778 116.987 18.0047 116.935 18.0308C116.711 18.1413 116.462 18.2389 116.188 18.3235L112.332 14.6375H112.616C112.95 14.6375 113.26 14.6123 113.547 14.5618ZM106.013 7.36039L110.841 11.9751V13.2127L106.013 8.59799V7.36039ZM103.472 4.93164L99.7318 1.35701L99.4076 2.28477L103.106 5.81921L103.472 4.93164ZM115.303 18.5354L111.225 14.6375H110.841V14.2709L106.013 9.65625V10.8935L114.157 18.6779L114.194 18.6749C114.599 18.6415 114.968 18.595 115.303 18.5354ZM99.1194 3.06749L102.792 6.57817L102.426 7.46551L97.8249 3.06749H99.1194ZM106.013 11.9518L113.109 18.7338C112.775 18.7442 112.417 18.7493 112.033 18.7493H111.83L106.013 13.1894V11.9518ZM102.113 8.22446L96.7177 3.06749H95.4227L101.747 9.11211L102.113 8.22446ZM110.723 18.7493L106.013 14.2478V15.4854L109.428 18.7493H110.723ZM94.3156 3.06749L101.434 9.87107L101.068 10.7587L97.771 7.60794L98.0283 6.78346H96.9084L93.0206 3.06749H94.3156ZM106.013 16.5437L108.32 18.7493H107.025L106.013 17.7817V16.5437ZM100.754 11.5177L97.5168 8.42312L97.2192 9.37675L100.388 12.4055L100.754 11.5177ZM89.1399 0.416679L95.8013 6.78346H94.506L87.8447 0.416679H89.1399ZM92.2394 2.3209L90.2472 0.416679H91.5187L92.2394 2.3209ZM96.9649 10.1919L100.075 13.1644L99.7088 14.0519L96.6676 11.1452L96.9649 10.1919ZM86.7375 0.416679L94.3127 7.65697L94.8627 9.42016L86.8607 1.77187L86.2958 0.416679H86.7375ZM96.4133 11.9603L99.3957 14.8109L99.0294 15.6985L96.1158 12.9138L96.4133 11.9603ZM87.5939 3.5309L95.3331 10.928L95.8833 12.6917L88.4515 5.58825L87.5939 3.5309ZM98.7162 16.4575L89.1846 7.34727L90.0421 9.40457L98.35 17.3452L98.7162 16.4575ZM90.7754 11.1636L98.0369 18.1042L97.7707 18.7493H97.4169L91.6328 13.2209L90.7754 11.1636ZM96.3098 18.7493L92.366 14.9799L93.2232 17.0365L95.0152 18.7493H96.3098ZM89.6672 15.9335C89.5577 15.5857 89.3602 15.2692 89.0746 14.984C88.7764 14.6968 88.439 14.5022 88.0625 14.3999L89.6672 15.9335ZM86.9138 14.3602C86.5881 14.4227 86.29 14.5503 86.0194 14.7429L89.3372 17.914C89.537 17.6524 89.6676 17.3647 89.7288 17.0507L86.9138 14.3602ZM85.0586 16.1205C85.1255 15.8114 85.2608 15.528 85.4642 15.2704L88.7894 18.4488C88.5229 18.6448 88.2294 18.7767 87.9087 18.8445L85.0586 16.1205ZM86.7848 18.8287L85.0917 17.2104C85.1964 17.5809 85.4004 17.9124 85.7041 18.2048C86.0203 18.5205 86.3806 18.7285 86.7848 18.8287Z" fill="currentColor
"/>
</g>
<defs>
<clipPath id="clip0_809_3032">
<rect width="138" height="20" fill="currentColor"/>
</clipPath>
</defs>
</svg>
