<svg width="155" height="23" viewBox="0 0 155 23" fill="none" xmlns="http://www.w3.org/2000/svg">
<path fill-rule="evenodd" clip-rule="evenodd" d="M25.8912 5.99962L20.3201 0H1.85702L7.4281 5.99962H12.8203L0 17.856H8.78516L14.2491 12.8206V5.99962H25.8912ZM50.7483 0L38.3563 11.8564H46.6415L40.1419 17.856H28.6426V13.3777L23.7858 17.856H15.0006L27.8569 5.99962L22.3216 0H50.7483ZM29.2854 5.99962V12.1535L35.9279 5.99962H29.2854ZM42.1377 17.856L61.4579 0H70.2431L50.9229 17.856H42.1377ZM154.349 0L144.35 9.24941H137.737L145.707 17.856H117.851L124.315 11.8564H130.243L119.244 0H129.172L136.735 8.16698L145.564 0H154.349ZM122.814 5.99962L117.243 0H106.958H99.9582H98.1726L78.8524 17.856H87.6376L100.466 5.99962H111.171L98.3512 17.856H107.136L112.6 12.8206V5.99962H122.814ZM86.7079 3.31809e-06H95.493L71.3518 22.32V9.57082L62.388 17.856H53.6029L72.9231 3.31809e-06H77.3157V8.53517L86.7079 3.31809e-06Z" fill="currentColor"/>
</svg>
