<svg width="28" height="28" viewBox="0 0 28 28" fill="none" xmlns="http://www.w3.org/2000/svg">
<path fill-rule="evenodd" clip-rule="evenodd" d="M28 14C28 21.732 21.732 28 14 28C6.26801 28 0 21.732 0 14C0 6.26801 6.26801 0 14 0C21.732 0 28 6.26801 28 14ZM20.6528 10.5879C21.3297 10.5076 21.975 10.3276 22.575 10.0616C22.1265 10.7327 21.5592 11.3219 20.9049 11.7936C20.9114 11.9368 20.9146 12.0813 20.9146 12.2263C20.9146 16.6488 17.5485 21.7479 11.3933 21.7479C9.5036 21.7479 7.74418 21.1941 6.26402 20.2443C6.52531 20.2755 6.79234 20.2912 7.06187 20.2912C8.63012 20.2912 10.0729 19.7564 11.2183 18.8587C9.75366 18.8315 8.51807 17.8639 8.09232 16.5348C8.29646 16.5737 8.50584 16.5944 8.72196 16.5944C9.02668 16.5944 9.32291 16.5537 9.60342 16.4769C8.07285 16.1696 6.91887 14.8173 6.91887 13.1958C6.91887 13.1819 6.91887 13.1676 6.91912 13.1534C7.37008 13.4047 7.88643 13.5552 8.43472 13.5724C7.53729 12.9725 6.94607 11.9478 6.94607 10.7871C6.94607 10.1739 7.11128 9.59864 7.39928 9.10451C9.04989 11.1297 11.5158 12.4619 14.297 12.6014C14.2396 12.3563 14.2099 12.101 14.2099 11.8387C14.2099 9.99096 15.7085 8.49233 17.5563 8.49233C18.5193 8.49233 19.389 8.89862 19.9995 9.54873C20.7614 9.39874 21.4779 9.12048 22.1245 8.7369C21.8742 9.51878 21.3439 10.1739 20.6528 10.5879Z" fill="white"/>
</svg>
