<svg viewBox="0 0 24 24" fill="none" xmlns="http://www.w3.org/2000/svg">
    <path fill-rule="evenodd" clip-rule="evenodd" d="M24 12C24 18.6274 18.6274 24 12 24C5.37258 24 0 18.6274 0 12C0 5.37258 5.37258 0 12 0C18.6274 0 24 5.37258 24 12ZM17.7024 9.07535C18.2826 9.00647 18.8357 8.85225 19.35 8.62422C18.9656 9.19942 18.4794 9.70447 17.9185 10.1088C17.924 10.2315 17.9268 10.3554 17.9268 10.4797C17.9268 14.2704 15.0416 18.641 9.76568 18.641C8.14594 18.641 6.63787 18.1664 5.36916 17.3522C5.59312 17.379 5.82201 17.3924 6.05303 17.3924C7.39725 17.3924 8.63387 16.934 9.61573 16.1646C8.36028 16.1413 7.3012 15.3119 6.93627 14.1726C7.11125 14.206 7.29072 14.2238 7.47597 14.2238C7.73716 14.2238 7.99107 14.1889 8.2315 14.123C6.91959 13.8597 5.93046 12.7005 5.93046 11.3107C5.93046 11.2987 5.93046 11.2866 5.93067 11.2744C6.31721 11.4898 6.75979 11.6188 7.22976 11.6335C6.46053 11.1193 5.95378 10.241 5.95378 9.24606C5.95378 8.72048 6.09539 8.22741 6.34224 7.80386C7.75705 9.53975 9.87071 10.6816 12.2545 10.8012C12.2053 10.5911 12.1799 10.3723 12.1799 10.1475C12.1799 8.56368 13.4644 7.27914 15.0482 7.27914C15.8737 7.27914 16.6192 7.62739 17.1424 8.18463C17.7955 8.05607 18.4096 7.81756 18.9639 7.48877C18.7493 8.15896 18.2948 8.72048 17.7024 9.07535Z" fill="white" fill-opacity="0.3"/>
</svg>
