<svg width="1496" height="4000" viewBox="0 0 1496 4000" fill="none" xmlns="http://www.w3.org/2000/svg">
    <line x1="0.500122" y1="2.00256e-08" x2="0.499931" y2="4000" stroke="#E1E7F4"/>
    <line x1="527.812" y1="2.68057e-08" x2="527.812" y2="4000" stroke="#E1E7F4"/>
    <line x1="703.59" y1="2.68057e-08" x2="703.59" y2="4000" stroke="#E1E7F4"/>
    <line x1="88.3829" y1="2.68057e-08" x2="88.3828" y2="4000" stroke="#E1E7F4"/>
    <line x1="615.699" y1="2.68057e-08" x2="615.699" y2="4000" stroke="#E1E7F4"/>
    <line x1="879.359" y1="2.65174e-08" x2="879.359" y2="4000" stroke="#E1E7F4"/>
    <line x1="176.277" y1="2.68057e-08" x2="176.277" y2="4000" stroke="#E1E7F4"/>
    <line x1="791.469" y1="2.63387e-08" x2="791.469" y2="4000" stroke="#E1E7F4"/>
    <line x1="1143.02" y1="6.89257e-09" x2="1143.02" y2="4000" stroke="#E1E7F4"/>
    <line x1="264.152" y1="2.68057e-08" x2="264.152" y2="4000" stroke="#E1E7F4"/>
    <line x1="967.242" y1="2.68057e-08" x2="967.242" y2="4000" stroke="#E1E7F4"/>
    <line x1="1318.78" y1="6.89257e-09" x2="1318.78" y2="4000" stroke="#E1E7F4"/>
    <line x1="352.039" y1="2.68057e-08" x2="352.039" y2="4000" stroke="#E1E7F4"/>
    <line x1="1055.13" y1="6.81846e-09" x2="1055.13" y2="4000" stroke="#E1E7F4"/>
    <line x1="1406.67" y1="6.89257e-09" x2="1406.67" y2="4000" stroke="#E1E7F4"/>
    <line x1="439.926" y1="2.65174e-08" x2="439.926" y2="4000" stroke="#E1E7F4"/>
    <line x1="1230.9" y1="6.89257e-09" x2="1230.9" y2="4000" stroke="#E1E7F4"/>
    <line x1="1494.56" y1="6.69967e-09" x2="1494.56" y2="4000" stroke="#E1E7F4"/>
</svg>
