<svg width="28" height="28" viewBox="0 0 28 28" fill="none" xmlns="http://www.w3.org/2000/svg">
    <path fill-rule="evenodd" clip-rule="evenodd" d="M14 28C21.732 28 28 21.732 28 14C28 6.26801 21.732 0 14 0C6.26801 0 0 6.26801 0 14C0 21.732 6.26801 28 14 28ZM16.675 6.5C18.0498 6.74286 19.3649 7.16937 20.5948 7.75625C22.7453 11.0315 23.8138 14.7254 23.4192 18.986C21.7739 20.2407 20.1779 21.0019 18.6087 21.5C18.2202 20.9567 17.8765 20.3777 17.5791 19.7706C18.1455 19.5511 18.6894 19.2802 19.2035 18.9642C19.069 18.8615 18.936 18.754 18.806 18.6435C15.717 20.1348 12.3202 20.1348 9.19393 18.6435C9.06543 18.754 8.93242 18.8615 8.79643 18.9642C9.309 19.2787 9.85147 19.5495 10.4178 19.769C10.1205 20.3777 9.77526 20.9552 9.3882 21.4985C7.82057 21.0003 6.22603 20.2391 4.58068 18.986C4.24444 15.3107 4.91693 11.5825 7.39765 7.75935C8.62756 7.17094 9.94414 6.74286 11.3205 6.5C11.4909 6.81134 11.6926 7.2301 11.8286 7.56322C13.2632 7.33905 14.7113 7.33905 16.1728 7.56322C16.3088 7.2301 16.5061 6.81134 16.675 6.5ZM9.13564 14.7441C9.13564 15.8322 9.90528 16.7257 10.8438 16.7257C11.7987 16.7257 12.5534 15.8322 12.5519 14.7441C12.5683 13.6544 11.7987 12.7609 10.8438 12.7609C9.88884 12.7609 9.13564 13.656 9.13564 14.7441ZM15.4481 14.7441C15.4481 15.8322 16.2177 16.7257 17.1562 16.7257C18.1111 16.7257 18.8643 15.8322 18.8643 14.7441C18.8807 13.6544 18.1111 12.7609 17.1562 12.7609C16.2012 12.7609 15.4481 13.656 15.4481 14.7441Z" fill="#B3C2E6"/>
</svg>
