<svg viewBox="0 0 28 28" fill="none" xmlns="http://www.w3.org/2000/svg">
    <path fill-rule="evenodd" clip-rule="evenodd" d="M14 28C21.732 28 28 21.732 28 14C28 6.26801 21.732 0 14 0C6.26801 0 0 6.26801 0 14C0 21.732 6.26801 28 14 28ZM8.92273 20C12.1936 20 14.8453 17.0899 14.8453 13.5001C14.8453 9.91031 12.1938 7 8.92273 7C5.65169 7 3 9.91097 3 13.5001C3 17.0892 5.65189 20 8.92273 20ZM18.3811 19.6195C20.0166 19.6195 21.3425 16.8791 21.3425 13.5001H21.3423C21.3423 10.1202 20.0164 7.38076 18.3809 7.38076C16.7454 7.38076 15.4197 10.1211 15.4197 13.5001C15.4197 16.8791 16.7456 19.6195 18.3811 19.6195ZM22.9585 18.9821C23.5338 18.9821 24 16.5269 24 13.5001C24 10.4725 23.5336 8.01814 22.9585 8.01814C22.3834 8.01814 21.9172 10.4727 21.9172 13.5001C21.9172 16.5275 22.3832 18.9821 22.9585 18.9821Z" fill="#B3C2E6"/>
</svg>
