<svg viewBox="0 0 24 24" fill="none" xmlns="http://www.w3.org/2000/svg">
    <path d="M2.88539 8.84875C3.55805 6.13983 5.70602 4.04534 8.43056 3.44162L8.88443 3.34105C10.9366 2.88632 13.0634 2.88632 15.1156 3.34105L15.5694 3.44162C18.294 4.04534 20.442 6.13984 21.1146 8.84875C21.6285 10.9182 21.6285 13.0819 21.1146 15.1512C20.442 17.8602 18.294 19.9547 15.5694 20.5584L15.1156 20.659C13.0634 21.1137 10.9366 21.1137 8.88443 20.659L8.43056 20.5584C5.70601 19.9547 3.55805 17.8602 2.88539 15.1513C2.37154 13.0819 2.37154 10.9181 2.88539 8.84875Z" fill="#FF8831" fill-opacity="0.2"/>
    <path fill-rule="evenodd" clip-rule="evenodd" d="M14.9842 3.92686C13.0175 3.49108 10.9793 3.49108 9.01267 3.92686L8.5588 4.02743C6.05666 4.58187 4.08393 6.50542 3.46615 8.99337C2.97587 10.9678 2.97587 13.0322 3.46615 15.0067C4.08393 17.4946 6.05665 19.4182 8.5588 19.9726L9.01267 20.0732C10.9793 20.509 13.0175 20.509 14.9842 20.0732L15.4381 19.9726C17.9175 19.4232 19.8771 17.5294 20.5136 15.0743C19.8807 15.203 19.2259 15.211 18.5842 15.0939L18.5256 15.0833C17.3164 14.8628 16.3373 13.9749 15.9997 12.793C15.8516 12.2747 15.8516 11.7253 15.9997 11.207C16.3373 10.0251 17.3164 9.13726 18.5255 8.91679L18.5842 8.9061L18.6918 9.49637L18.5842 8.9061C19.2259 8.78909 19.8807 8.797 20.5136 8.92575C19.8771 6.47061 17.9175 4.57684 15.4381 4.02743L14.9842 3.92686ZM20.7734 10.2383C20.1411 10.0191 19.4612 9.96598 18.7994 10.0866L18.7408 10.0973L18.6332 9.50706L18.7408 10.0973C17.9811 10.2358 17.3657 10.7937 17.1535 11.5366C17.067 11.8395 17.067 12.1606 17.1535 12.4634C17.3657 13.2063 17.9811 13.7642 18.7408 13.9027L18.7994 13.9134C19.4612 14.0341 20.1411 13.981 20.7734 13.7617C20.9401 12.5932 20.9401 11.4068 20.7734 10.2383ZM8.75306 2.75528C10.8907 2.28161 13.1061 2.28161 15.2438 2.75528L15.6977 2.85585C18.6446 3.50885 20.9678 5.7743 21.6954 8.70418C22.2328 10.8685 22.2328 13.1315 21.6954 15.2959C20.9678 18.2258 18.6446 20.4912 15.6977 21.1442L15.2438 21.2448C13.1061 21.7184 10.8907 21.7184 8.75306 21.2448L8.29919 21.1442C5.35225 20.4912 3.02904 18.2258 2.30151 15.2959C1.76408 13.1315 1.76408 10.8685 2.30151 8.70417C3.02904 5.77429 5.35225 3.50885 8.29919 2.85585L8.75306 2.75528Z" fill="#FF8831"/>
    <path fill-rule="evenodd" clip-rule="evenodd" d="M7.39844 9.00002C7.39844 8.66865 7.66707 8.40002 7.99844 8.40002L11.9984 8.40002C12.3298 8.40002 12.5984 8.66865 12.5984 9.00002C12.5984 9.3314 12.3298 9.60002 11.9984 9.60002L7.99844 9.60002C7.66707 9.60002 7.39844 9.3314 7.39844 9.00002Z" fill="#FF8831"/>
</svg>
