<svg width="141" height="32" viewBox="0 0 141 32" fill="none" xmlns="http://www.w3.org/2000/svg">
<path d="M40.4062 15.8782V20.2595C40.4062 21.3737 40.0843 22.4635 39.4802 23.3939C38.8762 24.3242 38.0166 25.0543 37.0079 25.4936C35.9992 25.933 34.8856 26.0623 33.8052 25.8656C32.7248 25.6689 31.725 25.1548 30.9295 24.387L32.9984 22.177C33.3245 22.4916 33.7252 22.7153 34.1615 22.8264C34.5979 22.9375 35.0551 22.9324 35.4889 22.8114C35.9227 22.6904 36.3184 22.4577 36.6376 22.1359C36.9567 21.814 37.1886 21.4139 37.3106 20.9744C36.218 21.5318 34.976 21.7121 33.7732 21.4879C32.5705 21.2638 31.4726 20.6474 30.6462 19.7323C29.8199 18.8172 29.3102 17.6535 29.1946 16.4177C29.0789 15.1818 29.3636 13.9415 30.0055 12.8848C30.6473 11.8282 31.6112 11.013 32.7509 10.5629C33.8906 10.1129 35.1438 10.0526 36.3203 10.3912C37.4968 10.7298 38.5324 11.4488 39.2698 12.4391C40.0072 13.4293 40.4062 14.6368 40.4062 15.8782ZM37.4086 15.8782C37.409 15.3538 37.2562 14.8411 36.9695 14.4049C36.6828 13.9687 36.2752 13.6286 35.7981 13.4277C35.321 13.2267 34.7959 13.1739 34.2892 13.2759C33.7825 13.378 33.317 13.6303 32.9516 14.0009C32.5862 14.3715 32.3373 14.8438 32.2364 15.3581C32.1355 15.8723 32.1871 16.4054 32.3846 16.8899C32.5822 17.3744 32.9169 17.7885 33.3464 18.0799C33.7758 18.3712 34.2808 18.5267 34.7973 18.5267C35.4893 18.5262 36.1529 18.2471 36.6424 17.7506C37.132 17.254 37.4075 16.5807 37.4086 15.8782ZM53.2973 10.2008V21.6367H50.2958L50.3118 21.1654C49.5718 21.5448 48.7594 21.7565 47.9309 21.7856C47.1023 21.8147 46.2774 21.6606 45.5134 21.334C44.8355 21.0445 44.2198 20.6236 43.7007 20.095C43.1812 19.5667 42.7668 18.9419 42.4799 18.2546C42.0379 17.1931 41.918 16.0218 42.1355 14.8907C42.3529 13.7595 42.8979 12.72 43.7007 11.905C44.221 11.3778 44.8364 10.9571 45.5134 10.6659C46.2778 10.3391 47.1031 10.185 47.9321 10.2145C48.7611 10.2439 49.5738 10.4562 50.3138 10.8365L50.2958 10.2008H53.2973ZM50.0717 17.373C50.3092 16.9562 50.4345 16.4834 50.4348 16.0019C50.4352 15.5204 50.3107 15.0474 50.0738 14.6303C49.8369 14.2131 49.496 13.8667 49.0854 13.6258C48.6748 13.3849 48.2089 13.258 47.7346 13.2578C47.2602 13.2574 46.794 13.3837 46.383 13.6241C45.972 13.8646 45.6305 14.2106 45.393 14.6274C45.1555 15.0443 45.0303 15.5173 45.03 15.9988C45.0296 16.4804 45.1542 16.9536 45.3911 17.3707C45.6281 17.7879 45.969 18.1345 46.3797 18.3755C46.7904 18.6165 47.2564 18.7435 47.7308 18.7437C48.2052 18.7439 48.6712 18.6174 49.0822 18.3767C49.4931 18.1361 49.8344 17.7899 50.0717 17.373ZM57.7549 13.1664V15.5734C57.7557 16.4297 58.0911 17.2507 58.6876 17.8562C59.2841 18.4617 60.0929 18.8022 60.9364 18.803V21.8499C60.1243 21.8505 59.32 21.6885 58.5696 21.3733C57.8192 21.0581 57.1373 20.5958 56.5631 20.0129C55.9888 19.4299 55.5334 18.7378 55.2229 17.976C54.9123 17.2142 54.7528 16.3978 54.7534 15.5734V7.70026L57.7549 6.68469V10.3226H60.9364V13.1664L57.7549 13.1664ZM62.8558 20.0278C62.2003 19.3624 61.7165 18.5432 61.4474 17.6427C61.1783 16.7421 61.1321 15.7882 61.3129 14.8652C61.4938 13.9422 61.8961 13.0788 62.4842 12.3514C63.0722 11.6239 63.828 11.055 64.6844 10.6948C65.5409 10.3347 66.4716 10.1946 67.3942 10.2868C68.3167 10.3791 69.2026 10.7009 69.9734 11.2237C70.7442 11.7465 71.376 12.4542 71.813 13.2842C72.25 14.1141 72.4786 15.0406 72.4785 15.9817V17.4543H64.5244C64.7462 17.8139 65.0462 18.1173 65.4014 18.341C65.7566 18.5647 66.1575 18.7028 66.5735 18.7448C66.9894 18.7867 67.4093 18.7314 67.8009 18.5831C68.1925 18.4348 68.5455 18.1974 68.8327 17.8891L70.9418 19.9122C70.4237 20.4681 69.8012 20.9131 69.1109 21.2207C68.4206 21.5283 67.6766 21.6923 66.9228 21.7031C66.169 21.7138 65.4208 21.5712 64.7222 21.2834C64.0237 20.9957 63.389 20.5687 62.8558 20.0278ZM69.1608 14.5089C68.915 14.1099 68.5733 13.7809 68.1678 13.5528C67.7622 13.3247 67.3062 13.205 66.8426 13.205C66.379 13.205 65.923 13.3247 65.5175 13.5528C65.112 13.7809 64.7702 14.1099 64.5244 14.5089H69.1608ZM80.2971 16.0162L78.5602 21.6367H76.0649L72.221 10.3226H75.3686L77.3156 16.2051L79.0885 10.3226H81.5237L83.3305 16.2133L85.2655 10.3226H88.413L84.5691 21.6367H82.0339L80.2971 16.0162ZM99.5477 10.2008V21.6367H96.5462L96.5622 21.1654C95.8222 21.5448 95.0098 21.7565 94.1812 21.7856C93.3527 21.8147 92.5278 21.6606 91.7637 21.334C91.0859 21.0445 90.4702 20.6236 89.951 20.095C89.4316 19.5667 89.0171 18.9419 88.7302 18.2546C88.2883 17.1931 88.1683 16.0218 88.3858 14.8907C88.6033 13.7595 89.1482 12.72 89.951 11.905C90.4713 11.3778 91.0868 10.9571 91.7637 10.6659C92.5281 10.3391 93.3535 10.185 94.1824 10.2145C95.0114 10.2439 95.8241 10.4562 96.5642 10.8365L96.5462 10.2008H99.5477ZM96.322 17.373C96.5596 16.9562 96.6848 16.4834 96.6852 16.0019C96.6856 15.5204 96.5611 15.0474 96.3242 14.6302C96.0873 14.2131 95.7464 13.8667 95.3357 13.6258C94.9251 13.3849 94.4592 13.258 93.9849 13.2578C93.5105 13.2574 93.0444 13.3837 92.6333 13.6241C92.2223 13.8646 91.8809 14.2106 91.6434 14.6274C91.4058 15.0443 91.2806 15.5173 91.2803 15.9988C91.28 16.4804 91.4045 16.9536 91.6415 17.3707C91.8784 17.7879 92.2194 18.1345 92.6301 18.3755C93.0408 18.6165 93.5067 18.7435 93.9811 18.7437C94.4555 18.7439 94.9216 18.6174 95.3325 18.3767C95.7434 18.1361 96.0847 17.7899 96.322 17.373ZM104.821 20.554L100.363 10.3226H103.662L106.36 16.7333L108.867 10.3226H112.081L105.994 25.6585H102.806L104.821 20.554ZM111.138 19.785C111.139 19.5401 111.188 19.2979 111.282 19.0723C111.376 18.8467 111.513 18.6422 111.685 18.4704C111.857 18.2987 112.06 18.1632 112.284 18.0717C112.508 17.9802 112.747 17.9346 112.989 17.9373C113.471 17.9378 113.934 18.1327 114.274 18.4791C114.615 18.8256 114.807 19.2952 114.807 19.7849C114.807 20.2746 114.615 20.7442 114.274 21.0906C113.934 21.4371 113.471 21.6319 112.989 21.6324C112.747 21.6352 112.508 21.5896 112.284 21.4981C112.061 21.4067 111.857 21.2712 111.685 21.0995C111.513 20.9278 111.376 20.7233 111.282 20.4977C111.188 20.2721 111.139 20.0299 111.138 19.785ZM123.671 10.3511V13.1948H120.49V21.6367H117.488V10.3409C117.487 9.51651 117.647 8.70005 117.958 7.93827C118.268 7.17649 118.723 6.48432 119.298 5.90137C119.872 5.31841 120.554 4.85611 121.304 4.5409C122.055 4.22568 122.859 4.06375 123.671 4.06436V7.11126C122.828 7.11205 122.019 7.45256 121.422 8.05807C120.826 8.66359 120.49 9.48461 120.49 10.3409V10.3511L123.671 10.3511ZM141 15.2586V21.6367H137.998V15.2586C137.998 14.771 137.808 14.3034 137.468 13.9587C137.128 13.6139 136.668 13.4203 136.188 13.4203C135.707 13.4203 135.247 13.6139 134.907 13.9587C134.567 14.3034 134.377 14.771 134.377 15.2586V21.6367H131.375V15.2586C131.375 15.017 131.329 14.7777 131.238 14.5545C131.147 14.3313 131.014 14.1284 130.845 13.9575C130.677 13.7866 130.478 13.651 130.258 13.5585C130.038 13.466 129.802 13.4184 129.564 13.4184C129.326 13.4184 129.091 13.466 128.871 13.5585C128.651 13.651 128.451 13.7866 128.283 13.9575C128.115 14.1284 127.982 14.3313 127.891 14.5545C127.8 14.7777 127.753 15.017 127.753 15.2586V21.6367H124.752V10.2008H127.753V10.7309C128.61 10.3788 129.549 10.2842 130.457 10.4585C131.365 10.6328 132.205 11.0687 132.876 11.714C133.559 11.0563 134.416 10.6162 135.343 10.4483C136.269 10.2803 137.224 10.3919 138.088 10.7692C138.953 11.1464 139.69 11.7728 140.207 12.5707C140.725 13.3687 141 14.3032 141 15.2586ZM0 17.2381L22.8343 3.85529L22.8675 8.1325L0 21.5347V17.2381ZM16.4783 4.38789L16.4451 0L0 9.63816V14.0455L16.4783 4.38789ZM16.6599 14.9632L12.9943 17.1116L25.4365 24.4036V20.1071L16.6599 14.9632ZM25.4365 16.9145V9.81943L19.3835 13.3669L25.4365 16.9145ZM22.8343 26.0712L10.2706 18.7078L6.60505 20.8562L15.5016 26.0703L12.778 27.6666L3.88137 22.4525L0.154557 24.6366L12.7182 32L22.8343 26.0712Z" fill="currentColor"/>
</svg>
