<svg width="28" height="28" viewBox="0 0 28 28" fill="none" xmlns="http://www.w3.org/2000/svg">
<path d="M15.4964 12.2602V12.2931H15.4742C15.4774 12.2874 15.4816 12.2817 15.4858 12.2758C15.4895 12.2707 15.4933 12.2654 15.4964 12.2602Z" fill="white"/>
<path fill-rule="evenodd" clip-rule="evenodd" d="M28 14C28 21.732 21.732 28 14 28C6.26801 28 0 21.732 0 14C0 6.26801 6.26801 0 14 0C21.732 0 28 6.26801 28 14ZM22.3646 20.8988V15.1269C22.3646 12.0361 20.714 10.5976 18.5124 10.5976C16.7342 10.5976 15.9411 11.5759 15.4964 12.2602V10.8339H12.1495C12.1944 11.778 12.1495 20.8986 12.1495 20.8986H15.4962V15.2774C15.4962 14.9757 15.5189 14.677 15.607 14.4618C15.8495 13.8599 16.3988 13.2382 17.3235 13.2382C18.5351 13.2382 19.0183 14.1616 19.0183 15.5137V20.8988H22.3646ZM6.75496 7.72113C6.75496 6.73386 7.5039 5.98242 8.64865 5.98242C9.79364 5.98242 10.4972 6.73386 10.5194 7.72113C10.5194 8.68744 9.79364 9.46058 8.62644 9.46058H8.60472C7.48219 9.46058 6.75496 8.68744 6.75496 7.72113ZM10.2993 20.8988H6.95386V10.8339H10.2993V20.8988Z" fill="white"/>
</svg>
