<svg width="124" height="124" viewBox="0 0 124 124" fill="none" xmlns="http://www.w3.org/2000/svg">
<rect width="124" height="124" rx="28" fill="url(#paint0_linear_821_2231)"/>
<mask id="mask0_821_2231" style="mask-type:luminance" maskUnits="userSpaceOnUse" x="23" y="23" width="78" height="78">
<path d="M23.25 23.25H100.75V100.75H23.25V23.25Z" fill="white"/>
</mask>
<g mask="url(#mask0_821_2231)">
<path d="M98.7106 80.3553C98.7106 82.5189 97.8511 84.5939 96.3212 86.1238C94.7913 87.6537 92.7163 88.5132 90.5527 88.5132H33.4474C31.2838 88.5132 29.2088 87.6537 27.6789 86.1238C26.149 84.5939 25.2896 82.5189 25.2896 80.3553V43.6448C25.2896 41.4812 26.149 39.4062 27.6789 37.8763C29.2088 36.3464 31.2838 35.4869 33.4474 35.4869H90.5527C92.7163 35.4869 94.7913 36.3464 96.3212 37.8763C97.8511 39.4062 98.7106 41.4812 98.7106 43.6448V80.3553Z" fill="#D8DDE3"/>
<path d="M49.661 61.2576L26.5884 84.3302C26.5354 84.3873 26.513 84.4586 26.4661 84.5157C27.158 85.6771 28.1289 86.6473 29.2907 87.3384C29.3499 87.2915 29.4192 87.2711 29.4743 87.218L52.5489 64.1414C52.9313 63.7584 53.1459 63.2393 53.1456 62.6981C53.1452 62.1568 52.9298 61.638 52.5469 61.2555C52.1639 60.8731 51.6447 60.6585 51.1035 60.6589C50.5623 60.6593 50.0434 60.8746 49.661 61.2576ZM97.5336 84.5157C97.4907 84.4586 97.4663 84.3873 97.4112 84.3322L74.3407 61.2576C74.1513 61.0681 73.9265 60.9178 73.679 60.8152C73.4316 60.7126 73.1663 60.6597 72.8985 60.6596C72.6306 60.6595 72.3653 60.7122 72.1178 60.8146C71.8703 60.917 71.6453 61.0672 71.4558 61.2566C71.2663 61.4459 71.116 61.6707 71.0134 61.9182C70.9108 62.1657 70.858 62.4309 70.8579 62.6988C70.8578 62.9667 70.9104 63.2319 71.0129 63.4795C71.1153 63.727 71.2655 63.9519 71.4548 64.1414L94.5274 87.216C94.5825 87.2711 94.6538 87.2915 94.7109 87.3384C95.8755 86.645 96.8401 85.6782 97.5336 84.5157Z" fill="#99AAB5"/>
<path d="M90.5527 35.4869H33.4474C31.2838 35.4869 29.2088 36.3464 27.6789 37.8763C26.149 39.4062 25.2896 41.4812 25.2896 43.6448V45.7454L54.917 75.3076C56.7826 77.1629 59.3068 78.2043 61.9379 78.2043C64.569 78.2043 67.0931 77.1629 68.9588 75.3076L98.7106 45.7026V43.6448C98.7106 41.4812 97.8511 39.4062 96.3212 37.8763C94.7913 36.3464 92.7163 35.4869 90.5527 35.4869Z" fill="#99AAB5"/>
<path d="M90.5526 35.4868H33.4474C31.9121 35.4902 30.4092 35.9277 29.1118 36.7486C27.8145 37.5696 26.7758 38.7406 26.1155 40.1266L56.2303 70.2435C56.9879 71.0011 57.8872 71.602 58.877 72.012C59.8668 72.422 60.9277 72.6331 61.999 72.6331C63.0703 72.6331 64.1312 72.422 65.121 72.012C66.1108 71.602 67.0101 71.0011 67.7676 70.2435L97.8846 40.1266C97.2244 38.7405 96.1857 37.5693 94.8884 36.7483C93.591 35.9273 92.0879 35.49 90.5526 35.4868Z" fill="white"/>
<path d="M80.3554 59.5116C80.3556 58.1761 80.0928 56.8535 79.5819 55.6196C79.071 54.3856 78.322 53.2644 77.3777 52.3199C76.4334 51.3754 75.3123 50.6262 74.0784 50.115C72.8446 49.6039 71.5221 49.3408 70.1865 49.3408C68.5694 49.3409 66.9757 49.7273 65.5379 50.4676C64.1002 51.2079 62.86 52.2809 61.9206 53.5972C60.9815 52.2814 59.742 51.2088 58.305 50.4685C56.868 49.7282 55.2751 49.3416 53.6586 49.3408C52.323 49.3408 51.0004 49.6039 49.7664 50.115C48.5324 50.6261 47.4112 51.3753 46.4668 52.3198C45.5223 53.2642 44.7731 54.3854 44.262 55.6194C43.7509 56.8534 43.4878 58.176 43.4878 59.5116C43.4878 60.3091 43.5898 61.08 43.7611 61.8224C45.1744 70.5962 54.9292 79.8533 61.9206 82.3945C68.9119 79.8533 78.6687 70.5962 80.08 61.8244C80.2534 61.08 80.3554 60.3091 80.3554 59.5116Z" fill="url(#paint1_linear_821_2231)"/>
</g>
<defs>
<linearGradient id="paint0_linear_821_2231" x1="86.2539" y1="-35.1333" x2="14.7948" y2="-25.9664" gradientUnits="userSpaceOnUse">
<stop stop-color="#FF721B"/>
<stop offset="1" stop-color="#EE6512"/>
</linearGradient>
<linearGradient id="paint1_linear_821_2231" x1="69.1327" y1="91.7598" x2="47.9702" y2="88.7318" gradientUnits="userSpaceOnUse">
<stop stop-color="#FF721B"/>
<stop offset="1" stop-color="#EE6512"/>
</linearGradient>
</defs>
</svg>
