<svg width="148" height="38" viewBox="0 0 148 38" fill="none" xmlns="http://www.w3.org/2000/svg">
<path d="M40.1296 34.2823H30.9741L20.6586 24.2137L14.1874 17.8963L2.324 6.3164L2.30225 6.29517V0H4.99537L11.4686 6.3164L23.3359 17.8963L29.0821 23.5034L29.637 24.0448L40.1296 34.2823Z" fill="currentColor"/>
<path d="M24.8916 0H2.30225V6.3164H24.8916C28.1623 6.3164 30.8258 8.91245 30.8258 12.1068C30.8258 15.3012 28.1633 17.8973 24.8916 17.8973H14.1874L20.6586 24.2137H24.8926C25.5958 24.2137 26.2862 24.1567 26.9597 24.0448C27.6916 23.9251 28.4007 23.7418 29.0831 23.5034C33.869 21.8232 37.3 17.3491 37.3 12.1059C37.299 5.43047 31.7337 0 24.8916 0Z" fill="currentColor"/>
<path d="M19.3214 28.3382C13.9649 28.3266 9.62897 24.0803 9.63984 18.8544C9.64182 18.1364 9.72787 17.4386 9.88414 16.7669L5.24955 12.2427C4.65416 13.4461 4.21503 14.7374 3.95887 16.0914L0.21046 16.0846C0.0749632 16.9821 0.00177514 17.9009 -0.00020291 18.8341C-0.00218096 19.7693 0.0670509 20.6861 0.199581 21.5846L3.94799 21.5913C4.34855 23.7599 5.21791 25.7691 6.45122 27.5159L3.79371 30.0994C4.91922 31.5789 6.26034 32.8933 7.77256 33.9964L10.4281 31.4148C12.2133 32.625 14.2705 33.481 16.4908 33.8806L16.4839 37.5372C17.4037 37.6704 18.3453 37.7418 19.3026 37.7438C20.26 37.7457 21.2016 37.6772 22.1214 37.5479L22.1283 33.8912C23.5367 33.6441 24.8788 33.2118 26.1289 32.6231L21.4943 28.0998C20.7951 28.2552 20.0681 28.3391 19.3204 28.3372L19.3214 28.3382Z" fill="currentColor"/>
<mask id="mask0_809_2805" style="mask-type:luminance" maskUnits="userSpaceOnUse" x="-1" y="12" width="28" height="26">
<path d="M19.3214 28.3382C13.9649 28.3266 9.62897 24.0803 9.63984 18.8544C9.64182 18.1364 9.72787 17.4386 9.88414 16.7669L5.24955 12.2427C4.65416 13.4461 4.21503 14.7374 3.95887 16.0914L0.21046 16.0846C0.0749632 16.9821 0.00177514 17.9009 -0.00020291 18.8341C-0.00218096 19.7693 0.0670509 20.6861 0.199581 21.5846L3.94799 21.5913C4.34855 23.7599 5.21791 25.7691 6.45122 27.5159L3.79371 30.0994C4.91922 31.5789 6.26034 32.8933 7.77256 33.9964L10.4281 31.4148C12.2133 32.625 14.2705 33.481 16.4908 33.8806L16.4839 37.5372C17.4037 37.6704 18.3453 37.7418 19.3026 37.7438C20.26 37.7457 21.2016 37.6772 22.1214 37.5479L22.1283 33.8912C23.5367 33.6441 24.8788 33.2118 26.1289 32.6231L21.4943 28.0998C20.7951 28.2552 20.0681 28.3391 19.3204 28.3372L19.3214 28.3382Z" fill="currentColor"/>
</mask>
<g mask="url(#mask0_809_2805)">
<path d="M7.77148 33.9966C7.77148 33.9966 7.77247 33.9966 7.77346 33.9976L10.427 31.4189C10.427 31.4189 10.426 31.4189 10.425 31.418L7.77148 33.9966Z" fill="currentColor"/>
<path d="M7.77148 33.9966C7.77148 33.9966 7.77247 33.9966 7.77346 33.9976L10.427 31.4189C10.427 31.4189 10.426 31.4189 10.425 31.418L7.77148 33.9966Z" fill="currentColor"/>
<path d="M4.19141 15.0724C4.20822 15.0058 4.22701 14.9401 4.2458 14.8745C4.22701 14.9401 4.20921 15.0067 4.19141 15.0724Z" fill="currentColor"/>
<path d="M4.19141 15.0724C4.20822 15.0058 4.22701 14.9401 4.2458 14.8745C4.22701 14.9401 4.20921 15.0067 4.19141 15.0724Z" fill="currentColor"/>
<path d="M3.98267 15.9746C4.01728 15.7971 4.05585 15.6205 4.09739 15.4448C4.05585 15.6205 4.01827 15.7971 3.98267 15.9746Z" fill="currentColor"/>
<path d="M3.98267 15.9746C4.01728 15.7971 4.05585 15.6205 4.09739 15.4448C4.05585 15.6205 4.01827 15.7971 3.98267 15.9746Z" fill="currentColor"/>
<path d="M3.95883 16.0914C3.96674 16.0518 3.97564 16.0132 3.98356 15.9746C3.97663 16.0084 3.96773 16.0422 3.9618 16.0759L0.211408 16.0692C0.0709658 16.9831 0.00173391 17.9048 -0.000244141 18.8274C0.00173391 17.8961 0.0749219 16.9793 0.210419 16.0837L3.95883 16.0904V16.0914Z" fill="currentColor"/>
<path d="M3.95883 16.0914C3.96674 16.0518 3.97564 16.0132 3.98356 15.9746C3.97663 16.0084 3.96773 16.0422 3.9618 16.0759L0.211408 16.0692C0.0709658 16.9831 0.00173391 17.9048 -0.000244141 18.8274C0.00173391 17.8961 0.0749219 16.9793 0.210419 16.0837L3.95883 16.0904V16.0914Z" fill="currentColor"/>
<path d="M4.09741 15.4438C4.12708 15.3193 4.15774 15.1948 4.19038 15.0713C4.15774 15.1948 4.12609 15.3193 4.09741 15.4438Z" fill="currentColor"/>
<path d="M4.09741 15.4438C4.12708 15.3193 4.15774 15.1948 4.19038 15.0713C4.15774 15.1948 4.12609 15.3193 4.09741 15.4438Z" fill="currentColor"/>
<path d="M22.1184 37.5498C22.0036 37.5662 21.8879 37.5778 21.7722 37.5923C21.8869 37.5778 22.0027 37.5662 22.1184 37.5498Z" fill="currentColor"/>
<path d="M22.1184 37.5498C22.0036 37.5662 21.8879 37.5778 21.7722 37.5923C21.8869 37.5778 22.0027 37.5662 22.1184 37.5498Z" fill="currentColor"/>
<path d="M21.4212 37.6357C21.3421 37.6444 21.261 37.6493 21.1819 37.657C21.262 37.6493 21.3421 37.6444 21.4212 37.6357Z" fill="currentColor"/>
<path d="M21.4212 37.6357C21.3421 37.6444 21.261 37.6493 21.1819 37.657C21.262 37.6493 21.3421 37.6444 21.4212 37.6357Z" fill="currentColor"/>
<path d="M20.0079 37.7334C19.814 37.7402 19.6182 37.7421 19.4224 37.743C19.6172 37.743 19.813 37.7402 20.0079 37.7334Z" fill="currentColor"/>
<path d="M20.0079 37.7334C19.814 37.7402 19.6182 37.7421 19.4224 37.743C19.6172 37.743 19.813 37.7402 20.0079 37.7334Z" fill="currentColor"/>
<path d="M19.3007 37.7449C19.0624 37.7449 18.825 37.7401 18.5886 37.7305C18.826 37.7392 19.0634 37.744 19.3007 37.7449Z" fill="currentColor"/>
<path d="M19.3007 37.7449C19.0624 37.7449 18.825 37.7401 18.5886 37.7305C18.826 37.7392 19.0634 37.744 19.3007 37.7449Z" fill="currentColor"/>
<path d="M16.4819 37.5404C17.1466 37.6369 17.8161 37.6977 18.4867 37.7257C17.8092 37.6968 17.1396 37.634 16.4819 37.5404Z" fill="currentColor"/>
<path d="M16.4819 37.5404C17.1466 37.6369 17.8161 37.6977 18.4867 37.7257C17.8092 37.6968 17.1396 37.634 16.4819 37.5404Z" fill="currentColor"/>
<path d="M3.79473 30.1003L6.45224 27.5168C6.01509 26.8982 5.62739 26.2458 5.28618 25.5664C5.2842 25.5664 5.28222 25.5664 5.28025 25.5664C5.61652 26.2381 6.00322 26.8914 6.44631 27.5187L3.79077 30.1003C4.34562 30.828 4.9598 31.5296 5.63531 32.1907C6.3118 32.8537 7.02489 33.4539 7.76963 33.9973L7.77161 33.9954C6.26037 32.8932 4.91925 31.5788 3.79473 30.0994V30.1003Z" fill="currentColor"/>
<path d="M3.79473 30.1003L6.45224 27.5168C6.01509 26.8982 5.62739 26.2458 5.28618 25.5664C5.2842 25.5664 5.28222 25.5664 5.28025 25.5664C5.61652 26.2381 6.00322 26.8914 6.44631 27.5187L3.79077 30.1003C4.34562 30.828 4.9598 31.5296 5.63531 32.1907C6.3118 32.8537 7.02489 33.4539 7.76963 33.9973L7.77161 33.9954C6.26037 32.8932 4.91925 31.5788 3.79473 30.0994V30.1003Z" fill="currentColor"/>
<path d="M7.74292 37.328L7.75387 37.2959L7.74292 37.3066V37.328Z" fill="currentColor"/>
<path d="M15.7283 33.7236C15.9795 33.7815 16.2317 33.8365 16.4878 33.8829V33.8809C16.2337 33.8356 15.9805 33.7825 15.7283 33.7246V33.7236Z" fill="currentColor"/>
<path d="M15.7283 33.7236C15.9795 33.7815 16.2317 33.8365 16.4878 33.8829V33.8809C16.2337 33.8356 15.9805 33.7825 15.7283 33.7246V33.7236Z" fill="currentColor"/>
<path d="M19.3006 37.7451C19.3414 37.7451 19.3822 37.7432 19.423 37.7432C19.3822 37.7432 19.3414 37.7451 19.2996 37.7451H19.3006Z" fill="currentColor"/>
<path d="M19.3006 37.7451C19.3414 37.7451 19.3822 37.7432 19.423 37.7432C19.3822 37.7432 19.3414 37.7451 19.2996 37.7451H19.3006Z" fill="currentColor"/>
<path d="M14.2498 33.3066C14.4466 33.3732 14.6464 33.435 14.8471 33.4939C14.6473 33.436 14.4485 33.3723 14.2507 33.3057H14.2498V33.3066Z" fill="currentColor"/>
<path d="M14.2498 33.3066C14.4466 33.3732 14.6464 33.435 14.8471 33.4939C14.6473 33.436 14.4485 33.3723 14.2507 33.3057H14.2498V33.3066Z" fill="currentColor"/>
<path d="M18.5891 37.7314C18.5553 37.7304 18.5204 37.7275 18.4866 37.7256C18.5214 37.7275 18.5553 37.7295 18.5891 37.7314Z" fill="currentColor"/>
<path d="M18.5891 37.7314C18.5553 37.7304 18.5204 37.7275 18.4866 37.7256C18.5214 37.7275 18.5553 37.7295 18.5891 37.7314Z" fill="currentColor"/>
<path d="M15.6313 33.7002C15.4246 33.651 15.2189 33.597 15.0142 33.54C15.2179 33.5979 15.4236 33.651 15.6313 33.7002Z" fill="currentColor"/>
<path d="M15.6313 33.7002C15.4246 33.651 15.2189 33.597 15.0142 33.54C15.2179 33.5979 15.4236 33.651 15.6313 33.7002Z" fill="currentColor"/>
<path d="M20.5033 37.708C20.3381 37.7177 20.173 37.7283 20.0078 37.7331C20.174 37.7273 20.3381 37.7177 20.5033 37.708Z" fill="currentColor"/>
<path d="M20.5033 37.708C20.3381 37.7177 20.173 37.7283 20.0078 37.7331C20.174 37.7273 20.3381 37.7177 20.5033 37.708Z" fill="currentColor"/>
<path d="M21.1809 37.6572C21.0256 37.6717 20.8704 37.6871 20.7151 37.6978C20.8714 37.6871 21.0256 37.6717 21.1809 37.6572Z" fill="currentColor"/>
<path d="M21.1809 37.6572C21.0256 37.6717 20.8704 37.6871 20.7151 37.6978C20.8714 37.6871 21.0256 37.6717 21.1809 37.6572Z" fill="currentColor"/>
</g>
<path d="M45.8333 5.56466C45.8333 5.4006 45.9678 5.25391 46.1517 5.25391H50.4945C52.5062 5.25391 54.15 6.79127 54.15 8.73879C54.15 10.2443 53.1263 11.5037 51.6685 12.076L53.965 16.2316C54.0827 16.4439 53.965 16.7064 53.6802 16.7064H52.8247C52.6743 16.7064 52.5903 16.6244 52.5567 16.5597L50.3264 12.2237H47.1239V16.3957C47.1239 16.5597 46.9736 16.7064 46.8065 16.7064H46.1527C45.9687 16.7064 45.8342 16.5597 45.8342 16.3957V5.56466H45.8333ZM50.4105 11.1437C51.7011 11.1437 52.8247 10.0966 52.8247 8.75519C52.8247 7.51218 51.7011 6.44867 50.4105 6.44867H47.1576V11.1437H50.4105Z" fill="currentColor"/>
<path d="M65.2479 5.6795C65.148 5.46719 65.2815 5.25391 65.5327 5.25391H66.2033C66.3536 5.25391 66.4555 5.35234 66.4881 5.43341L70.6628 14.5958H70.7301L74.9048 5.43341C74.9384 5.35234 75.0551 5.25391 75.1896 5.25391H75.8602C76.1124 5.25391 76.2459 5.46622 76.145 5.6795L71.0476 16.69C70.9971 16.7885 70.8972 16.8705 70.7627 16.8705H70.5946C70.4769 16.8705 70.3602 16.7885 70.3097 16.69L65.2459 5.6795H65.2479Z" fill="currentColor"/>
<path d="M77.9717 5.56466C77.9717 5.4006 78.122 5.25391 78.2901 5.25391H78.9607C79.1288 5.25391 79.2792 5.4006 79.2792 5.56466V16.3957C79.2792 16.5597 79.1288 16.7064 78.9607 16.7064H78.2901C78.122 16.7064 77.9717 16.5597 77.9717 16.3957V5.56466Z" fill="currentColor"/>
<path d="M84.3589 6.35024H81.4422C81.2573 6.35024 81.1238 6.20355 81.1238 6.03949V5.56564C81.1238 5.40157 81.2573 5.25488 81.4422 5.25488H88.5514C88.7353 5.25488 88.8698 5.40157 88.8698 5.56564V6.03949C88.8698 6.20355 88.7353 6.35024 88.5514 6.35024H85.6337V16.3957C85.6337 16.5597 85.4834 16.7064 85.3153 16.7064H84.6783C84.5102 16.7064 84.3599 16.5597 84.3599 16.3957V6.35024H84.3589Z" fill="currentColor"/>
<path d="M92.7754 6.35024H89.8587C89.6738 6.35024 89.5403 6.20355 89.5403 6.03949V5.56564C89.5403 5.40157 89.6738 5.25488 89.8587 5.25488H96.9679C97.1518 5.25488 97.2863 5.40157 97.2863 5.56564V6.03949C97.2863 6.20355 97.1518 6.35024 96.9679 6.35024H94.0502V16.3957C94.0502 16.5597 93.8999 16.7064 93.7318 16.7064H93.0948C92.9267 16.7064 92.7764 16.5597 92.7764 16.3957V6.35024H92.7754Z" fill="currentColor"/>
<path d="M51.0306 20.7671C52.7248 20.7671 53.9483 21.3403 55.0886 22.289C55.2231 22.4203 55.2389 22.6162 55.1054 22.7474L54.6525 23.1894C54.518 23.3535 54.3844 23.3371 54.2163 23.173C53.345 22.4367 52.1542 21.9454 51.0138 21.9454C48.3642 21.9454 46.3357 24.1217 46.3357 26.6569C46.3357 29.1922 48.3642 31.352 51.0138 31.352C52.4726 31.352 53.3272 30.7797 54.2163 30.1244C54.3844 29.9932 54.518 30.0096 54.6188 30.0752L55.1213 30.5172C55.2558 30.6157 55.2221 30.8444 55.1044 30.9592C53.9641 32.0391 52.5221 32.5468 51.0297 32.5468C47.6769 32.5468 44.9768 29.9449 44.9768 26.6733C44.9768 23.4017 47.6769 20.7671 51.0297 20.7671H51.0306Z" fill="currentColor"/>
<path d="M62.8 20.7671C66.1538 20.7671 68.836 23.4008 68.836 26.6733C68.836 29.9459 66.1538 32.5468 62.8 32.5468C59.4462 32.5468 56.7808 29.9449 56.7808 26.6733C56.7808 23.4017 59.4472 20.7671 62.8 20.7671ZM62.8 31.4012C65.4664 31.4012 67.663 29.2742 67.663 26.6724C67.663 24.0705 65.4664 21.9117 62.8 21.9117C60.1336 21.9117 57.9547 24.0715 57.9547 26.6724C57.9547 29.2732 60.1346 31.4012 62.8 31.4012Z" fill="currentColor"/>
<path d="M71.4006 21.0624C71.4006 20.8984 71.551 20.7681 71.7191 20.7681H72.1385L79.7005 29.9623H79.7342V21.2419C79.7342 21.0779 79.8687 20.9312 80.0526 20.9312H80.6401C80.8073 20.9312 80.9576 21.0779 80.9576 21.2419V32.2524C80.9576 32.4155 80.8073 32.5468 80.6401 32.5468H80.3375L72.6419 23.1721H72.6251V32.072C72.6251 32.236 72.4915 32.3827 72.3066 32.3827H71.7201C71.552 32.3827 71.4016 32.236 71.4016 32.072V21.0614L71.4006 21.0624Z" fill="currentColor"/>
<path d="M83.621 30.6658C83.7051 30.5674 83.7892 30.4535 83.8732 30.3551C84.0404 30.1428 84.2253 30.0115 84.4597 30.2074C84.5774 30.3059 85.8008 31.4504 87.2933 31.4504C88.6512 31.4504 89.5394 30.6156 89.5394 29.6506C89.5394 28.5214 88.5335 27.8507 86.6049 27.0651C84.7604 26.2796 83.6537 25.5442 83.6537 23.6787C83.6537 22.566 84.5586 20.7661 87.225 20.7661C88.8688 20.7661 90.0922 21.6009 90.0922 21.6009C90.1931 21.6501 90.3949 21.846 90.1931 22.1568C90.1259 22.2552 90.0586 22.3691 89.9923 22.4675C89.841 22.6963 89.6739 22.7619 89.4049 22.6152C89.2872 22.5496 88.2319 21.8624 87.2092 21.8624C85.4319 21.8624 84.8949 22.9752 84.8949 23.6623C84.8949 24.7586 85.7494 25.3965 87.1588 25.9688C89.4227 26.8683 90.8805 27.7031 90.8805 29.6004C90.8805 31.3018 89.2209 32.5458 87.2587 32.5458C85.2964 32.5458 83.9395 31.4167 83.7209 31.2207C83.5874 31.1059 83.4193 30.9756 83.621 30.6649V30.6658Z" fill="currentColor"/>
<path d="M93.1611 21.2419C93.1611 21.0778 93.3115 20.9312 93.4796 20.9312H94.1165C94.3005 20.9312 94.435 21.0778 94.435 21.2419V28.064C94.435 29.9295 95.6258 31.3848 97.587 31.3848C99.5483 31.3848 100.773 29.9613 100.773 28.0968V21.2419C100.773 21.0778 100.907 20.9312 101.091 20.9312H101.728C101.896 20.9312 102.047 21.0778 102.047 21.2419V28.1624C102.047 30.6494 100.236 32.5468 97.5861 32.5468C94.9364 32.5468 93.1602 30.6485 93.1602 28.1624V21.2419H93.1611Z" fill="currentColor"/>
<path d="M105.315 21.2419C105.315 21.0778 105.45 20.9312 105.634 20.9312H106.288C106.456 20.9312 106.606 21.0778 106.606 21.2419V31.2874H111.436C111.619 31.2874 111.754 31.434 111.754 31.5981V32.072C111.754 32.236 111.619 32.3827 111.436 32.3827H105.634C105.45 32.3827 105.315 32.236 105.315 32.072V21.2409V21.2419Z" fill="currentColor"/>
<path d="M114.47 22.0275H111.553C111.368 22.0275 111.235 21.8808 111.235 21.7167V21.2429C111.235 21.0788 111.368 20.9321 111.553 20.9321H118.662C118.846 20.9321 118.981 21.0788 118.981 21.2429V21.7167C118.981 21.8808 118.846 22.0275 118.662 22.0275H115.745V32.0729C115.745 32.237 115.594 32.3837 115.426 32.3837H114.789C114.621 32.3837 114.471 32.237 114.471 32.0729V22.0275H114.47Z" fill="currentColor"/>
<path d="M120.823 21.2419C120.823 21.0778 120.974 20.9312 121.142 20.9312H121.812C121.98 20.9312 122.131 21.0778 122.131 21.2419V32.0729C122.131 32.237 121.98 32.3837 121.812 32.3837H121.142C120.974 32.3837 120.823 32.237 120.823 32.0729V21.2419Z" fill="currentColor"/>
<path d="M125.551 21.0624C125.551 20.8984 125.701 20.7681 125.869 20.7681H126.289L133.851 29.9623H133.884V21.2419C133.884 21.0779 134.019 20.9312 134.203 20.9312H134.79C134.957 20.9312 135.108 21.0779 135.108 21.2419V32.2524C135.108 32.4155 134.957 32.5468 134.79 32.5468H134.488L126.792 23.1721H126.775V32.072C126.775 32.236 126.642 32.3827 126.457 32.3827H125.87C125.702 32.3827 125.552 32.236 125.552 32.072V21.0614L125.551 21.0624Z" fill="currentColor"/>
<path d="M143.724 20.7671C145.418 20.7671 146.642 21.3403 147.782 22.289C147.917 22.4203 147.933 22.6162 147.799 22.7474C147.648 22.8941 147.464 23.0582 147.329 23.2058C147.179 23.3699 147.078 23.3535 146.893 23.1894C146.039 22.4531 144.831 21.9136 143.708 21.9136C141.059 21.9136 139.047 24.0734 139.047 26.6087C139.047 29.1439 141.059 31.3366 143.708 31.3366C145.552 31.3366 146.726 30.6494 146.726 30.6494V28.3593H144.797C144.613 28.3593 144.479 28.2281 144.479 28.065V27.4599C144.479 27.2794 144.613 27.1491 144.797 27.1491H147.698C147.866 27.1491 148.001 27.2958 148.001 27.4599V31.2063C148.001 31.2883 147.934 31.4186 147.866 31.4678C147.866 31.4678 146.156 32.5477 143.725 32.5477C140.372 32.5477 137.672 29.9459 137.672 26.6743C137.672 23.4027 140.372 20.7681 143.725 20.7681L143.724 20.7671Z" fill="currentColor"/>
<path d="M63.8078 5.2373H60.7764C60.5825 5.2373 60.4253 5.39069 60.4253 5.57991V6.00647C60.4253 6.19568 60.5825 6.34907 60.7764 6.34907H63.8078C64.0017 6.34907 64.1589 6.19568 64.1589 6.00647V5.57991C64.1589 5.39069 64.0017 5.2373 63.8078 5.2373Z" fill="currentColor"/>
<path d="M62.976 10.334H58.4957C58.2969 10.334 58.1357 10.4913 58.1357 10.6853V11.0945C58.1357 11.2885 58.2969 11.4457 58.4957 11.4457H62.976C63.1749 11.4457 63.336 11.2885 63.336 11.0945V10.6853C63.336 10.4913 63.1749 10.334 62.976 10.334Z" fill="currentColor"/>
<path d="M63.8078 15.6021H60.7764C60.5825 15.6021 60.4253 15.7554 60.4253 15.9447V16.3712C60.4253 16.5604 60.5825 16.7138 60.7764 16.7138H63.8078C64.0017 16.7138 64.1589 16.5604 64.1589 16.3712V15.9447C64.1589 15.7554 64.0017 15.6021 63.8078 15.6021Z" fill="currentColor"/>
<path d="M56.9452 12.177C56.9452 11.6877 56.4437 11.3721 56.1757 11.3287C56.0867 11.3181 56.0085 11.2303 56.0085 11.1434V10.8056C56.0085 10.7188 56.0867 10.6532 56.1757 10.6425C56.4437 10.5991 56.9452 10.2835 56.9452 9.79425V8.04264C56.9452 6.06231 58.5286 5.43115 59.6778 5.43115C59.7886 5.43115 59.9004 5.4852 59.9004 5.61645V5.82297C59.9004 5.92044 59.845 6.00827 59.756 6.01888C58.6967 6.17136 57.7156 6.86718 57.7156 8.04264V9.49025C57.7156 10.5789 57.1578 10.8172 56.8344 10.9485V11.0247C57.1578 11.155 57.7156 11.3953 57.7156 12.4829V13.9305C57.7156 15.105 58.6967 15.7912 59.756 15.9437C59.845 15.9543 59.9004 16.0084 59.9004 16.128V16.3461C59.9004 16.4552 59.7886 16.5314 59.6778 16.5314C58.5286 16.5314 56.9452 15.9109 56.9452 13.9305V12.1789V12.177Z" fill="currentColor"/>
<path d="M59.6779 16.7227C58.2201 16.7227 56.7484 15.8589 56.7484 13.9297V12.1781C56.7484 11.8153 56.3488 11.5528 56.1441 11.52C55.9641 11.4978 55.8118 11.3289 55.8118 11.1445V10.8068C55.8118 10.6292 55.9581 10.4767 56.152 10.4526C56.3498 10.4207 56.7494 10.1582 56.7494 9.79537V8.04376C56.7494 6.10686 58.221 5.23926 59.6789 5.23926C59.9222 5.23926 60.0992 5.39849 60.0992 5.61757V5.82409C60.0992 6.02676 59.9657 6.18889 59.7807 6.21109C58.9223 6.33462 57.9135 6.88953 57.9135 8.04376V9.49137C57.9135 10.4111 57.5347 10.7961 57.2083 10.9872C57.5347 11.1783 57.9135 11.5634 57.9135 12.4841V13.9317C57.9135 15.0782 58.9223 15.6302 59.7857 15.7537C59.9775 15.7769 60.0992 15.9207 60.0992 16.1291V16.3472C60.0992 16.5557 59.9113 16.7256 59.6789 16.7256L59.6779 16.7227ZM59.7036 5.61564C58.5088 5.62336 57.143 6.25644 57.143 8.04183V9.79344C57.143 10.3648 56.5901 10.7701 56.2084 10.8319L56.2064 11.1426C56.5911 11.1995 57.143 11.6049 57.143 12.1762V13.9278C57.143 15.7055 58.5088 16.3357 59.6779 16.3357L59.7036 16.1253C58.6275 15.9728 57.5178 15.2307 57.5178 13.9278V12.4802C57.5178 11.5064 57.0421 11.3144 56.7593 11.2005L56.6376 11.1513V10.8174L56.7593 10.7682C57.0431 10.6533 57.5178 10.4622 57.5178 9.48847V8.04086C57.5178 6.7303 58.6275 5.98429 59.7273 5.82602L59.7036 5.61467V5.61564Z" fill="currentColor"/>
</svg>
