<svg viewBox="0 0 24 24" fill="none" xmlns="http://www.w3.org/2000/svg">
    <path d="M3.35288 8.95043C4.00437 6.17301 6.17301 4.00437 8.95043 3.35288C10.9563 2.88237 13.0437 2.88237 15.0496 3.35288C17.827 4.00437 19.9956 6.17301 20.6471 8.95043C21.1176 10.9563 21.1176 13.0437 20.6471 15.0496C19.9956 17.827 17.827 19.9956 15.0496 20.6471C13.0437 21.1176 10.9563 21.1176 8.95043 20.6471C6.17301 19.9956 4.00437 17.827 3.35288 15.0496C2.88237 13.0437 2.88237 10.9563 3.35288 8.95043Z" fill="#FF8831" fill-opacity="0.2"/>
    <path fill-rule="evenodd" clip-rule="evenodd" d="M14.911 3.93705C12.9953 3.48768 11.0016 3.48768 9.08589 3.93705C6.53032 4.5365 4.53492 6.53191 3.93546 9.08748C3.4861 11.0032 3.4861 12.9969 3.93546 14.9126C4.53492 17.4681 6.53033 19.4635 9.08589 20.063C11.0016 20.5124 12.9953 20.5124 14.911 20.063C17.4666 19.4635 19.462 17.4681 20.0614 14.9126C20.5108 12.9969 20.5108 11.0032 20.0614 9.08748C19.462 6.53191 17.4666 4.5365 14.911 3.93705ZM8.81185 2.76876C10.9078 2.27711 13.0891 2.27711 15.185 2.76876C18.1843 3.47229 20.5262 5.81416 21.2297 8.81344C21.7213 10.9094 21.7213 13.0907 21.2297 15.1866C20.5262 18.1859 18.1843 20.5278 15.185 21.2313C13.0891 21.7229 10.9078 21.7229 8.81185 21.2313C5.81257 20.5278 3.47071 18.1859 2.76717 15.1866C2.27553 13.0907 2.27553 10.9094 2.76717 8.81343C3.47071 5.81415 5.81257 3.47229 8.81185 2.76876Z" fill="#FF8831"/>
    <path fill-rule="evenodd" clip-rule="evenodd" d="M7.53752 9.11587C7.74966 8.8613 8.128 8.82691 8.38256 9.03905L10.4607 10.7708C11.2283 11.4105 11.2283 12.5895 10.4607 13.2291L8.38256 14.9609C8.128 15.173 7.74966 15.1387 7.53752 14.8841C7.32538 14.6295 7.35978 14.2512 7.61434 14.039L9.69248 12.3073C9.88438 12.1473 9.88438 11.8526 9.69248 11.6927L7.61434 9.96091C7.35978 9.74877 7.32538 9.37043 7.53752 9.11587Z" fill="#FF8831"/>
    <path fill-rule="evenodd" clip-rule="evenodd" d="M11.8984 14.5C11.8984 14.1687 12.1671 13.9 12.4984 13.9H15.9984C16.3298 13.9 16.5984 14.1687 16.5984 14.5C16.5984 14.8314 16.3298 15.1 15.9984 15.1H12.4984C12.1671 15.1 11.8984 14.8314 11.8984 14.5Z" fill="#FF8831"/>
</svg>
