<svg viewBox="0 0 46 20" fill="none" xmlns="http://www.w3.org/2000/svg">
    <path d="M0.812348 0.800361C0.596717 0.627857 0.28207 0.662817 0.109566 0.878448C-0.0629392 1.09408 -0.0279785 1.40873 0.187652 1.58123L0.812348 0.800361ZM23 19.1908L22.6877 19.5812L23 19.8311L23.3123 19.5812L23 19.1908ZM45.8123 1.58123C46.028 1.40873 46.0629 1.09408 45.8904 0.878448C45.7179 0.662817 45.4033 0.627857 45.1877 0.800361L45.8123 1.58123ZM0.187652 1.58123L22.6877 19.5812L23.3123 18.8004L0.812348 0.800361L0.187652 1.58123ZM23.3123 19.5812L45.8123 1.58123L45.1877 0.800361L22.6877 18.8004L23.3123 19.5812Z" fill="#E1E7F4"/>
</svg>
