<svg viewBox="0 0 24 24" fill="none" xmlns="http://www.w3.org/2000/svg">
    <path d="M3.35288 8.95043C4.00437 6.17301 6.17301 4.00437 8.95043 3.35288C10.9563 2.88237 13.0437 2.88237 15.0496 3.35288C17.827 4.00437 19.9956 6.17301 20.6471 8.95044C21.1176 10.9563 21.1176 13.0437 20.6471 15.0496C19.9956 17.827 17.827 19.9956 15.0496 20.6471C13.0437 21.1176 10.9563 21.1176 8.95044 20.6471C6.17301 19.9956 4.00437 17.827 3.35288 15.0496C2.88237 13.0437 2.88237 10.9563 3.35288 8.95043Z" fill="#FF8831" fill-opacity="0.2"/>
    <path fill-rule="evenodd" clip-rule="evenodd" d="M14.911 3.93705C12.9953 3.48768 11.0016 3.48768 9.08589 3.93705C6.53032 4.5365 4.53492 6.53191 3.93546 9.08748C3.4861 11.0032 3.4861 12.9969 3.93546 14.9126C4.0694 15.4836 4.27303 16.0266 4.53702 16.5324L6.03116 15.0382C7.89048 13.1789 10.905 13.1789 12.7644 15.0382L14.079 16.3529L14.3591 16.0728C15.8395 14.5924 18.2304 14.6341 19.6611 16.113C19.8291 15.7301 19.9638 15.3288 20.0614 14.9126C20.5108 12.9969 20.5108 11.0032 20.0614 9.08748C19.462 6.53191 17.4666 4.5365 14.911 3.93705ZM20.3829 17.3459C20.7617 16.6803 21.0495 15.955 21.2297 15.1866C21.7213 13.0907 21.7213 10.9094 21.2297 8.81344C20.5262 5.81416 18.1843 3.47229 15.185 2.76876C13.0891 2.27711 10.9078 2.27711 8.81185 2.76876C5.81257 3.47229 3.47071 5.81415 2.76717 8.81343C2.27553 10.9094 2.27553 13.0907 2.76717 15.1866C3.47071 18.1859 5.81257 20.5278 8.81185 21.2313C10.9078 21.7229 13.0891 21.7229 15.185 21.2313C17.2988 20.7355 19.086 19.4259 20.2034 17.646C20.2948 17.5633 20.3551 17.4581 20.3829 17.3459ZM19.0424 17.2289L18.9266 17.09C17.9777 15.9512 16.2558 15.8731 15.2076 16.9213L14.9275 17.2014L16.9498 19.2237C17.7808 18.7132 18.494 18.0326 19.0424 17.2289ZM15.8141 19.785L11.9158 15.8868C10.5251 14.4961 8.27038 14.4961 6.87968 15.8868L5.20005 17.5664C6.15362 18.7972 7.51376 19.6942 9.08589 20.063C11.0016 20.5124 12.9953 20.5124 14.911 20.063C15.2207 19.9903 15.5223 19.8972 15.8141 19.785Z" fill="#FF8831"/>
    <path fill-rule="evenodd" clip-rule="evenodd" d="M12.3984 9.00003C12.3984 7.56409 13.5625 6.40002 14.9984 6.40002C16.4344 6.40002 17.5984 7.56409 17.5984 9.00003C17.5984 10.436 16.4344 11.6 14.9984 11.6C13.5625 11.6 12.3984 10.436 12.3984 9.00003ZM14.9984 7.60002C14.2252 7.60002 13.5984 8.22683 13.5984 9.00003C13.5984 9.77322 14.2252 10.4 14.9984 10.4C15.7716 10.4 16.3984 9.77322 16.3984 9.00003C16.3984 8.22683 15.7716 7.60002 14.9984 7.60002Z" fill="#FF8831"/>
</svg>
