<svg viewBox="0 0 24 24" fill="none" xmlns="http://www.w3.org/2000/svg">
    <path d="M22 12.9413C22 16.5636 19.0152 19.5 15.3333 19.5C15.332 19.5 15.3307 19.5 15.3294 19.5H6.6759C6.67283 19.5 6.66975 19.5 6.66667 19.5C4.08934 19.5 2 17.4445 2 14.9089C2 12.3733 4.08934 10.3178 6.66667 10.3178C7.27489 10.3178 7.85594 10.4323 8.38876 10.6405C8.71109 10.7665 9.08794 10.6144 9.23366 10.2904C10.2687 7.98863 12.6104 6.3826 15.3333 6.3826C19.0152 6.3826 22 9.31903 22 12.9413Z" fill="#FF8831" fill-opacity="0.2"/>
    <path d="M11.8316 7.35917C10.6919 8.05261 9.78047 9.0744 9.23366 10.2904C9.08794 10.6144 8.71109 10.7665 8.38876 10.6405C7.85594 10.4323 7.27489 10.3178 6.66667 10.3178C6.01079 10.3178 5.38651 10.4509 4.82022 10.6912C4.44143 10.0681 4.22222 9.32984 4.22222 8.53846C4.22222 6.30808 5.96334 4.5 8.11111 4.5C9.86382 4.5 11.3457 5.7041 11.8316 7.35917Z" fill="#FF8831" fill-opacity="0.2"/>
    <path fill-rule="evenodd" clip-rule="evenodd" d="M8.10955 5.10002C6.31429 5.10002 4.82066 6.61793 4.82066 8.53848C4.82066 9.04218 4.92395 9.51906 5.10887 9.94837C5.51885 9.82354 5.94987 9.74679 6.3949 9.72458C6.48441 9.72011 6.5745 9.71785 6.6651 9.71785C7.34912 9.71785 8.00417 9.84668 8.60561 10.0817C8.61452 10.0852 8.62921 10.0869 8.64773 10.0793C8.66573 10.0719 8.6781 10.0594 8.68489 10.0443C9.21454 8.86648 10.0563 7.85738 11.1055 7.11728C10.5845 5.918 9.42993 5.10002 8.10955 5.10002ZM12.1453 6.50586C11.4198 4.97143 9.89375 3.90002 8.10955 3.90002C5.60926 3.90002 3.62066 5.99828 3.62066 8.53848C3.62066 9.20942 3.75883 9.84862 4.00812 10.4262C2.44923 11.3256 1.39844 12.9927 1.39844 14.9089C1.39844 17.7851 3.76568 20.1 6.6651 20.1L15.3318 20.1C19.3358 20.1 22.5984 16.9042 22.5984 12.9413C22.5984 8.97849 19.3358 5.78263 15.3318 5.78263C14.1893 5.78263 13.1078 6.0425 12.1453 6.50586ZM9.77932 10.5365C9.5035 11.1498 8.79121 11.4427 8.16879 11.1994C7.70458 11.018 7.19754 10.9179 6.6651 10.9179C6.55994 10.9179 6.45575 10.9218 6.35265 10.9294C5.89316 10.9636 5.45596 11.0726 5.05301 11.2436L5.01863 11.2582C3.58972 11.8797 2.59844 13.2852 2.59844 14.9089C2.59844 17.104 4.40987 18.9 6.6651 18.9L6.67434 18.9L15.3318 18.9C18.6916 18.9 21.3984 16.223 21.3984 12.9413C21.3984 9.65963 18.6916 6.98263 15.3318 6.98263C12.8493 6.98263 10.7193 8.44618 9.77932 10.5365Z" fill="#FF8831"/>
</svg>
