<svg width="134" height="30" viewBox="0 0 134 30" fill="none" xmlns="http://www.w3.org/2000/svg">
    <g clip-path="url(#clip0_2406_13686)">
        <path d="M38.2091 14.8858V18.9932C38.2091 20.0378 37.9048 21.0595 37.3336 21.9317C36.7624 22.8039 35.9495 23.4883 34.9957 23.9003C34.0417 24.3122 32.9888 24.4334 31.9671 24.249C30.9454 24.0646 30 23.5826 29.2478 22.8628L31.2041 20.791C31.5126 21.0859 31.8914 21.2956 32.3041 21.3997C32.7167 21.5039 33.1491 21.4991 33.5593 21.3857C33.9695 21.2722 34.3436 21.0541 34.6454 20.7523C34.9472 20.4506 35.1665 20.0756 35.2819 19.6635C34.2487 20.1861 33.0742 20.3551 31.9369 20.1449C30.7995 19.9348 29.7613 19.3569 28.9799 18.499C28.1985 17.6411 27.7165 16.5501 27.6071 15.3916C27.4978 14.233 27.767 13.0702 28.374 12.0795C28.9809 11.0889 29.8924 10.3247 30.9701 9.90276C32.0479 9.48084 33.2329 9.42426 34.3454 9.74172C35.458 10.0592 36.4373 10.7332 37.1345 11.6616C37.8319 12.59 38.2091 13.722 38.2091 14.8858ZM35.3745 14.8858C35.3749 14.3942 35.2304 13.9135 34.9594 13.5046C34.6883 13.0957 34.3027 12.7768 33.8516 12.5884C33.4004 12.4 32.9039 12.3506 32.4247 12.4462C31.9457 12.5419 31.5055 12.7784 31.1599 13.1258C30.8144 13.4734 30.579 13.9161 30.4836 14.3981C30.3881 14.8804 30.4369 15.3801 30.6238 15.8342C30.8106 16.2885 31.1271 16.6768 31.5332 16.9498C31.9393 17.223 32.4169 17.3689 32.9053 17.3689C33.5597 17.3683 34.1872 17.1067 34.6501 16.6412C35.113 16.1756 35.3735 15.5443 35.3745 14.8858ZM50.3994 9.56328V20.2844H47.5611L47.5762 19.8425C46.8764 20.1983 46.1081 20.3966 45.3247 20.424C44.5412 20.4514 43.7612 20.3068 43.0387 20.0006C42.3977 19.7293 41.8154 19.3346 41.3245 18.839C40.8334 18.3437 40.4414 17.758 40.1702 17.1137C39.7522 16.1185 39.6388 15.0204 39.8444 13.96C40.0501 12.8996 40.5654 11.925 41.3245 11.161C41.8166 10.6667 42.3985 10.2724 43.0387 9.99936C43.7615 9.69294 44.542 9.54852 45.3259 9.57606C46.1098 9.60366 46.8782 9.80268 47.5781 10.1593L47.5611 9.56328H50.3994ZM47.3491 16.2872C47.5738 15.8965 47.6921 15.4532 47.6925 15.0017C47.6929 14.5504 47.5751 14.1069 47.3512 13.7158C47.1272 13.3249 46.8047 13 46.4164 12.7742C46.0282 12.5483 45.5876 12.4294 45.1391 12.4292C44.6905 12.4288 44.2496 12.5473 43.861 12.7726C43.4723 12.998 43.1494 13.3224 42.9248 13.7132C42.7003 14.104 42.5818 14.5474 42.5815 14.9989C42.5813 15.4504 42.699 15.894 42.9231 16.2851C43.1471 16.6762 43.4695 17.0011 43.8579 17.227C44.2462 17.4529 44.6869 17.572 45.1355 17.5723C45.5841 17.5724 46.0249 17.4538 46.4134 17.2282C46.802 17.0026 47.1247 16.6781 47.3491 16.2872ZM54.6146 12.3435V14.6001C54.6154 15.4028 54.9325 16.1725 55.4966 16.7402C56.0606 17.3078 56.8254 17.6271 57.6231 17.6278V20.4842C56.8552 20.4848 56.0946 20.333 55.385 20.0375C54.6754 19.742 54.0306 19.3086 53.4876 18.7621C52.9445 18.2156 52.5139 17.5667 52.2202 16.8525C51.9266 16.1383 51.7757 15.3729 51.7762 14.6001V7.21902L54.6146 6.26688V9.67752H57.6231V12.3435H54.6146ZM59.4381 18.7761C58.8182 18.1523 58.3607 17.3843 58.1063 16.54C57.8518 15.6958 57.8081 14.8014 57.9791 13.9361C58.1501 13.0708 58.5306 12.2614 59.0867 11.5794C59.6428 10.8974 60.3576 10.364 61.1676 10.0264C61.977 9.68886 62.8572 9.5574 63.7296 9.64392C64.602 9.73044 65.4396 10.0321 66.1686 10.5223C66.8976 11.0123 67.4952 11.6758 67.908 12.4539C68.3214 13.232 68.5374 14.1006 68.5374 14.9828V16.3634H61.0158C61.2258 16.7006 61.5096 16.9849 61.845 17.1947C62.181 17.4043 62.5602 17.5339 62.9538 17.5732C63.3468 17.6126 63.744 17.5607 64.1142 17.4217C64.4844 17.2826 64.8186 17.06 65.0898 16.771L67.0842 18.6677C66.5946 19.1889 66.006 19.606 65.3532 19.8943C64.7004 20.1827 63.9966 20.3365 63.2838 20.3467C62.571 20.3567 61.8636 20.2229 61.203 19.9532C60.5424 19.6834 59.9423 19.2832 59.4381 18.7761ZM65.4006 13.6022C65.1678 13.2281 64.845 12.9196 64.461 12.7058C64.0776 12.4919 63.6468 12.3797 63.2082 12.3797C62.7696 12.3797 62.3388 12.4919 61.9548 12.7058C61.5714 12.9196 61.2486 13.2281 61.0158 13.6022H65.4006ZM75.9312 15.0152L74.2884 20.2844H71.9292L68.2938 9.67752H71.2704L73.1118 15.1924L74.7882 9.67752H77.091L78.7998 15.2L80.6292 9.67752H83.6058L79.971 20.2844H77.5734L75.9312 15.0152ZM94.1352 9.56328V20.2844H91.2966L91.3116 19.8425C90.6114 20.1983 89.8434 20.3966 89.0598 20.424C88.2768 20.4512 87.4968 20.3068 86.7744 20.0006C86.1336 19.7293 85.551 19.3346 85.0602 18.839C84.5694 18.3437 84.1764 17.758 83.9058 17.1137C83.4876 16.1185 83.3742 15.0204 83.58 13.96C83.7858 12.8996 84.3006 11.925 85.0602 11.161C85.5522 10.6667 86.1342 10.2722 86.7744 9.99936C87.4968 9.69294 88.2774 9.54852 89.0616 9.57606C89.8452 9.60366 90.6144 9.80268 91.3134 10.1591L91.2966 9.56328H94.1352ZM91.0848 16.2872C91.3092 15.8965 91.4274 15.4532 91.4286 15.0017C91.4286 14.5504 91.311 14.1069 91.0866 13.7158C90.8628 13.3249 90.54 13 90.1518 12.7742C89.7636 12.5483 89.3232 12.4294 88.875 12.4292C88.4256 12.4288 87.9852 12.5473 87.5964 12.7726C87.2076 12.998 86.8848 13.3224 86.6598 13.7132C86.436 14.104 86.3178 14.5474 86.3166 14.9989C86.3166 15.4504 86.4342 15.894 86.6586 16.2851C86.8824 16.6762 87.2052 17.0011 87.5934 17.227C87.9816 17.4529 88.4226 17.572 88.8708 17.5723C89.3202 17.5724 89.76 17.4538 90.1494 17.2282C90.5376 17.0026 90.8598 16.6781 91.0848 16.2872ZM99.1218 19.2694L94.9056 9.67752H98.0256L100.577 15.6875L102.947 9.67752H105.986L100.23 24.0548H97.2156L99.1218 19.2694ZM105.095 18.5485C105.096 18.3189 105.142 18.0919 105.231 17.8804C105.32 17.6687 105.449 17.477 105.611 17.3161C105.775 17.1551 105.967 17.028 106.179 16.9423C106.391 16.8565 106.616 16.8137 106.845 16.8163C107.301 16.8167 107.738 16.9994 108.061 17.3242C108.383 17.6489 108.564 18.0893 108.564 18.5483C108.564 19.0074 108.383 19.4477 108.061 19.7725C107.738 20.0972 107.301 20.2799 106.845 20.2804C106.616 20.283 106.391 20.2402 106.179 20.1545C105.967 20.0687 105.775 19.9418 105.613 19.7807C105.449 19.6198 105.32 19.4281 105.232 19.2166C105.142 19.0051 105.096 18.7781 105.095 18.5485ZM116.947 9.70416V12.3701H113.938V20.2844H111.1V9.69456C111.099 8.92176 111.25 8.15628 111.544 7.4421C111.838 6.72798 112.268 6.07908 112.811 5.53253C113.354 4.98601 113.999 4.5526 114.709 4.25709C115.418 3.96158 116.179 3.80977 116.947 3.81034V6.66678C116.149 6.66756 115.384 6.98676 114.82 7.55442C114.256 8.12214 113.939 8.89182 113.938 9.69468V9.70416H116.947ZM133.333 14.3049V20.2844H130.495V14.3049C130.495 13.8478 130.315 13.4095 129.994 13.0862C129.673 12.7631 129.236 12.5815 128.782 12.5815C128.329 12.5815 127.892 12.7631 127.571 13.0862C127.251 13.4095 127.07 13.8478 127.07 14.3049V20.2844H124.232V14.3049C124.232 14.0784 124.189 13.8542 124.102 13.6448C124.016 13.4356 123.89 13.2454 123.731 13.0852C123.572 12.9249 123.383 12.7978 123.175 12.7111C122.968 12.6244 122.744 12.5797 122.519 12.5797C122.294 12.5797 122.072 12.6244 121.864 12.7111C121.656 12.7978 121.466 12.9249 121.309 13.0852C121.149 13.2454 121.022 13.4356 120.937 13.6448C120.851 13.8542 120.806 14.0784 120.806 14.3049V20.2844H117.968V9.56328H120.806V10.0603C121.618 9.73008 122.505 9.6414 123.364 9.80484C124.223 9.96822 125.017 10.3769 125.651 10.9819C126.296 10.3654 127.108 9.95274 127.984 9.79524C128.86 9.63786 129.763 9.74244 130.58 10.0961C131.398 10.4497 132.094 11.037 132.583 11.7851C133.073 12.5332 133.333 13.4093 133.333 14.3049ZM0 16.1606L21.5927 3.61433L21.6241 7.6242L0 20.1887V16.1606ZM15.5822 4.11364L15.5509 0L0 9.03576V13.1677L15.5822 4.11364ZM15.754 14.028L12.2878 16.0421L24.0534 22.8784V18.8503L15.754 14.028ZM24.0534 15.8573V9.20574L18.3296 12.5315L24.0534 15.8573ZM21.5927 24.4417L9.71214 17.5386L6.24594 19.5527L14.6587 24.4409L12.0832 25.9374L3.67033 21.0491L0.146153 23.0968L12.0266 30L21.5927 24.4417Z" fill="#009688"/>
    </g>
    <defs>
        <clipPath id="clip0_2406_13686">
            <rect width="133.8" height="30" fill="white"/>
        </clipPath>
    </defs>
</svg>
