<svg width="82" height="30" viewBox="0 0 82 30" fill="none" xmlns="http://www.w3.org/2000/svg">
    <rect width="82" height="30" rx="4" fill="#6062FF"/>
    <path d="M12.388 20H10.4192L14.0037 9.81818H16.2807L19.8702 20H17.9015L15.182 11.9062H15.1025L12.388 20ZM12.4526 16.0078H17.8219V17.4893H12.4526V16.0078ZM28.5538 13.0696C28.4709 12.8011 28.3566 12.5608 28.2108 12.3487C28.0682 12.1333 27.8959 11.9493 27.6937 11.7969C27.4949 11.6444 27.2662 11.5301 27.0076 11.4538C26.7491 11.3743 26.4674 11.3345 26.1625 11.3345C25.6156 11.3345 25.1284 11.4721 24.7008 11.7472C24.2733 12.0223 23.9368 12.4266 23.6916 12.9602C23.4496 13.4905 23.3287 14.1368 23.3287 14.8991C23.3287 15.6681 23.4496 16.3194 23.6916 16.853C23.9335 17.3866 24.2699 17.7926 24.7008 18.071C25.1317 18.3461 25.6322 18.4837 26.2022 18.4837C26.7193 18.4837 27.1667 18.3842 27.5446 18.1854C27.9257 17.9865 28.219 17.7048 28.4245 17.3402C28.63 16.9723 28.7328 16.5414 28.7328 16.0476L29.1504 16.1122H26.3862V14.6705H30.5176V15.8935C30.5176 16.7652 30.332 17.5192 29.9608 18.1555C29.5895 18.7919 29.0791 19.2824 28.4295 19.6271C27.7799 19.9685 27.0342 20.1392 26.1923 20.1392C25.2543 20.1392 24.4307 19.9287 23.7214 19.5078C23.0154 19.0836 22.4636 18.482 22.0659 17.7031C21.6715 16.9209 21.4743 15.9929 21.4743 14.919C21.4743 14.0971 21.5903 13.3629 21.8223 12.7166C22.0576 12.0703 22.3857 11.5218 22.8066 11.071C23.2276 10.617 23.7214 10.2723 24.2882 10.0369C24.8549 9.7983 25.4714 9.67898 26.1376 9.67898C26.7011 9.67898 27.2264 9.76184 27.7136 9.92756C28.2008 10.09 28.6333 10.322 29.0112 10.6236C29.3923 10.9252 29.7056 11.2831 29.9508 11.6974C30.1961 12.1117 30.3568 12.5691 30.4331 13.0696H28.5538ZM33.3011 20V9.81818H39.9233V11.3643H35.1456V14.1286H39.5803V15.6747H35.1456V18.4538H39.9631V20H33.3011ZM51.1722 9.81818V20H49.5316L44.734 13.0646H44.6495V20H42.805V9.81818H44.4556L49.2482 16.7585H49.3377V9.81818H51.1722ZM53.7346 11.3643V9.81818H61.8581V11.3643H58.7111V20H56.8816V11.3643H53.7346ZM64.4242 20V9.81818H71.0463V11.3643H66.2686V14.1286H70.7033V15.6747H66.2686V18.4538H71.0861V20H64.4242Z" fill="white"/>
</svg>
