<?xml version="1.0" encoding="UTF-8"?>
<svg width="140px" height="140px" viewBox="0 0 140 140" version="1.1" xmlns="http://www.w3.org/2000/svg" xmlns:xlink="http://www.w3.org/1999/xlink">
    <title>ARS-logo</title>
    <g id="Design" stroke="none" stroke-width="1" fill="none" fill-rule="evenodd">
        <g id="About-Investor" transform="translate(-960.000000, -878.000000)" fill="#000000" fill-rule="nonzero">
            <g id="ARS-logo" transform="translate(960.000000, 878.000000)">
                <g id="Group">
                    <path d="M17.8461138,23.4325121 L20.3174879,20.8093338 L38.5886537,27.5373005 L35.777238,30.5126648 L31.7574601,28.9581888 L26.5961138,34.4231437 L28.3813324,38.3396947 L25.6427828,41.2361207 L17.8461138,23.4325121 Z M28.2841777,27.6101666 L22.4670368,25.3756072 L25.0416378,31.0409438 L28.2841777,27.6101666 Z" id="Shape"></path>
                    <path d="M32.2189452,10.9784872 L39.5055517,7.3351839 C41.527585,6.31505899 43.3795975,6.12074948 44.9705066,6.61259542 C46.3876799,7.1194537 47.5382279,8.18014935 48.1583969,9.55152672 L48.1583969,9.59403192 C49.3748592,11.7597368 48.9891769,14.4719547 47.2172103,16.2126995 L53.9573213,19.9227967 L49.8707495,21.981263 L43.9078765,18.6172797 L41.1571825,20.0017349 L43.7196391,25.0780708 L40.222068,26.8390007 L32.2189452,10.9784872 Z M43.148855,15.1379251 C44.8551353,14.2817488 45.37127,12.8851492 44.6972588,11.5492713 L44.6972588,11.500694 C43.9443095,10.0069396 42.5112769,9.76405274 40.8110687,10.620229 L37.3377863,12.3690146 L39.6330673,16.9231437 L43.148855,15.1379251 Z" id="Shape"></path>
                    <polygon id="Path" points="58.0013879 4.99132547 52.6518043 5.81714087 52.0992366 2.25277585 66.6724497 0 67.2250173 3.55829285 61.8693616 4.39018043 64.037127 18.3561763 60.1691534 18.9633935"></polygon>
                    <polygon id="Path" points="73.3032616 0.352185982 77.2076683 0.637578071 75.9021513 18.3501041 71.9977446 18.064712"></polygon>
                    <path d="M79.3450729,15.7876475 L82.3811589,13.832408 C83.3690195,15.5433501 84.9439976,16.8378527 86.8138446,17.4757113 C88.3440319,17.9493407 89.4552394,17.6275156 89.7649202,16.6316794 L89.7649202,16.583102 C90.0563845,15.6358432 89.6252602,14.9739764 87.0081541,13.3648508 C83.8566967,11.4339001 81.9439625,9.80655795 82.9944483,6.43650243 L82.9944483,6.38792505 C83.9538515,3.3093338 87.0628036,2.04024983 90.5360861,3.11502429 C92.8367279,3.78872701 94.8311634,5.24215312 96.1771339,7.2258848 L93.3596461,9.43615545 C92.1755725,7.93025677 90.8943442,6.83726579 89.4613116,6.4000694 C88.028279,5.962873 87.0688758,6.4000694 86.8138446,7.20159611 L86.8138446,7.25017349 C86.4677307,8.36745316 87.0810201,8.95645385 89.7831367,10.620229 C92.9528105,12.5815406 94.5072866,14.4214087 93.5903886,17.3785566 L93.5903886,17.4271339 C92.545975,20.7971895 89.3823734,21.8901804 85.6965649,20.7546842 C83.0414544,19.9348179 80.7807265,18.1668682 79.3450729,15.7876475 Z" id="Path"></path>
                    <polygon id="Path" points="105.285392 13.9659958 100.798057 10.9906315 102.801874 7.99097849 115.061589 16.15805 113.057772 19.157703 108.558293 16.15805 100.664469 27.9380638 97.4097849 25.7702984"></polygon>
                    <path d="M107.59889,29.6989938 L111.242193,29.6989938 C111.132492,31.6698477 111.745668,33.6130115 112.96669,35.1639486 C113.986815,36.3783831 115.09195,36.730569 115.893477,36.0687023 L115.935982,36.0687023 C116.701076,35.4614851 116.701076,34.6417418 115.389486,31.8728314 C113.810722,28.5331367 113.100278,26.1224844 115.820611,23.8697085 L115.857044,23.8393477 C118.346634,21.7808813 121.643824,22.4123872 123.963393,25.2055864 C125.518806,27.0268902 126.392489,29.3323828 126.434768,31.7270992 L122.86433,32.0428522 C122.818718,30.3404597 122.250584,28.6932936 121.236988,27.3247745 C120.277585,26.1710618 119.245316,26.0010409 118.583449,26.5536086 L118.540944,26.5536086 C117.642262,27.3004858 117.836572,28.1263012 119.190666,30.9984386 C120.769431,34.3684941 121.066967,36.7548577 118.680604,38.7343858 L118.638099,38.7343858 C115.917765,40.9871617 112.675226,40.1795628 110.222068,37.2284872 C108.461856,35.1207527 107.529373,32.444182 107.59889,29.6989938 L107.59889,29.6989938 Z" id="Path"></path>
                    <path d="M136.350625,46.7982304 L138.269431,54.6920541 C138.803782,56.8901804 138.597328,58.7361207 137.741152,60.157009 C136.915085,61.4139348 135.620803,62.2884498 134.146426,62.5858779 L134.097849,62.5858779 C131.702106,63.2803141 129.137964,62.2854966 127.837439,60.157009 L122.688237,65.870923 L121.607391,61.4382373 L126.240458,56.3922623 L125.511797,53.4351145 L119.980049,54.7770645 L119.057078,51.0062457 L136.350625,46.7982304 Z M129.810895,56.4712006 C130.260236,58.2928522 131.505031,59.1368841 132.962353,58.7846981 L133.01093,58.7846981 C134.644344,58.3900069 135.209056,57.0480569 134.753643,55.2021166 L133.836745,51.4312977 L128.875781,52.6457321 L129.810895,56.4712006 Z" id="Shape"></path>
                    <polygon id="Path" points="140 68.5669674 140 72.471374 122.208536 72.3924358 122.208536 68.481957"></polygon>
                    <path d="M131.158917,77.7238029 L131.213567,77.7238029 C133.599555,78.3462756 135.631205,79.9095567 136.844242,82.0564036 C138.057279,84.2032506 138.348036,86.7501919 137.650069,89.1151978 C136.81211,92.1998612 135.47016,93.8393477 133.460271,95.1873699 L131.237856,92.0359126 C132.716342,91.1440592 133.781688,89.7032233 134.201076,88.028279 C134.941881,85.2836572 133.108085,82.4479528 130.18737,81.6585704 L130.138793,81.6585704 C126.99948,80.8084663 124.109126,82.3386537 123.28331,85.3747398 C122.899676,86.6264636 122.920926,87.9673416 123.344032,89.2062804 L125.772901,89.8681471 L126.80517,86.0730396 L130.071999,86.9535045 L128.122831,94.4344205 L120.660132,92.4184594 C119.451055,89.9068026 119.192216,87.0423258 119.931471,84.3546149 C121.358432,79.0171756 126.10687,76.3575642 131.158917,77.7238029 Z" id="Path"></path>
                    <polygon id="Path" points="131.420021 104.44136 129.155101 107.629251 123.410826 103.566967 119.233171 109.450902 124.977446 113.513185 122.718598 116.701076 108.200035 106.439105 110.458883 103.245142 116.288168 107.368147 120.465822 101.484212 114.636537 97.3672797 116.901457 94.1733171"></polygon>
                    <polygon id="Path" points="110.70177 122.5 115.079806 119.318182 117.205066 122.226752 105.291464 130.897814 103.166204 127.989244 107.538168 124.801353 99.1889313 113.361381 102.352533 111.060028"></polygon>
                    <path d="M95.157009,119.233171 L93.9000694,122.615371 C91.9509022,121.904927 90.0867453,121.674185 88.1740111,122.354268 C86.6620402,122.894691 85.9637405,123.811589 86.3159264,124.783137 L86.3159264,124.825642 C86.6438237,125.760756 87.3907009,126.040076 90.4450035,125.760756 C94.1308119,125.420715 96.6446912,125.578591 97.8226926,128.906142 L97.8226926,128.954719 C98.9035392,131.990805 97.1729702,134.862942 93.7482651,136.077377 C91.4992028,136.918658 89.0266849,136.946584 86.759195,136.156315 L87.6943095,132.707321 C89.2942755,133.236532 91.0163916,133.272498 92.6370576,132.810548 C94.0518737,132.306558 94.5680083,131.401804 94.2765441,130.588133 L94.2765441,130.539556 C93.8879251,129.440493 93.0621096,129.325121 89.8802915,129.622658 C86.1641221,129.944483 83.8081194,129.40406 82.7758501,126.489417 L82.7758501,126.44084 C81.5978487,123.113289 83.4741499,120.368668 87.0870923,119.069223 C89.7058034,118.130272 92.5785944,118.188636 95.157009,119.233171 L95.157009,119.233171 Z" id="Path"></path>
                    <path d="M72.0645385,125.244622 L69.5020819,127.78279 C68.0326162,126.319396 66.4659958,125.353921 64.4196738,125.141395 C62.8226926,124.995663 61.8025677,125.536086 61.7054129,126.574427 L61.7054129,126.623005 C61.6143303,127.606697 62.1729702,128.171409 65.0633241,129.203678 C68.5426787,130.448473 70.7529493,131.632547 70.425052,135.160479 L70.425052,135.209056 C70.1214434,138.415163 67.3403886,140.297536 63.7456627,139.957495 C61.3552773,139.777631 59.1035408,138.765639 57.3820264,137.097502 L59.6833796,134.358952 C61.1467731,135.573387 62.6283831,136.39313 64.1221374,136.53279 C65.6158917,136.67245 66.4659958,136.05916 66.5510062,135.202984 L66.5510062,135.148334 C66.6603053,133.98855 65.943789,133.539209 62.9502082,132.470507 C59.4404927,131.201423 57.5399028,129.719813 57.8313671,126.641221 L57.8313671,126.586572 C58.1592644,123.076856 61.0253296,121.358432 64.8507981,121.728834 C67.6046861,121.978184 70.171416,123.229141 72.0645385,125.244622 L72.0645385,125.244622 Z" id="Path"></path>
                    <path d="M52.8643303,129.367627 L52.8643303,129.410132 C50.7269257,133.98855 45.3591256,136.05916 40.3799445,133.745663 C35.4007634,131.432165 33.5669674,126.064365 35.704372,121.485947 L35.704372,121.43737 C37.8417765,116.858952 43.2156489,114.794414 48.1887578,117.107911 C53.1618668,119.421409 55.0017349,124.789209 52.8643303,129.367627 Z M39.4326856,123.119362 L39.4326856,123.167939 C38.7701312,124.469954 38.6642397,125.985085 39.1392439,127.366603 C39.6142481,128.748121 40.6294897,129.877775 41.9526371,130.497051 C44.8126301,131.826856 47.8487162,130.497051 49.1360167,127.734212 L49.1360167,127.685635 C49.802099,126.384217 49.9098626,124.867766 49.4345099,123.485234 C48.9591571,122.102702 47.9416276,120.973159 46.6160652,120.356523 C43.7560722,119.014573 40.7199861,120.356523 39.4326856,123.119362 Z" id="Shape"></path>
                    <path d="M31.9031922,118.407356 L31.8667592,118.443789 C30.1281418,120.185486 27.755424,121.14438 25.2948746,121.099705 C22.8343251,121.05503 20.4979799,120.010637 18.8237335,118.206974 C16.4859473,115.808466 15.8848022,113.598196 15.8967673,111.278626 L19.6920541,111.060028 C19.758848,112.881679 20.1899722,114.442228 21.4286954,115.711312 C23.5235947,117.854788 26.814712,117.666551 29.000694,115.535219 L29.037127,115.498786 C31.223109,113.373525 31.5692228,110.094552 29.4439625,107.914643 C28.0230743,106.463393 26.5718251,106.141568 24.6833796,106.026197 L24.7501735,102.492193 C27.5352646,102.310775 30.2497943,103.41628 32.1157183,105.491846 C33.8470601,107.208484 34.8031727,109.557129 34.7630587,111.994912 C34.7229448,114.432694 33.6900764,116.74861 31.9031922,118.407356 L31.9031922,118.407356 Z" id="Path"></path>
                    <polygon id="Path" points="10.4259195 106.797363 8.50104094 103.409091 23.9122137 94.5315753 25.8674532 97.9198473"></polygon>
                    <polygon id="Path" points="4.85773768 96.3532269 1.00798057 83.5227273 4.34160305 82.5208189 7.08015267 91.629077 10.5412908 90.5907356 8.11242193 82.5693963 11.4460444 81.57356 13.8749133 89.5888272 17.4514226 88.5201249 14.67644 79.2843511 18.0161346 78.2824427 21.9083969 91.2343858"></polygon>
                    <polygon id="Path" points="3.64330326 71.4148161 3.58865371 76.8190493 0 76.7826162 0.151804303 62.0697432 3.75867453 62.1061763 3.70402498 67.5104094 17.888619 67.6439972 17.8461138 71.5544761"></polygon>
                    <polygon id="Path" points="13.2980569 53.2165163 0.898681471 56.2526024 2.36207495 51.9231437 10.4866412 50.1804303 5.09455239 43.8167939 6.51544067 39.6087786 14.4760583 49.4882026 21.1979528 51.7409785 19.9470854 55.4450035"></polygon>
                </g>
                <g id="Group" transform="translate(22.363810, 22.368016)">
                    <path d="M0.400763359,55.0825389 L0.0789382373,52.6536701 L11.4824774,45.9257034 L11.8468078,48.6763973 L9.30256766,50.1276465 L9.97050659,55.191838 L12.806211,55.9630039 L13.1583969,58.6469039 L0.400763359,55.0825389 Z M7.08015267,51.3785139 L3.40041638,53.4855576 L7.49913255,54.5603321 L7.08015267,51.3785139 Z" id="Shape"></path>
                    <path d="M0,42.173101 L1.21443442,36.7810122 C1.40367681,35.5069353 2.09734582,34.3624908 3.13931298,33.6052662 C4.01627968,33.0766997 5.06983693,32.9255657 6.06002776,33.1862863 L6.09646079,33.1862863 C7.773728,33.4654592 9.05267561,34.8391437 9.21148508,36.5320531 L14.0692228,34.5707415 L13.4012838,37.6068276 L9.05968078,39.3070358 L8.60426787,41.3412134 L12.3872311,42.1670288 L11.8164469,44.7598463 L0,42.173101 Z M6.89191534,38.2079726 C7.17123525,36.9388887 6.65510062,36.070568 5.67748092,35.8519698 L5.64104788,35.8519698 C4.52984039,35.6030108 3.78296322,36.2527332 3.5036433,37.5218172 L2.9389313,40.0964181 L6.32720333,40.8432953 L6.89191534,38.2079726 Z" id="Shape"></path>
                    <polygon id="Path" points="7.91204025 26.0271954 6.04788341 29.2029414 3.92869535 27.988507 8.99895906 19.3478061 11.1181471 20.5622405 9.25399028 23.7379865 17.5789382 28.5957242 16.230916 30.8910052"></polygon>
                    <polygon id="Path" points="12.0289729 15.9838227 13.8506246 14.052872 22.6492019 22.3474591 20.8275503 24.2784098"></polygon>
                    <path d="M22.7767176,19.4267443 L23.0499653,16.9978755 C24.3751215,17.2057391 25.7308294,16.9298557 26.8693616,16.2206374 C27.7741152,15.6134202 28.083796,14.8969039 27.695177,14.3079032 L27.695177,14.3079032 C27.3247745,13.7492634 26.7904233,13.700686 24.8169674,14.3746971 C22.4184594,15.1701517 20.7486121,15.4798324 19.406662,13.4577991 L19.406662,13.4577991 C18.1922276,11.6361475 18.8601666,9.45016555 20.9186329,8.08392682 C22.2637898,7.15861716 23.8886137,6.7293374 25.5152672,6.8694924 L25.472762,9.29836124 C24.3293978,9.21008833 23.1861336,9.47049852 22.193789,10.0452384 C21.3436849,10.6099504 21.1554476,11.2961059 21.4772727,11.7818796 L21.4772727,11.7818796 C21.9205413,12.4437464 22.4973976,12.3890968 24.5133588,11.6604362 C26.9422276,10.8346208 28.5513532,10.8042599 29.7232824,12.5591177 L29.7232824,12.5591177 C31.0530881,14.5568623 30.2697779,16.6942669 28.0959403,18.1333717 C26.540463,19.1999602 24.6482649,19.6600495 22.7767176,19.4267443 Z" id="Path"></path>
                    <polygon id="Path" points="32.9718945 4.9992634 29.4561069 6.0861822 28.7335184 3.74232377 38.315406 0.791248129 39.0379944 3.13510656 35.5161346 4.21595319 38.3579112 13.4152939 35.8136711 14.1986041"></polygon>
                    <path d="M42.26839,10.5188678 L43.8228661,8.60006145 C44.8240938,9.50252555 46.1184166,10.0116259 47.4661693,10.0330941 C48.5591603,10.0330941 49.2088827,9.58982551 49.2028105,8.87938137 L49.2028105,8.87938137 C49.2028105,8.20537027 48.7777585,7.85925646 46.7739417,7.36133834 C44.3450729,6.75412113 42.7480916,6.10439872 42.7298751,3.71803508 L42.7298751,3.68160205 C42.7298751,1.48954792 44.4604441,0.0382987879 46.9318182,0.00186575529 C48.5639919,-0.035679461 50.1586013,0.494426241 51.4434421,1.50169226 L50.0772033,3.51158123 C49.1654579,2.81591674 48.0649431,2.41168919 46.9196738,2.35179636 C45.8995489,2.35179636 45.3651978,2.83149796 45.37127,3.42049865 L45.37127,3.45085951 C45.37127,4.24631406 45.8995489,4.50134528 47.9944483,5.01747991 C50.4597502,5.62469712 51.8442054,6.49908991 51.8624219,8.60613362 L51.8624219,8.60006145 C51.8624219,11.0289303 50.0407703,12.358736 47.454025,12.3830247 C45.5546014,12.4232345 43.7074713,11.7592193 42.26839,10.5188678 L42.26839,10.5188678 Z" id="Path"></path>
                    <path d="M63.648508,2.72219886 L68.6398334,5.09641815 C69.8409339,5.57547721 70.7977551,6.51916127 71.2933727,7.71352433 C71.6100272,8.68666594 71.5202524,9.74644672 71.0444136,10.6524556 L71.0444136,10.6524556 C70.388613,12.2133525 68.7701814,13.1431427 67.0914296,12.923448 L67.8990285,18.0847943 L65.0754684,16.7792773 L64.4014573,12.1765708 L62.5130118,11.2778894 L60.824948,14.7693883 L58.3960791,13.62782 L63.648508,2.72219886 Z M65.9559334,10.3184862 C67.1278626,10.877126 68.093338,10.5735174 68.5305344,9.65054723 L68.5305344,9.65054723 C69.0223803,8.62435014 68.5305344,7.74995736 67.388966,7.22167839 L64.9965302,6.0861822 L63.5027759,9.21335084 L65.9559334,10.3184862 Z" id="Shape"></path>
                    <polygon id="Path" points="76.7158223 10.136321 78.7742887 11.8243848 71.0869188 21.1573134 69.0284525 19.4692495"></polygon>
                    <path d="M77.7723803,18.710228 L77.8027412,18.710228 C79.1574005,17.7207955 80.8546473,17.321317 82.5084077,17.6026621 C84.1621681,17.8840073 85.631835,18.8222553 86.583102,20.2039823 C87.6657414,21.5533295 88.1759076,23.2735051 88.0039903,24.9949261 L85.3868841,24.812761 C85.5481053,23.6503678 85.2424549,22.4714304 84.53678,21.533788 C83.2936259,19.9711296 81.0242591,19.7003221 79.4482998,20.9265708 L79.4482998,20.9265708 C78.5927764,21.4624835 77.9979648,22.3293462 77.8057409,23.3203925 C77.6135171,24.3114387 77.8411149,25.3378163 78.4342471,26.154711 C78.9346639,26.8912171 79.6519993,27.453625 80.4866412,27.7638366 L81.889313,26.755856 L80.3287647,24.5820184 L82.1989938,23.2400684 L85.2350798,27.4905889 L80.9845593,30.5266749 C79.1393755,30.0883547 77.5152132,28.9969521 76.4122137,27.4541558 C74.2262318,24.4362863 74.8638099,20.792983 77.7723803,18.710228 Z" id="Path"></path>
                    <polygon id="Path" points="91.9751908 30.0409011 92.685635 32.6033578 88.0768563 33.8845861 89.3884455 38.6026638 94.0032963 37.3214355 94.7137405 39.8838921 83.05517 43.1203599 82.3447259 40.5639754 87.0263706 39.2645306 85.7208536 34.5403807 81.0392089 35.8398255 80.3287647 33.2834411"></polygon>
                    <polygon id="Path" points="92.6249133 48.6763973 92.8192228 45.0330941 95.2480916 45.1606097 94.7076683 55.155405 92.2787994 55.0218172 92.473109 51.3785139 82.8487162 50.8623793 82.9883761 48.2149123"></polygon>
                    <path d="M84.2210271,55.4833023 L85.4658223,57.590346 C84.279803,58.2163984 83.3592497,59.2490566 82.8730049,60.4989164 C82.5086745,61.5251135 82.6908397,62.284135 83.3587786,62.5209497 L83.3952117,62.5209497 C84.0024289,62.7456201 84.4942748,62.4723723 85.6601319,60.7418033 C87.0628036,58.6590483 88.2286607,57.4081808 90.4875087,58.2097075 L90.5239417,58.2097075 C92.5884802,58.9444404 93.3657183,61.0879171 92.5338307,63.413559 C92.0131531,64.958479 90.96657,66.2715432 89.5766829,67.1236562 L88.1497224,65.1805611 C89.1150972,64.571318 89.876338,63.6874329 90.3357044,62.6423932 C90.675746,61.68299 90.4146426,61.0211232 89.8620749,60.8207415 L89.8620749,60.8207415 C89.1091256,60.553566 88.6901457,60.9543293 87.4878557,62.7456201 C86.0608952,64.8405195 84.7675226,65.8424279 82.7819223,65.1380559 L82.7454892,65.1380559 C80.4866412,64.3365292 79.8308466,62.1626916 80.7052394,59.7034619 C81.318478,57.9123436 82.5701177,56.4099436 84.2210271,55.4833023 Z" id="Path"></path>
                    <path d="M77.480916,70.220464 L77.7177307,72.6493328 C76.3781328,72.7134096 75.107303,73.2614415 74.1412214,74.1916645 C73.3761277,74.9689025 73.2243234,75.7400684 73.7283137,76.2319143 L73.7283137,76.2622752 C74.2080153,76.7298324 74.7484386,76.6751829 76.5336572,75.6004084 C78.6892783,74.3009636 80.268043,73.6512412 81.9986121,75.3332329 L81.9986121,75.3332329 C83.5591603,76.8634202 83.3587786,79.1404848 81.6282096,80.8953425 C80.5027918,82.0780756 78.9991263,82.8299084 77.3776891,83.0206027 L76.9222762,80.6342391 C78.0516564,80.4803137 79.1090871,79.9917807 79.9583622,79.2315674 C80.6748786,78.5029067 80.7173838,77.7924626 80.2984039,77.4099157 L80.2984039,77.4099157 C79.7276197,76.8512759 79.1811242,77.0395132 77.3351839,78.1567929 C75.1552741,79.4562377 73.5582929,79.820568 72.0523942,78.3450302 L72.0523942,78.3450302 C70.3400416,76.6691107 70.6618668,74.422407 72.4956627,72.5643224 C73.8097813,71.1925839 75.5862313,70.3573712 77.480916,70.220464 Z" id="Path"></path>
                    <path d="M71.4087439,82.0733439 L71.4087439,82.1097769 C72.726514,85.2529577 71.3630131,88.8783404 68.300538,90.3741177 C65.238063,91.869895 61.5404825,90.7164509 59.8716169,87.7447526 L59.8716169,87.7083196 C58.6121101,84.5768341 59.9855457,81.0042975 63.01841,79.5229828 C66.0512742,78.041668 69.7132829,79.1547875 71.4087439,82.0733439 L71.4087439,82.0733439 Z M62.3369188,86.4695965 L62.3369188,86.4695965 C62.7329654,87.3853787 63.4872591,88.0986646 64.4237281,88.4429547 C65.3601971,88.7872448 66.3968885,88.7324092 67.2918112,88.2912481 C68.1829506,87.8659659 68.8607737,87.0939394 69.1671642,86.1552599 C69.4735546,85.2165804 69.3817195,84.193333 68.9130812,83.3242113 L68.9130812,83.3242113 C68.5102301,82.4143724 67.755537,81.7068648 66.8216178,81.3635121 C65.8876987,81.0201595 64.854446,81.0703341 63.9581888,81.5025597 C63.0695588,81.935527 62.3950012,82.7109908 62.0892897,83.651025 C61.7835782,84.5910592 61.8729571,85.6149652 62.3369188,86.487813 L62.3369188,86.4695965 Z" id="Shape"></path>
                    <path d="M56.6108605,88.4187637 L56.6108605,88.4551968 C56.7898097,90.1220761 56.2792824,91.7896273 55.1978279,93.0706291 C54.1163734,94.3516309 52.5580814,95.1346324 50.8848022,95.237813 C49.1166816,95.4875531 47.3262605,94.96811 45.9663428,93.8108526 L47.4783137,91.7159532 C48.36407,92.4824817 49.5153686,92.8706089 50.6844205,92.7967998 C51.6482427,92.6912915 52.5281436,92.1996319 53.1231704,91.4341071 C53.7181972,90.6685823 53.9775329,89.69457 53.84195,88.7345167 L53.84195,88.7041558 C53.6537127,86.6396173 52.0688758,85.0608526 50.0043373,85.2369456 C48.8011809,85.3562478 47.701593,85.9698178 46.9682512,86.9310816 L45.1465996,85.3766055 C46.2507547,83.832935 47.9994678,82.8780751 49.8950382,82.783788 C51.5381068,82.6152798 53.179385,83.1193101 54.4446755,84.1809643 C55.709966,85.2426185 56.4914156,86.7714015 56.6108605,88.4187637 Z" id="Path"></path>
                    <polygon id="Path" points="41.2543373 94.7520392 38.6311589 94.3269872 40.5621096 82.4073134 43.185288 82.8262932"></polygon>
                    <polygon id="Path" points="33.3483692 93.2036354 24.9141221 89.7242807 25.8188758 87.5382988 31.8121096 90.0096728 32.7472241 87.7447526 27.4765788 85.570915 28.3813324 83.3849331 33.6519778 85.5587707 34.6235253 83.2149123 28.5513532 80.7131773 29.4561069 78.5271954 37.9571478 82.0369109"></polygon>
                    <polygon id="Path" points="19.6616933 83.135974 22.4913255 85.4798324 20.9247051 87.3622058 13.2130465 80.9742807 14.7857391 79.0858352 17.6153713 81.4661267 23.7846981 74.0277159 25.8310201 75.727924"></polygon>
                    <polygon id="Path" points="14.184594 70.2508248 10.4684247 78.0839268 8.80464955 75.4607485 11.3731783 70.43299 5.7017696 70.5422891 4.08657183 67.9859046 12.7212006 68.034482 16.8017002 65.4659532 18.2225885 67.7126569"></polygon>
                </g>
                <g id="Group" transform="translate(39.499480, 39.365892)">
                    <path d="M7.79666898,50.87873 L6.77047189,49.6642956 L10.620229,42.055864 L11.7739417,43.4221027 L10.8995489,45.1040944 L13.0248092,47.6179736 L14.8464608,47.0107564 L15.9758848,48.3405621 L7.79666898,50.87873 Z M10.1344552,46.5492713 L8.87144344,48.9781402 L11.5067661,48.1280361 L10.1344552,46.5492713 Z" id="Shape"></path>
                    <path d="M3.07859126,44.0171756 L1.86415684,40.6774809 C1.52900956,39.9160079 1.51369524,39.0518428 1.82165163,38.2789729 C2.11209782,37.6855907 2.63172594,37.2361234 3.26075642,37.0341777 L3.26075642,37.0341777 C4.26594949,36.6098445 5.43073829,36.9078715 6.10860514,37.7628383 L8.06384455,35.0121443 L8.75607217,36.8884455 L6.98907009,39.3173144 L7.45662734,40.5803262 L9.80048577,39.7180777 L10.407703,41.3272033 L3.07859126,44.0171756 Z M5.43459403,39.4691187 C5.14312977,38.6918806 4.56020125,38.3943442 3.94691187,38.6250867 L3.94691187,38.6250867 C3.26075642,38.880118 3.07859126,39.4873352 3.33969466,40.2706454 L3.94691187,41.8676266 L6.04181124,41.102533 L5.43459403,39.4691187 Z" id="Shape"></path>
                    <polygon id="Path" points="1.74271339 32.5104094 1.83986815 34.8785566 0.2611034 34.9453505 -8.62907556e-15 28.4967037 1.57876475 28.4299098 1.6759195 30.7980569 7.86346287 30.5490978 7.93632894 32.2614504"></polygon>
                    <polygon id="Path" points="0.485773768 25.6063498 0.801526718 23.9243581 8.47068008 25.3938237 8.15492713 27.0758154"></polygon>
                    <path d="M7.51734906,23.7846981 L6.8129771,22.369882 C7.61200738,22.0268979 8.25933024,21.4054679 8.63462873,20.6210965 C8.92002082,19.9774462 8.83501041,19.4795281 8.41603053,19.2973629 L8.41603053,19.2973629 C8.01526718,19.1273421 7.7055864,19.2973629 6.87369882,20.3357044 C5.87179042,21.6108605 5.05204719,22.3638099 3.64937543,21.7444483 L3.64937543,21.7444483 C2.3499306,21.1797363 1.95523942,19.7649202 2.59281749,18.3075989 C3.00365674,17.3390883 3.73755398,16.54296 4.66950035,16.054823 L5.43459403,17.3481957 C4.78179573,17.6957054 4.25020829,18.2336465 3.91047883,18.8905274 C3.64937543,19.4977446 3.78296322,19.9288688 4.12907703,20.1049618 L4.12907703,20.1049618 C4.59663428,20.3114157 4.88202637,20.0685288 5.74427481,18.9755378 C6.78868841,17.712526 7.66915337,17.1053088 8.91394865,17.6457321 L8.91394865,17.6457321 C10.3287647,18.2529493 10.6505899,19.6981263 9.97050659,21.2343858 C9.49457078,22.3574619 8.62110259,23.2655229 7.51734906,23.7846981 Z" id="Path"></path>
                    <polygon id="Path" points="8.02741152 12.3993754 6.49115198 14.2210271 5.27671756 13.2009022 9.45437196 8.27637058 10.6688064 9.29649549 9.13861901 11.1181471 13.8870576 15.1197085 12.7758501 16.4312977"></polygon>
                    <path d="M14.9921929,12.1686329 L15.1804303,10.5959403 C16.033174,10.7398808 16.9091784,10.5694267 17.6457321,10.1162387 C18.2529493,9.73369188 18.4351145,9.2722068 18.1861554,8.9018043 L18.1861554,8.9018043 C17.9493407,8.53747398 17.5789382,8.49496877 16.3280708,8.9018043 C14.7918112,9.4240111 13.7109646,9.61224844 12.8608605,8.29458709 L12.8608605,8.29458709 C12.0896947,7.08015267 12.526891,5.70784178 13.8627689,4.83952117 C14.7337896,4.24849761 15.7846572,3.98201992 16.8320611,4.08657183 L16.7895559,5.65319223 C16.0528142,5.5902426 15.3142229,5.75108195 14.6703678,6.11467731 C14.1178001,6.47900763 13.9963567,6.91620402 14.2028105,7.23195697 L14.2028105,7.23195697 C14.4821305,7.66308119 14.852533,7.62057599 16.1701943,7.17123525 C17.7246704,6.64902845 18.7812283,6.63688411 19.5220333,7.77845246 L19.5220333,7.77845246 C20.3721374,9.07789729 19.8560028,10.444136 18.4472588,11.3671062 C17.4332275,12.0498516 16.2032503,12.335189 14.9921929,12.1686329 L14.9921929,12.1686329 Z" id="Path"></path>
                    <path d="M23.8818529,0.510062457 L27.4219292,0.0667938931 C28.2422432,-0.0883789415 29.0905474,0.0909018428 29.777932,0.564712006 C30.2897288,0.981612194 30.6097967,1.58886431 30.6644691,2.24670368 L30.6644691,2.24670368 C30.8483454,3.32043222 30.2948362,4.38525472 29.3103747,4.85166551 L31.5449341,7.38983345 L29.5593338,7.63879251 L27.5858779,5.37387231 L26.25,5.54389313 L26.5596808,8.01526718 L24.8594726,8.23386537 L23.8818529,0.510062457 Z M27.7862595,3.8315406 C28.6120749,3.72831367 29.000694,3.22432339 28.9521166,2.57460097 L28.9521166,2.57460097 C28.861034,1.84594032 28.3084663,1.53018737 27.4765788,1.63948647 L25.7885149,1.85201249 L26.0799792,4.05013879 L27.7862595,3.8315406 Z" id="Shape"></path>
                    <polygon id="Path" points="33.5669674 -8.62907556e-15 35.2671756 0.200381679 34.3442054 7.93025677 32.6439972 7.72987509"></polygon>
                    <path d="M37.1252602,4.28088133 L37.1252602,4.28088133 C37.5175584,3.27280713 38.3007048,2.46612632 39.2967254,2.04416124 C40.292746,1.62219616 41.4170458,1.62078549 42.4141221,2.04024983 C43.4716685,2.40179362 44.3442644,3.16531511 44.842991,4.16551006 L43.3917418,4.96096461 C43.0742907,4.27457758 42.4979084,3.74186062 41.7886884,3.47935461 C40.5805396,3.0691787 39.2662289,3.70069556 38.8315406,4.90024289 L38.8315406,4.90024289 C38.5560841,5.48668011 38.5377518,6.16144232 38.7809601,6.76197093 C39.0241684,7.36249954 39.5068674,7.83434887 40.1127689,8.06384455 C40.6411842,8.29031215 41.2272767,8.34552376 41.7886884,8.22172103 L42.1955239,7.18945177 L40.5924705,6.58223456 L41.138966,5.20992366 L44.2904233,6.42435808 L43.0395559,9.56974323 C41.8726621,9.9904998 40.5923453,9.97106835 39.4387578,9.51509368 C38.4111343,9.16260521 37.5772155,8.39728799 37.1380211,7.40362488 C36.6988266,6.40996177 36.6942013,5.27810066 37.1252602,4.28088133 L37.1252602,4.28088133 Z" id="Path"></path>
                    <polygon id="Path" points="48.7838307 5.49531575 50.065059 6.63688411 48.0065926 8.93823734 50.3686676 11.0331367 52.4271339 8.73785566 53.7083622 9.87942401 48.5045108 15.6844205 47.2293546 14.5428522 49.3121096 12.2475711 46.9500347 10.1465996 44.8612075 12.4722415 43.5860514 11.3306731"></polygon>
                    <polygon id="Path" points="55.639313 15.3929563 54.4673838 13.3344899 55.8336225 12.5572519 59.0215128 18.1618668 57.6552741 18.9269604 56.4833449 16.8684941 51.0791117 19.9045802 50.2350798 18.416898"></polygon>
                    <path d="M53.4411867,21.9934074 L54.8499306,22.7038515 C54.4256454,23.4556556 54.2855746,24.3348692 54.4552394,25.1812977 C54.6131159,25.8674532 54.9774462,26.213567 55.426787,26.11034 L55.426787,26.11034 C55.851839,26.0131853 56.0340042,25.7035045 56.0340042,24.3615545 C56.0704372,22.7402845 56.2647467,21.6594379 57.7767176,21.3254684 L57.7767176,21.3254684 C59.1551006,21.0036433 60.3270298,21.8962526 60.685288,23.4446565 C60.9375383,24.4625249 60.8258383,25.5365637 60.369535,26.4807425 L58.9122137,25.8735253 C59.2241336,25.2050182 59.3257694,24.4575714 59.203678,23.7300486 C59.0518737,23.0924705 58.6814712,22.8252949 58.3171409,22.9103053 L58.3171409,22.9103053 C57.8192228,23.0317488 57.7099237,23.3900069 57.7099237,24.7805344 C57.6674185,26.4139486 57.3152325,27.4097849 55.991499,27.7133935 L55.991499,27.7133935 C54.4856003,28.0595073 53.3683206,27.1061763 52.9918459,25.472762 C52.7117183,24.2970192 52.8715495,23.0594074 53.4411867,21.9934074 Z" id="Path"></path>
                    <path d="M54.9167245,32.3282443 L55.8943442,33.5426787 C55.1888148,34.0430096 54.6900723,34.7835666 54.4916724,35.6254337 C54.3459403,36.3115892 54.5281055,36.7791464 54.9774462,36.8763012 L54.9774462,36.8763012 C55.4024983,36.9673838 55.675746,36.7487856 56.2708189,35.5464955 C56.981263,34.0952464 57.6188411,33.1904927 59.1308119,33.5062457 L59.1308119,33.5062457 C60.5152672,33.7977099 61.1953505,35.0971548 60.8674532,36.657703 C60.6687953,37.6872129 60.1168349,38.6150218 59.3069049,39.2808813 L58.2624913,38.175746 C58.8287802,37.7013815 59.2374908,37.06608 59.4344205,36.3540944 C59.5680083,35.7104441 59.343338,35.3096808 58.9729355,35.2368147 L58.9729355,35.2368147 C58.4689452,35.1335878 58.2382026,35.425052 57.6249133,36.6698473 C56.8962526,38.1332408 56.1554476,38.8861901 54.8256419,38.6068702 L54.8256419,38.6068702 C53.3136711,38.2911173 52.7064539,36.9613116 53.0525677,35.3157529 C53.2823146,34.1233348 53.9466307,33.058698 54.9167245,32.3282443 Z" id="Path"></path>
                    <path d="M55.7546842,40.8778626 L55.7546842,40.8778626 C57.7081376,42.0683793 58.32662,44.6170705 57.1361033,46.5705239 C55.9455867,48.5239773 53.3968954,49.1424597 51.4434421,47.9519431 L51.4434421,47.9519431 C49.4899888,46.7614264 48.8715064,44.2127352 50.0620231,42.2592819 C51.2525397,40.3058285 53.8012309,39.6873461 55.7546842,40.8778626 L55.7546842,40.8778626 Z M52.36034,46.4096114 L52.36034,46.4096114 C52.8953418,46.7628571 53.5507044,46.8840981 54.1766725,46.7456299 C54.8026405,46.6071616 55.3457218,46.2208169 55.6818182,45.6748786 C56.0173062,45.1346237 56.1162672,44.480321 55.9555536,43.8650173 C55.7948399,43.2497136 55.3885485,42.7273799 54.8317141,42.4201943 L54.8317141,42.4201943 C54.2967123,42.0669486 53.6413497,41.9457076 53.0153816,42.0841758 C52.3894136,42.2226441 51.8463323,42.6089888 51.5102359,43.1549271 C51.1747479,43.695182 51.0757869,44.3494846 51.2365005,44.9647884 C51.3972142,45.5800921 51.8035056,46.1024258 52.36034,46.4096114 L52.36034,46.4096114 Z" id="Shape"></path>
                    <path d="M49.925399,49.4517696 L49.925399,49.4517696 C50.6038726,50.292662 50.9085737,51.374626 50.7686298,52.446 C50.6286859,53.5173739 50.0562952,54.4847713 49.184594,55.1231783 C48.3091813,55.8712824 47.155669,56.2093808 46.0149202,56.0522207 L46.1060028,54.3884455 C46.8516081,54.498365 47.6105432,54.3108121 48.2191187,53.8662387 C48.7079931,53.4754717 49.016632,52.9024512 49.0739141,52.2792211 C49.1311963,51.6559909 48.9321807,51.036311 48.5227273,50.5629771 L48.5227273,50.5629771 C48.1656592,50.0451571 47.6136075,49.6945479 46.9931086,49.591513 C46.3726097,49.4884782 45.7368706,49.6418527 45.23161,50.0164816 C44.6202974,50.4995181 44.2357465,51.213684 44.1689799,51.9899375 L42.6327203,51.7895559 C42.7466672,50.1062858 43.8760814,48.6629015 45.4825484,48.1474933 C47.0890154,47.6320851 48.8473533,48.1489823 49.9193269,49.4517696 L49.925399,49.4517696 Z" id="Path"></path>
                    <polygon id="Path" points="43.7985774 58.2139139 42.2258848 58.9000694 39.1169327 51.759195 40.6896253 51.0791117"></polygon>
                    <polygon id="Path" points="38.9651284 60.120576 33.1722762 61.1649896 32.9051006 59.6651631 37.0159611 58.9243581 36.7366412 57.369882 33.093338 58.0196044 32.8200902 56.5197779 36.4633935 55.8700555 36.1780014 54.2609299 32.0064192 55.0138793 31.7392436 53.5140527 37.5806731 52.4574948"></polygon>
                    <polygon id="Path" points="28.0230743 59.4101319 30.379077 59.7015961 30.1847675 61.2682165 23.7725538 60.4788341 23.9668633 58.9122137 26.3228661 59.203678 27.0879598 53.0404233 28.7881679 53.2529493"></polygon>
                    <polygon id="Path" points="20.5603747 54.3277238 21.2708189 59.8655448 19.4491672 59.0154407 19.0909091 55.3721374 16.054823 57.4063151 14.287821 56.5804997 18.9937543 53.6051353 20.3114157 50.7937196 21.8658917 51.5223803"></polygon>
                </g>
            </g>
        </g>
    </g>
</svg>