<svg width="120" height="18" viewBox="0 0 120 18" fill="none" xmlns="http://www.w3.org/2000/svg">
    <path fill-rule="evenodd" clip-rule="evenodd" d="M7.57801 4.71255C7.61507 4.89835 7.64842 5.05813 7.67806 5.19192H11.8356C11.8207 4.95408 11.8022 4.70882 11.78 4.45614C11.7577 4.20344 11.7096 3.9396 11.6354 3.66461C11.5613 3.38961 11.4539 3.10719 11.313 2.81734C11.1723 2.52748 10.9833 2.23391 10.7461 1.93663C10.2126 1.29746 9.54189 0.825519 8.73411 0.520798C7.92632 0.216079 7.11485 0.0637207 6.29965 0.0637207C5.60303 0.0637207 4.91382 0.171486 4.23203 0.38702C3.55023 0.602553 2.93514 0.918417 2.38673 1.33462C1.83833 1.75083 1.39367 2.25992 1.05278 2.86193C0.711881 3.46394 0.541433 4.15141 0.541433 4.92436C0.541433 5.6973 0.697059 6.35877 1.00831 6.90875C1.31957 7.45873 1.69011 7.9158 2.11994 8.27998C2.54977 8.64416 2.99071 8.93401 3.44277 9.14954C3.89484 9.36508 4.26908 9.5323 4.56551 9.65122C5.20285 9.91878 5.72901 10.1455 6.14402 10.3313C6.55903 10.5171 6.8888 10.6917 7.13337 10.8552C7.37793 11.0187 7.54837 11.1971 7.64471 11.3903C7.74106 11.5836 7.78923 11.814 7.78923 12.0815C7.78923 12.468 7.64843 12.8284 7.36681 13.1629C7.0852 13.4973 6.69242 13.6646 6.18849 13.6646C6.05509 13.6646 5.89206 13.6385 5.69938 13.5866C5.50669 13.5345 5.31772 13.4268 5.13244 13.2632C4.94717 13.0998 4.79155 12.8694 4.66556 12.572C4.53958 12.2748 4.47658 11.8883 4.47658 11.4126H0.296875V11.9478C0.296875 12.4829 0.382099 13.0551 0.552549 13.6646C0.722999 14.274 1.03054 14.8389 1.47519 15.3591C1.91985 15.8794 2.52753 16.3141 3.29827 16.6634C4.06899 17.0127 5.04721 17.1875 6.23295 17.1875C7.31494 17.1875 8.22276 17.0351 8.95643 16.7304C9.69011 16.4256 10.2793 16.0355 10.7239 15.5598C11.1686 15.0842 11.4873 14.5453 11.6799 13.9433C11.8726 13.3413 11.9689 12.7356 11.9689 12.1261C11.9689 11.6504 11.9133 11.2008 11.8022 10.7772C11.691 10.3536 11.4909 9.94851 11.2019 9.56203C10.9129 9.17556 10.5201 8.80396 10.0236 8.44721C9.52707 8.09046 8.89344 7.74115 8.12272 7.39927C7.38162 7.07226 6.78877 6.80098 6.34411 6.58544C5.89946 6.36992 5.55486 6.17668 5.31031 6.00574C5.06574 5.8348 4.90641 5.66758 4.8323 5.50407C4.7582 5.34055 4.72114 5.13246 4.72114 4.87977C4.72114 4.49329 4.86936 4.18114 5.16579 3.94332C5.46223 3.70548 5.79571 3.58657 6.16625 3.58657C6.49233 3.58657 6.748 3.64231 6.93328 3.75379C7.11855 3.86527 7.26306 4.00648 7.36681 4.17743C7.47056 4.34837 7.54097 4.52674 7.57801 4.71255ZM16.4817 0.374955H12.8579V16.8744H16.882L16.7707 6.86324L16.8153 6.84094L23.0848 16.8744H26.7309V0.374955H22.7069L22.8848 10.6982L22.8402 10.7428L16.4817 0.374955ZM32.757 14.4896L31.8899 16.8753H27.3767L33.9797 0.375904H37.2924L43.8288 16.8753H39.2711L38.4707 14.4896H32.757ZM33.9135 11.1449H37.3597L35.6699 5.5036H35.6032L33.9135 11.1449ZM44.407 0.374955H49.6095C50.3358 0.374955 50.9582 0.397251 51.477 0.441844C51.9957 0.486438 52.4479 0.557043 52.8332 0.653661C53.2185 0.750279 53.5558 0.872909 53.8448 1.02155C54.1338 1.1702 54.4117 1.34857 54.6785 1.55667C55.3603 2.09179 55.8679 2.76439 56.2014 3.57451C56.5349 4.38461 56.7016 5.21329 56.7016 6.06056C56.7016 6.53623 56.6349 7.04903 56.5016 7.59902C56.3681 8.149 56.1421 8.67296 55.8234 9.17092C55.5048 9.66888 55.0824 10.1074 54.5562 10.4864C54.0301 10.8655 53.3816 11.1219 52.6109 11.2557L57.0796 16.8744H52.2773L48.4756 11.5455H48.4312V16.8744H44.407V0.374955ZM48.4309 8.66934H49.9205C50.5431 8.66934 51.0359 8.58386 51.399 8.41292C51.7622 8.24197 52.0364 8.03386 52.2217 7.78859C52.407 7.54332 52.5293 7.28689 52.5886 7.01932C52.6479 6.75175 52.6775 6.51391 52.6775 6.3058C52.6775 5.54768 52.4292 4.98653 51.9327 4.62233C51.4361 4.25813 50.7803 4.07604 49.965 4.07604H48.4309V8.66934ZM58.2795 0.374955H62.4814V7.79969H62.5259L67.1725 0.374955H71.5745L66.1275 8.60237L71.9303 16.8744H67.0168L62.5259 9.73948H62.4814V16.8744H58.2795V0.374955ZM113.884 0.984347V0.375012H113.272L113.884 0.984347ZM112.315 0.375012H111.196L113.884 3.05062V1.93678L112.315 0.375012ZM109.684 0.375012H110.239L113.884 4.00305V5.11685L109.684 0.935886V0.375012ZM109.684 1.88832V3.00225L113.884 7.18321V6.06928L109.684 1.88832ZM109.684 5.06853V3.95469L113.884 8.13565V9.24949L109.684 5.06853ZM117.825 13.1732H118.945L118.965 13.1938V14.3077L117.825 13.1732ZM109.684 6.02095L113.884 10.2019V11.3157L109.684 7.13481V6.02095ZM104.012 0.374942L104.163 0.524521L103.668 1.14618L102.893 0.374942H104.012ZM116.869 13.1732L118.965 15.2601V16.374L115.75 13.1732H116.869ZM113.884 13.1732V12.2682L109.684 8.08723V9.20103L117.392 16.8744H118.511L114.793 13.1732H113.884ZM100.818 0.374942H101.937L103.245 1.67776L102.751 2.29939L100.818 0.374942ZM116.436 16.8744L109.684 10.1535V11.2674L115.316 16.8744H116.436ZM99.861 0.374942L102.328 2.83096L101.834 3.45265L99.1732 0.804103L99.4793 0.374942H99.861ZM109.684 12.2198L114.36 16.8744H113.241L109.523 13.1732H109.684V12.2198ZM101.411 3.98422L98.7758 1.36102L98.3112 2.01232L100.917 4.60588L101.411 3.98422ZM112.284 16.8744L108.566 13.1732H107.447L111.165 16.8744H112.284ZM97.9138 2.56923L100.494 5.13746L99.9994 5.75911L97.4492 3.22053L97.9138 2.56923ZM106.49 13.1732L110.209 16.8744H109.09L105.371 13.1732H106.49ZM103.025 8.07839C103.29 8.49112 103.49 8.92171 103.627 9.37018L100.355 6.11356C100.893 6.25995 101.36 6.47639 101.758 6.76289C102.284 7.14194 102.707 7.58043 103.025 8.07839ZM103.867 10.5621L97.0519 3.77745L96.5872 4.42874L103.884 11.6922C103.897 11.5251 103.904 11.3573 103.904 11.1887C103.904 10.9866 103.892 10.7777 103.867 10.5621ZM95.6331 0.374942V1.41266L94.5907 0.374942H95.6331ZM95.6331 2.36509L93.6339 0.374942H92.515L95.6331 3.47893V2.36509ZM108.133 16.8744L104.565 13.3231V14.4369L107.014 16.8744H108.133ZM96.1899 4.98565L103.762 12.5238C103.7 12.8148 103.617 13.1035 103.514 13.3899L99.5866 9.48085L99.572 9.46125C99.4775 9.33615 99.3598 9.22072 99.2191 9.11496L95.7253 5.63698L96.1899 4.98565ZM91.609 0.425524L95.6331 4.43136V5.54525L91.609 1.53942V0.425524ZM104.565 15.3894L106.057 16.8744H104.938L104.565 16.5032V15.3894ZM103.228 14.0577L100.027 10.8712C100.027 10.8959 100.028 10.9202 100.028 10.944C100.028 11.2815 99.9785 11.5799 99.8802 11.8393L102.802 14.7477C102.961 14.5317 103.103 14.3017 103.228 14.0577ZM91.609 2.49184L97.744 8.59896C97.5956 8.58665 97.4379 8.5805 97.2708 8.5805H96.6065L91.609 3.60568V2.49184ZM90.4393 0.375011L90.8578 0.791687L91.023 0.375011H90.4393ZM90.5873 1.47475L89.4825 0.375011H88.3636L90.2708 2.27357L90.5873 1.47475ZM99.513 12.4263L102.362 15.2625C102.213 15.4146 102.052 15.558 101.88 15.6927C101.842 15.7227 101.803 15.7522 101.764 15.781L98.8505 12.8806C99.006 12.8092 99.1502 12.7249 99.283 12.6275C99.3667 12.5661 99.4434 12.499 99.513 12.4263ZM91.609 4.55812L95.7812 8.71134V9.82513L91.609 5.67191V4.55812ZM87.4069 0.375011L90.0003 2.95662L89.6838 3.75542L86.421 0.507323L86.4653 0.375011H87.4069ZM98.1198 13.1056L101.183 16.1549C101.138 16.18 101.092 16.2042 101.047 16.2277C100.853 16.3272 100.638 16.415 100.402 16.4912L97.0694 13.1738H97.3152C97.6033 13.1738 97.8715 13.1511 98.1198 13.1056ZM91.609 6.62435L95.7812 10.7776V11.8914L91.609 7.73819V6.62435ZM89.4132 4.43847L86.1813 1.22131L85.9012 2.0563L89.0968 5.23729L89.4132 4.43847ZM99.6367 16.6819L96.1126 13.1738H95.7812V12.8438L91.609 8.69062V9.80417L98.6469 16.8101L98.6789 16.8074C99.0285 16.7774 99.3478 16.7355 99.6367 16.6819ZM85.6521 2.76074L88.8261 5.92036L88.5097 6.71896L84.5335 2.76074H85.6521ZM91.609 10.7566L97.7407 16.8604C97.4525 16.8698 97.1428 16.8744 96.8114 16.8744H96.6356L91.609 11.8705V10.7566ZM88.2392 7.40201L83.5767 2.76074H82.4577L87.9227 8.2009L88.2392 7.40201ZM95.6788 16.8744L91.609 12.823V13.9369L94.5599 16.8744H95.6788ZM81.501 2.76074L87.652 8.88397L87.3356 9.68285L84.487 6.84714L84.7093 6.10511H83.7415L80.3819 2.76074H81.501ZM91.609 14.8893L93.6031 16.8744H92.4838L91.609 16.0035V14.8893ZM87.065 10.3659L84.2673 7.58081L84.0101 8.43907L86.7484 11.165L87.065 10.3659ZM77.0285 0.375011L82.7848 6.10511H81.6656L75.9093 0.375011H77.0285ZM79.7069 2.08881L77.9854 0.375011H79.0842L79.7069 2.08881ZM83.7904 9.17275L86.4779 11.848L86.1614 12.6467L83.5334 10.0306L83.7904 9.17275ZM74.9526 0.375011L81.4985 6.89128L81.9738 8.47815L75.059 1.59469L74.5709 0.375011H74.9526ZM83.3137 10.7643L85.8909 13.3298L85.5744 14.1287L83.0566 11.6224L83.3137 10.7643ZM75.6926 3.17781L82.3803 9.83523L82.8557 11.4225L76.4336 5.02942L75.6926 3.17781ZM85.3037 14.8118L77.0671 6.61255L77.8082 8.46412L84.9873 15.6107L85.3037 14.8118ZM78.4418 10.0472L84.7167 16.2938L84.4866 16.8744H84.181L79.1827 11.8988L78.4418 10.0472ZM83.2243 16.8744L79.8163 13.4819L80.557 15.3329L82.1056 16.8744H83.2243ZM77.4842 14.3402C77.3896 14.0271 77.2189 13.7423 76.9721 13.4856C76.7144 13.2271 76.4229 13.052 76.0975 12.9599L77.4842 14.3402ZM75.1049 12.9242C74.8234 12.9804 74.5658 13.0953 74.332 13.2686L77.199 16.1226C77.3717 15.8872 77.4845 15.6282 77.5374 15.3456L75.1049 12.9242ZM73.5018 14.5085C73.5596 14.2303 73.6765 13.9752 73.8522 13.7434L76.7257 16.6039C76.4954 16.7803 76.2417 16.899 75.9646 16.9601L73.5018 14.5085ZM74.9934 16.9458L73.5304 15.4894C73.6208 15.8228 73.7971 16.1212 74.0596 16.3843C74.3328 16.6685 74.6441 16.8557 74.9934 16.9458Z" fill="#0F172A"/>
</svg>
