<svg width="1025" height="4000" viewBox="0 0 1025 4000" fill="none" xmlns="http://www.w3.org/2000/svg">
    <line x1="0.500122" y1="2.00256e-08" x2="0.500122" y2="4000" stroke="#E1E7F4"/>
    <line x1="361.5150" y1="2.68057e-08" x2="361.5150" y2="4000" stroke="#E1E7F4"/>
    <line x1="481.91" y1="2.68057e-08" x2="481.91" y2="4000" stroke="#E1E7F4"/>
    <line x1="60.536" y1="2.68057e-08" x2="60.536" y2="4000" stroke="#E1E7F4"/>
    <line x1="421.691" y1="2.68057e-08" x2="421.691" y2="4000" stroke="#E1E7F4"/>
    <line x1="602.3" y1="2.65174e-08" x2="602.3" y2="4000" stroke="#E1E7F4"/>
    <line x1="120.737" y1="2.68057e-08" x2="120.737" y2="4000" stroke="#E1E7F4"/>
    <line x1="542.102" y1="2.63387e-08" x2="542.102" y2="4000" stroke="#E1E7F4"/>
    <line x1="782.890" y1="6.89257e-09" x2="782.890" y2="4000" stroke="#E1E7F4"/>
    <line x1="180.926" y1="2.68057e-08" x2="180.926" y2="4000" stroke="#E1E7F4"/>
    <line x1="662.494" y1="2.68057e-08" x2="662.494" y2="4000" stroke="#E1E7F4"/>
    <line x1="903.27" y1="6.89257e-09" x2="903.27" y2="4000" stroke="#E1E7F4"/>
    <line x1="241.122" y1="2.68057e-08" x2="241.122" y2="4000" stroke="#E1E7F4"/>
    <line x1="722.691" y1="6.81846e-09" x2="722.691" y2="4000" stroke="#E1E7F4"/>
    <line x1="963.472" y1="6.89257e-09" x2="963.472" y2="4000" stroke="#E1E7F4"/>
    <line x1="301.319" y1="2.65174e-08" x2="301.319" y2="4000" stroke="#E1E7F4"/>
    <line x1="843.082" y1="6.89257e-09" x2="843.082" y2="4000" stroke="#E1E7F4"/>
    <line x1="1023.671" y1="6.69967e-09" x2="1023.671" y2="4000" stroke="#E1E7F4"/>
</svg>
