<svg width="139" height="20" viewBox="0 0 139 20" fill="none" xmlns="http://www.w3.org/2000/svg">
    <path d="M34.3675 10.624L45.4715 -1.55294e-06H19.9995L24.9595 5.376L13.4395 16H21.3115L25.6635 11.9872V16H35.9674L41.7915 10.624H34.3675ZM26.2395 10.8902V5.376H32.1915L26.2395 10.8902Z" fill="#0F172A" fill-opacity="0.4"/>
    <path d="M55.0718 -1.55294e-06L37.7598 16H45.6318L62.9438 -1.55294e-06H55.0718Z" fill="#0F172A" fill-opacity="0.4"/>
    <path d="M23.2 5.376L18.208 -1.55294e-06H1.664L6.656 5.376H11.4877L0 16H7.872L12.768 11.488V5.376H23.2Z" fill="#0F172A" fill-opacity="0.4"/>
    <path d="M129.344 8.288L138.304 -1.55294e-06H130.432L122.52 7.31808L115.744 -1.55294e-06H106.848L116.704 10.624H111.392L105.6 16H130.56L123.418 8.288H129.344Z" fill="#0F172A" fill-opacity="0.4"/>
    <path d="M110.048 5.376L105.056 -1.55294e-06H95.8403H89.5683H87.9683L70.6562 16H78.5283L90.0233 5.376H99.616L88.1283 16H96.0003L100.896 11.488V5.376H110.048Z" fill="#0F172A" fill-opacity="0.4"/>
    <path d="M85.5672 8.9407e-07H77.6952L69.2792 7.648V8.9407e-07H65.3432L48.0312 16H55.9032L63.9352 8.576V20L85.5672 8.9407e-07Z" fill="#0F172A" fill-opacity="0.4"/>
</svg>
