<svg viewBox="0 0 24 24" fill="none" xmlns="http://www.w3.org/2000/svg">
    <path fill-rule="evenodd" clip-rule="evenodd" d="M3.89961 12.3L13.7996 2.09998L20.6996 2.09998L20.6996 9.29998L10.4996 19.2L3.89961 12.3ZM5.5 10.5L2 7.99989L2.45965 7.54025C3.6389 6.36104 4.22852 5.77144 4.93925 5.55211C5.35532 5.42372 5.79436 5.38744 6.22586 5.44579C6.96296 5.54546 7.64137 6.03027 8.99819 6.99989L5.5 10.5ZM15.4583 20.542L15.4583 20.542C16.639 19.3612 17.2294 18.7709 17.4486 18.0591C17.5764 17.644 17.6126 17.2062 17.5546 16.7757C17.4552 16.0376 16.9697 15.3584 15.9987 13.9999L12.5003 17.4999L15.0003 20.9999L15.4583 20.542Z" fill="#FF8831" fill-opacity="0.2"/>
    <path fill-rule="evenodd" clip-rule="evenodd" d="M15.3902 1.39996L15.4922 1.40001L19.201 1.40001L19.238 1.40001C19.6304 1.39997 19.9831 1.39994 20.2685 1.43831C20.5801 1.48021 20.8998 1.57749 21.1617 1.83935C21.4235 2.10121 21.5208 2.4209 21.5627 2.73252C21.6011 3.01793 21.601 3.37055 21.601 3.76301L21.601 3.76306L21.601 3.80001L21.601 7.50884L21.601 7.6108C21.6015 8.2467 21.6019 8.72957 21.4183 9.17287C21.2347 9.61617 20.893 9.95734 20.443 10.4066L20.3708 10.4787L16.7848 14.0647L17.2169 14.6692L17.2391 14.7002L17.2391 14.7003C17.6438 15.2665 17.9798 15.7365 18.2027 16.1481C18.4376 16.5819 18.5836 17.0143 18.5432 17.5033C18.5028 17.9923 18.2879 18.3949 17.9849 18.7843C17.6975 19.1538 17.289 19.5623 16.7968 20.0544L16.7698 20.0813L15.4269 21.4242C15.3022 21.549 15.129 21.6125 14.9532 21.5979C14.7774 21.5834 14.617 21.4922 14.5144 21.3487L12.4253 18.424C12.1198 18.7281 11.8492 18.9897 11.5999 19.18C11.2844 19.4207 10.9335 19.603 10.501 19.603C10.0685 19.603 9.71762 19.4207 9.40212 19.18C9.10774 18.9554 8.78373 18.6313 8.40767 18.2552L8.40764 18.2552L8.40763 18.2552L8.40761 18.2552L8.37967 18.2272L4.77379 14.6213L4.74586 14.5934C4.36973 14.2173 4.04565 13.8933 3.82104 13.5989C3.58032 13.2834 3.39805 12.9325 3.39805 12.5C3.39805 12.0675 3.58032 11.7166 3.82104 11.4011C4.01119 11.1519 4.27263 10.8814 4.57659 10.5761L1.65359 8.48817C1.51008 8.38566 1.41893 8.22519 1.40439 8.04942C1.38984 7.87365 1.45337 7.70038 1.57809 7.57567L2.92116 6.23263L2.94811 6.20568C3.44021 5.71357 3.84868 5.30509 4.21812 5.01768C4.6075 4.71476 5.01002 4.49985 5.49899 4.45944C5.98796 4.41903 6.4203 4.56494 6.85413 4.79984C7.26573 5.0227 7.73571 5.35857 8.3019 5.76322L8.30192 5.76323L8.33294 5.78539L8.93607 6.21641L12.5223 2.63016L12.5944 2.55803C13.0437 2.10802 13.3848 1.76632 13.8281 1.5827C14.2714 1.39908 14.7543 1.39946 15.3902 1.39996ZM5.43669 9.71579L7.61243 7.54005L8.07572 7.0765L7.63523 6.76172C7.03007 6.32925 6.62075 6.03808 6.28277 5.85509C5.95952 5.68006 5.76665 5.64141 5.59782 5.65536C5.429 5.66931 5.24509 5.73911 4.95496 5.96482C4.6516 6.20082 4.29564 6.55523 3.76968 7.08117L2.92743 7.92339L5.43669 9.71579ZM5.62231 11.2272L5.90157 10.948C5.91013 10.9403 5.91852 10.9324 5.92673 10.9242L8.4614 8.38813L13.3708 3.47869C13.9257 2.92382 14.0925 2.77208 14.2874 2.69135C14.4822 2.61063 14.7075 2.60001 15.4922 2.60001L19.201 2.60001C19.6422 2.60001 19.9128 2.60128 20.1086 2.62761C20.2807 2.65075 20.3094 2.68366 20.3128 2.68756L20.3131 2.68788L20.3134 2.68816C20.3173 2.69157 20.3503 2.7203 20.3734 2.89241C20.3997 3.08822 20.401 3.35878 20.401 3.80001L20.401 7.50884C20.401 8.29355 20.3904 8.51876 20.3097 8.71365C20.2289 8.90853 20.0772 9.07529 19.5223 9.63016L11.7738 17.3787C11.3618 17.7907 11.0946 18.0561 10.872 18.2259C10.6632 18.3852 10.5656 18.403 10.501 18.403C10.4364 18.403 10.3388 18.3852 10.13 18.2259C9.90741 18.0561 9.6402 17.7907 9.2282 17.3787L7.84989 16.0004L9.42595 14.4243C9.66027 14.19 9.66027 13.8101 9.42595 13.5758C9.19164 13.3415 8.81174 13.3415 8.57742 13.5758L7.00137 15.1519L5.62232 13.7728C5.21032 13.3608 4.94491 13.0936 4.77506 12.871C4.61578 12.6622 4.59805 12.5646 4.59805 12.5C4.59805 12.4354 4.61578 12.3378 4.77506 12.129C4.94491 11.9064 5.21032 11.6392 5.62231 11.2272ZM15.0792 20.0749L13.2863 17.5647L15.9248 14.925L16.2407 15.367C16.6732 15.9722 16.9644 16.3815 17.1475 16.7195C17.3225 17.0428 17.3612 17.2357 17.3473 17.4045C17.3333 17.5734 17.2635 17.7573 17.0378 18.0474C16.8018 18.3508 16.4473 18.7068 15.9213 19.2328L15.0792 20.0749ZM12.6043 8.99954C12.6043 8.22635 13.2311 7.59954 14.0043 7.59954C14.7775 7.59954 15.4043 8.22635 15.4043 8.99954C15.4043 9.77274 14.7775 10.3995 14.0043 10.3995C13.2311 10.3995 12.6043 9.77274 12.6043 8.99954ZM14.0043 6.39954C12.5684 6.39954 11.4043 7.5636 11.4043 8.99954C11.4043 10.4355 12.5684 11.5995 14.0043 11.5995C15.4402 11.5995 16.6043 10.4355 16.6043 8.99954C16.6043 7.5636 15.4402 6.39954 14.0043 6.39954Z" fill="#FF8831"/>
</svg>
